<?xml version="1.0" encoding="utf-8" standalone="no"?>
<!DOCTYPE svg PUBLIC "-//W3C//DTD SVG 1.1//EN"
  "http://www.w3.org/Graphics/SVG/1.1/DTD/svg11.dtd">
<svg xmlns:xlink="http://www.w3.org/1999/xlink" width="1134.422372pt" height="541.947731pt" viewBox="0 0 1134.422372 541.947731" xmlns="http://www.w3.org/2000/svg" version="1.1">
 <metadata>
  <rdf:RDF xmlns:dc="http://purl.org/dc/elements/1.1/" xmlns:cc="http://creativecommons.org/ns#" xmlns:rdf="http://www.w3.org/1999/02/22-rdf-syntax-ns#">
   <cc:Work>
    <dc:type rdf:resource="http://purl.org/dc/dcmitype/StillImage"/>
    <dc:date>2026-04-03T16:42:07.734481</dc:date>
    <dc:format>image/svg+xml</dc:format>
    <dc:creator>
     <cc:Agent>
      <dc:title>Matplotlib v3.10.6, https://matplotlib.org/</dc:title>
     </cc:Agent>
    </dc:creator>
   </cc:Work>
  </rdf:RDF>
 </metadata>
 <defs>
  <style type="text/css">*{stroke-linejoin: round; stroke-linecap: butt}</style>
 </defs>
 <g id="figure_1">
  <g id="patch_1">
   <path d="M 0 541.947731 
L 1134.422372 541.947731 
L 1134.422372 -0 
L 0 -0 
z
" style="fill: #ffffff"/>
  </g>
  <g id="axes_1">
   <g id="patch_2">
    <path d="M 46.965625 418.84 
L 487.713625 418.84 
L 487.713625 53.52 
L 46.965625 53.52 
z
" style="fill: #ffffff"/>
   </g>
   <g id="matplotlib.axis_1">
    <g id="xtick_1">
     <g id="line2d_1">
      <defs>
       <path id="m8f03bb1190" d="M 0 0 
L 0 3.5 
" style="stroke: #000000; stroke-width: 0.8"/>
      </defs>
      <g>
       <use xlink:href="#m8f03bb1190" x="66.999625" y="418.84" style="stroke: #000000; stroke-width: 0.8"/>
      </g>
     </g>
     <g id="text_1">
      <!-- yacht -->
      <g transform="translate(45.869286 450.872685) rotate(-45) scale(0.1 -0.1)">
       <defs>
        <path id="DejaVuSans-79" d="M 2059 -325 
Q 1816 -950 1584 -1140 
Q 1353 -1331 966 -1331 
L 506 -1331 
L 506 -850 
L 844 -850 
Q 1081 -850 1212 -737 
Q 1344 -625 1503 -206 
L 1606 56 
L 191 3500 
L 800 3500 
L 1894 763 
L 2988 3500 
L 3597 3500 
L 2059 -325 
z
" transform="scale(0.015625)"/>
        <path id="DejaVuSans-61" d="M 2194 1759 
Q 1497 1759 1228 1600 
Q 959 1441 959 1056 
Q 959 750 1161 570 
Q 1363 391 1709 391 
Q 2188 391 2477 730 
Q 2766 1069 2766 1631 
L 2766 1759 
L 2194 1759 
z
M 3341 1997 
L 3341 0 
L 2766 0 
L 2766 531 
Q 2569 213 2275 61 
Q 1981 -91 1556 -91 
Q 1019 -91 701 211 
Q 384 513 384 1019 
Q 384 1609 779 1909 
Q 1175 2209 1959 2209 
L 2766 2209 
L 2766 2266 
Q 2766 2663 2505 2880 
Q 2244 3097 1772 3097 
Q 1472 3097 1187 3025 
Q 903 2953 641 2809 
L 641 3341 
Q 956 3463 1253 3523 
Q 1550 3584 1831 3584 
Q 2591 3584 2966 3190 
Q 3341 2797 3341 1997 
z
" transform="scale(0.015625)"/>
        <path id="DejaVuSans-63" d="M 3122 3366 
L 3122 2828 
Q 2878 2963 2633 3030 
Q 2388 3097 2138 3097 
Q 1578 3097 1268 2742 
Q 959 2388 959 1747 
Q 959 1106 1268 751 
Q 1578 397 2138 397 
Q 2388 397 2633 464 
Q 2878 531 3122 666 
L 3122 134 
Q 2881 22 2623 -34 
Q 2366 -91 2075 -91 
Q 1284 -91 818 406 
Q 353 903 353 1747 
Q 353 2603 823 3093 
Q 1294 3584 2113 3584 
Q 2378 3584 2631 3529 
Q 2884 3475 3122 3366 
z
" transform="scale(0.015625)"/>
        <path id="DejaVuSans-68" d="M 3513 2113 
L 3513 0 
L 2938 0 
L 2938 2094 
Q 2938 2591 2744 2837 
Q 2550 3084 2163 3084 
Q 1697 3084 1428 2787 
Q 1159 2491 1159 1978 
L 1159 0 
L 581 0 
L 581 4863 
L 1159 4863 
L 1159 2956 
Q 1366 3272 1645 3428 
Q 1925 3584 2291 3584 
Q 2894 3584 3203 3211 
Q 3513 2838 3513 2113 
z
" transform="scale(0.015625)"/>
        <path id="DejaVuSans-74" d="M 1172 4494 
L 1172 3500 
L 2356 3500 
L 2356 3053 
L 1172 3053 
L 1172 1153 
Q 1172 725 1289 603 
Q 1406 481 1766 481 
L 2356 481 
L 2356 0 
L 1766 0 
Q 1100 0 847 248 
Q 594 497 594 1153 
L 594 3053 
L 172 3053 
L 172 3500 
L 594 3500 
L 594 4494 
L 1172 4494 
z
" transform="scale(0.015625)"/>
       </defs>
       <use xlink:href="#DejaVuSans-79"/>
       <use xlink:href="#DejaVuSans-61" transform="translate(59.179688 0)"/>
       <use xlink:href="#DejaVuSans-63" transform="translate(120.458984 0)"/>
       <use xlink:href="#DejaVuSans-68" transform="translate(175.439453 0)"/>
       <use xlink:href="#DejaVuSans-74" transform="translate(238.818359 0)"/>
      </g>
     </g>
    </g>
    <g id="xtick_2">
     <g id="line2d_2">
      <g>
       <use xlink:href="#m8f03bb1190" x="107.067625" y="418.84" style="stroke: #000000; stroke-width: 0.8"/>
      </g>
     </g>
     <g id="text_2">
      <!-- bostonHousing -->
      <g transform="translate(52.773978 484.035993) rotate(-45) scale(0.1 -0.1)">
       <defs>
        <path id="DejaVuSans-62" d="M 3116 1747 
Q 3116 2381 2855 2742 
Q 2594 3103 2138 3103 
Q 1681 3103 1420 2742 
Q 1159 2381 1159 1747 
Q 1159 1113 1420 752 
Q 1681 391 2138 391 
Q 2594 391 2855 752 
Q 3116 1113 3116 1747 
z
M 1159 2969 
Q 1341 3281 1617 3432 
Q 1894 3584 2278 3584 
Q 2916 3584 3314 3078 
Q 3713 2572 3713 1747 
Q 3713 922 3314 415 
Q 2916 -91 2278 -91 
Q 1894 -91 1617 61 
Q 1341 213 1159 525 
L 1159 0 
L 581 0 
L 581 4863 
L 1159 4863 
L 1159 2969 
z
" transform="scale(0.015625)"/>
        <path id="DejaVuSans-6f" d="M 1959 3097 
Q 1497 3097 1228 2736 
Q 959 2375 959 1747 
Q 959 1119 1226 758 
Q 1494 397 1959 397 
Q 2419 397 2687 759 
Q 2956 1122 2956 1747 
Q 2956 2369 2687 2733 
Q 2419 3097 1959 3097 
z
M 1959 3584 
Q 2709 3584 3137 3096 
Q 3566 2609 3566 1747 
Q 3566 888 3137 398 
Q 2709 -91 1959 -91 
Q 1206 -91 779 398 
Q 353 888 353 1747 
Q 353 2609 779 3096 
Q 1206 3584 1959 3584 
z
" transform="scale(0.015625)"/>
        <path id="DejaVuSans-73" d="M 2834 3397 
L 2834 2853 
Q 2591 2978 2328 3040 
Q 2066 3103 1784 3103 
Q 1356 3103 1142 2972 
Q 928 2841 928 2578 
Q 928 2378 1081 2264 
Q 1234 2150 1697 2047 
L 1894 2003 
Q 2506 1872 2764 1633 
Q 3022 1394 3022 966 
Q 3022 478 2636 193 
Q 2250 -91 1575 -91 
Q 1294 -91 989 -36 
Q 684 19 347 128 
L 347 722 
Q 666 556 975 473 
Q 1284 391 1588 391 
Q 1994 391 2212 530 
Q 2431 669 2431 922 
Q 2431 1156 2273 1281 
Q 2116 1406 1581 1522 
L 1381 1569 
Q 847 1681 609 1914 
Q 372 2147 372 2553 
Q 372 3047 722 3315 
Q 1072 3584 1716 3584 
Q 2034 3584 2315 3537 
Q 2597 3491 2834 3397 
z
" transform="scale(0.015625)"/>
        <path id="DejaVuSans-6e" d="M 3513 2113 
L 3513 0 
L 2938 0 
L 2938 2094 
Q 2938 2591 2744 2837 
Q 2550 3084 2163 3084 
Q 1697 3084 1428 2787 
Q 1159 2491 1159 1978 
L 1159 0 
L 581 0 
L 581 3500 
L 1159 3500 
L 1159 2956 
Q 1366 3272 1645 3428 
Q 1925 3584 2291 3584 
Q 2894 3584 3203 3211 
Q 3513 2838 3513 2113 
z
" transform="scale(0.015625)"/>
        <path id="DejaVuSans-48" d="M 628 4666 
L 1259 4666 
L 1259 2753 
L 3553 2753 
L 3553 4666 
L 4184 4666 
L 4184 0 
L 3553 0 
L 3553 2222 
L 1259 2222 
L 1259 0 
L 628 0 
L 628 4666 
z
" transform="scale(0.015625)"/>
        <path id="DejaVuSans-75" d="M 544 1381 
L 544 3500 
L 1119 3500 
L 1119 1403 
Q 1119 906 1312 657 
Q 1506 409 1894 409 
Q 2359 409 2629 706 
Q 2900 1003 2900 1516 
L 2900 3500 
L 3475 3500 
L 3475 0 
L 2900 0 
L 2900 538 
Q 2691 219 2414 64 
Q 2138 -91 1772 -91 
Q 1169 -91 856 284 
Q 544 659 544 1381 
z
M 1991 3584 
L 1991 3584 
z
" transform="scale(0.015625)"/>
        <path id="DejaVuSans-69" d="M 603 3500 
L 1178 3500 
L 1178 0 
L 603 0 
L 603 3500 
z
M 603 4863 
L 1178 4863 
L 1178 4134 
L 603 4134 
L 603 4863 
z
" transform="scale(0.015625)"/>
        <path id="DejaVuSans-67" d="M 2906 1791 
Q 2906 2416 2648 2759 
Q 2391 3103 1925 3103 
Q 1463 3103 1205 2759 
Q 947 2416 947 1791 
Q 947 1169 1205 825 
Q 1463 481 1925 481 
Q 2391 481 2648 825 
Q 2906 1169 2906 1791 
z
M 3481 434 
Q 3481 -459 3084 -895 
Q 2688 -1331 1869 -1331 
Q 1566 -1331 1297 -1286 
Q 1028 -1241 775 -1147 
L 775 -588 
Q 1028 -725 1275 -790 
Q 1522 -856 1778 -856 
Q 2344 -856 2625 -561 
Q 2906 -266 2906 331 
L 2906 616 
Q 2728 306 2450 153 
Q 2172 0 1784 0 
Q 1141 0 747 490 
Q 353 981 353 1791 
Q 353 2603 747 3093 
Q 1141 3584 1784 3584 
Q 2172 3584 2450 3431 
Q 2728 3278 2906 2969 
L 2906 3500 
L 3481 3500 
L 3481 434 
z
" transform="scale(0.015625)"/>
       </defs>
       <use xlink:href="#DejaVuSans-62"/>
       <use xlink:href="#DejaVuSans-6f" transform="translate(63.476562 0)"/>
       <use xlink:href="#DejaVuSans-73" transform="translate(124.658203 0)"/>
       <use xlink:href="#DejaVuSans-74" transform="translate(176.757812 0)"/>
       <use xlink:href="#DejaVuSans-6f" transform="translate(215.966797 0)"/>
       <use xlink:href="#DejaVuSans-6e" transform="translate(277.148438 0)"/>
       <use xlink:href="#DejaVuSans-48" transform="translate(340.527344 0)"/>
       <use xlink:href="#DejaVuSans-6f" transform="translate(415.722656 0)"/>
       <use xlink:href="#DejaVuSans-75" transform="translate(476.904297 0)"/>
       <use xlink:href="#DejaVuSans-73" transform="translate(540.283203 0)"/>
       <use xlink:href="#DejaVuSans-69" transform="translate(592.382812 0)"/>
       <use xlink:href="#DejaVuSans-6e" transform="translate(620.166016 0)"/>
       <use xlink:href="#DejaVuSans-67" transform="translate(683.544922 0)"/>
      </g>
     </g>
    </g>
    <g id="xtick_3">
     <g id="line2d_3">
      <g>
       <use xlink:href="#m8f03bb1190" x="147.135625" y="418.84" style="stroke: #000000; stroke-width: 0.8"/>
      </g>
     </g>
     <g id="text_3">
      <!-- energy -->
      <g transform="translate(121.024602 455.853368) rotate(-45) scale(0.1 -0.1)">
       <defs>
        <path id="DejaVuSans-65" d="M 3597 1894 
L 3597 1613 
L 953 1613 
Q 991 1019 1311 708 
Q 1631 397 2203 397 
Q 2534 397 2845 478 
Q 3156 559 3463 722 
L 3463 178 
Q 3153 47 2828 -22 
Q 2503 -91 2169 -91 
Q 1331 -91 842 396 
Q 353 884 353 1716 
Q 353 2575 817 3079 
Q 1281 3584 2069 3584 
Q 2775 3584 3186 3129 
Q 3597 2675 3597 1894 
z
M 3022 2063 
Q 3016 2534 2758 2815 
Q 2500 3097 2075 3097 
Q 1594 3097 1305 2825 
Q 1016 2553 972 2059 
L 3022 2063 
z
" transform="scale(0.015625)"/>
        <path id="DejaVuSans-72" d="M 2631 2963 
Q 2534 3019 2420 3045 
Q 2306 3072 2169 3072 
Q 1681 3072 1420 2755 
Q 1159 2438 1159 1844 
L 1159 0 
L 581 0 
L 581 3500 
L 1159 3500 
L 1159 2956 
Q 1341 3275 1631 3429 
Q 1922 3584 2338 3584 
Q 2397 3584 2469 3576 
Q 2541 3569 2628 3553 
L 2631 2963 
z
" transform="scale(0.015625)"/>
       </defs>
       <use xlink:href="#DejaVuSans-65"/>
       <use xlink:href="#DejaVuSans-6e" transform="translate(61.523438 0)"/>
       <use xlink:href="#DejaVuSans-65" transform="translate(124.902344 0)"/>
       <use xlink:href="#DejaVuSans-72" transform="translate(186.425781 0)"/>
       <use xlink:href="#DejaVuSans-67" transform="translate(225.789062 0)"/>
       <use xlink:href="#DejaVuSans-79" transform="translate(289.265625 0)"/>
      </g>
     </g>
    </g>
    <g id="xtick_4">
     <g id="line2d_4">
      <g>
       <use xlink:href="#m8f03bb1190" x="187.203625" y="418.84" style="stroke: #000000; stroke-width: 0.8"/>
      </g>
     </g>
     <g id="text_4">
      <!-- concrete -->
      <g transform="translate(154.927515 462.018456) rotate(-45) scale(0.1 -0.1)">
       <use xlink:href="#DejaVuSans-63"/>
       <use xlink:href="#DejaVuSans-6f" transform="translate(54.980469 0)"/>
       <use xlink:href="#DejaVuSans-6e" transform="translate(116.162109 0)"/>
       <use xlink:href="#DejaVuSans-63" transform="translate(179.541016 0)"/>
       <use xlink:href="#DejaVuSans-72" transform="translate(234.521484 0)"/>
       <use xlink:href="#DejaVuSans-65" transform="translate(273.384766 0)"/>
       <use xlink:href="#DejaVuSans-74" transform="translate(334.908203 0)"/>
       <use xlink:href="#DejaVuSans-65" transform="translate(374.117188 0)"/>
      </g>
     </g>
    </g>
    <g id="xtick_5">
     <g id="line2d_5">
      <g>
       <use xlink:href="#m8f03bb1190" x="227.271625" y="418.84" style="stroke: #000000; stroke-width: 0.8"/>
      </g>
     </g>
     <g id="text_5">
      <!-- wine-quality-red -->
      <g transform="translate(168.465753 488.548218) rotate(-45) scale(0.1 -0.1)">
       <defs>
        <path id="DejaVuSans-77" d="M 269 3500 
L 844 3500 
L 1563 769 
L 2278 3500 
L 2956 3500 
L 3675 769 
L 4391 3500 
L 4966 3500 
L 4050 0 
L 3372 0 
L 2619 2869 
L 1863 0 
L 1184 0 
L 269 3500 
z
" transform="scale(0.015625)"/>
        <path id="DejaVuSans-2d" d="M 313 2009 
L 1997 2009 
L 1997 1497 
L 313 1497 
L 313 2009 
z
" transform="scale(0.015625)"/>
        <path id="DejaVuSans-71" d="M 947 1747 
Q 947 1113 1208 752 
Q 1469 391 1925 391 
Q 2381 391 2643 752 
Q 2906 1113 2906 1747 
Q 2906 2381 2643 2742 
Q 2381 3103 1925 3103 
Q 1469 3103 1208 2742 
Q 947 2381 947 1747 
z
M 2906 525 
Q 2725 213 2448 61 
Q 2172 -91 1784 -91 
Q 1150 -91 751 415 
Q 353 922 353 1747 
Q 353 2572 751 3078 
Q 1150 3584 1784 3584 
Q 2172 3584 2448 3432 
Q 2725 3281 2906 2969 
L 2906 3500 
L 3481 3500 
L 3481 -1331 
L 2906 -1331 
L 2906 525 
z
" transform="scale(0.015625)"/>
        <path id="DejaVuSans-6c" d="M 603 4863 
L 1178 4863 
L 1178 0 
L 603 0 
L 603 4863 
z
" transform="scale(0.015625)"/>
        <path id="DejaVuSans-64" d="M 2906 2969 
L 2906 4863 
L 3481 4863 
L 3481 0 
L 2906 0 
L 2906 525 
Q 2725 213 2448 61 
Q 2172 -91 1784 -91 
Q 1150 -91 751 415 
Q 353 922 353 1747 
Q 353 2572 751 3078 
Q 1150 3584 1784 3584 
Q 2172 3584 2448 3432 
Q 2725 3281 2906 2969 
z
M 947 1747 
Q 947 1113 1208 752 
Q 1469 391 1925 391 
Q 2381 391 2643 752 
Q 2906 1113 2906 1747 
Q 2906 2381 2643 2742 
Q 2381 3103 1925 3103 
Q 1469 3103 1208 2742 
Q 947 2381 947 1747 
z
" transform="scale(0.015625)"/>
       </defs>
       <use xlink:href="#DejaVuSans-77"/>
       <use xlink:href="#DejaVuSans-69" transform="translate(81.787109 0)"/>
       <use xlink:href="#DejaVuSans-6e" transform="translate(109.570312 0)"/>
       <use xlink:href="#DejaVuSans-65" transform="translate(172.949219 0)"/>
       <use xlink:href="#DejaVuSans-2d" transform="translate(234.472656 0)"/>
       <use xlink:href="#DejaVuSans-71" transform="translate(270.556641 0)"/>
       <use xlink:href="#DejaVuSans-75" transform="translate(334.033203 0)"/>
       <use xlink:href="#DejaVuSans-61" transform="translate(397.412109 0)"/>
       <use xlink:href="#DejaVuSans-6c" transform="translate(458.691406 0)"/>
       <use xlink:href="#DejaVuSans-69" transform="translate(486.474609 0)"/>
       <use xlink:href="#DejaVuSans-74" transform="translate(514.257812 0)"/>
       <use xlink:href="#DejaVuSans-79" transform="translate(553.466797 0)"/>
       <use xlink:href="#DejaVuSans-2d" transform="translate(610.896484 0)"/>
       <use xlink:href="#DejaVuSans-72" transform="translate(646.980469 0)"/>
       <use xlink:href="#DejaVuSans-65" transform="translate(685.84375 0)"/>
       <use xlink:href="#DejaVuSans-64" transform="translate(747.367188 0)"/>
      </g>
     </g>
    </g>
    <g id="xtick_6">
     <g id="line2d_6">
      <g>
       <use xlink:href="#m8f03bb1190" x="267.339625" y="418.84" style="stroke: #000000; stroke-width: 0.8"/>
      </g>
     </g>
     <g id="text_6">
      <!-- kin8nm -->
      <g transform="translate(239.460835 457.621135) rotate(-45) scale(0.1 -0.1)">
       <defs>
        <path id="DejaVuSans-6b" d="M 581 4863 
L 1159 4863 
L 1159 1991 
L 2875 3500 
L 3609 3500 
L 1753 1863 
L 3688 0 
L 2938 0 
L 1159 1709 
L 1159 0 
L 581 0 
L 581 4863 
z
" transform="scale(0.015625)"/>
        <path id="DejaVuSans-38" d="M 2034 2216 
Q 1584 2216 1326 1975 
Q 1069 1734 1069 1313 
Q 1069 891 1326 650 
Q 1584 409 2034 409 
Q 2484 409 2743 651 
Q 3003 894 3003 1313 
Q 3003 1734 2745 1975 
Q 2488 2216 2034 2216 
z
M 1403 2484 
Q 997 2584 770 2862 
Q 544 3141 544 3541 
Q 544 4100 942 4425 
Q 1341 4750 2034 4750 
Q 2731 4750 3128 4425 
Q 3525 4100 3525 3541 
Q 3525 3141 3298 2862 
Q 3072 2584 2669 2484 
Q 3125 2378 3379 2068 
Q 3634 1759 3634 1313 
Q 3634 634 3220 271 
Q 2806 -91 2034 -91 
Q 1263 -91 848 271 
Q 434 634 434 1313 
Q 434 1759 690 2068 
Q 947 2378 1403 2484 
z
M 1172 3481 
Q 1172 3119 1398 2916 
Q 1625 2713 2034 2713 
Q 2441 2713 2670 2916 
Q 2900 3119 2900 3481 
Q 2900 3844 2670 4047 
Q 2441 4250 2034 4250 
Q 1625 4250 1398 4047 
Q 1172 3844 1172 3481 
z
" transform="scale(0.015625)"/>
        <path id="DejaVuSans-6d" d="M 3328 2828 
Q 3544 3216 3844 3400 
Q 4144 3584 4550 3584 
Q 5097 3584 5394 3201 
Q 5691 2819 5691 2113 
L 5691 0 
L 5113 0 
L 5113 2094 
Q 5113 2597 4934 2840 
Q 4756 3084 4391 3084 
Q 3944 3084 3684 2787 
Q 3425 2491 3425 1978 
L 3425 0 
L 2847 0 
L 2847 2094 
Q 2847 2600 2669 2842 
Q 2491 3084 2119 3084 
Q 1678 3084 1418 2786 
Q 1159 2488 1159 1978 
L 1159 0 
L 581 0 
L 581 3500 
L 1159 3500 
L 1159 2956 
Q 1356 3278 1631 3431 
Q 1906 3584 2284 3584 
Q 2666 3584 2933 3390 
Q 3200 3197 3328 2828 
z
" transform="scale(0.015625)"/>
       </defs>
       <use xlink:href="#DejaVuSans-6b"/>
       <use xlink:href="#DejaVuSans-69" transform="translate(57.910156 0)"/>
       <use xlink:href="#DejaVuSans-6e" transform="translate(85.693359 0)"/>
       <use xlink:href="#DejaVuSans-38" transform="translate(149.072266 0)"/>
       <use xlink:href="#DejaVuSans-6e" transform="translate(212.695312 0)"/>
       <use xlink:href="#DejaVuSans-6d" transform="translate(276.074219 0)"/>
      </g>
     </g>
    </g>
    <g id="xtick_7">
     <g id="line2d_7">
      <g>
       <use xlink:href="#m8f03bb1190" x="307.407625" y="418.84" style="stroke: #000000; stroke-width: 0.8"/>
      </g>
     </g>
     <g id="text_7">
      <!-- power-plant -->
      <g transform="translate(263.940445 473.209525) rotate(-45) scale(0.1 -0.1)">
       <defs>
        <path id="DejaVuSans-70" d="M 1159 525 
L 1159 -1331 
L 581 -1331 
L 581 3500 
L 1159 3500 
L 1159 2969 
Q 1341 3281 1617 3432 
Q 1894 3584 2278 3584 
Q 2916 3584 3314 3078 
Q 3713 2572 3713 1747 
Q 3713 922 3314 415 
Q 2916 -91 2278 -91 
Q 1894 -91 1617 61 
Q 1341 213 1159 525 
z
M 3116 1747 
Q 3116 2381 2855 2742 
Q 2594 3103 2138 3103 
Q 1681 3103 1420 2742 
Q 1159 2381 1159 1747 
Q 1159 1113 1420 752 
Q 1681 391 2138 391 
Q 2594 391 2855 752 
Q 3116 1113 3116 1747 
z
" transform="scale(0.015625)"/>
       </defs>
       <use xlink:href="#DejaVuSans-70"/>
       <use xlink:href="#DejaVuSans-6f" transform="translate(63.476562 0)"/>
       <use xlink:href="#DejaVuSans-77" transform="translate(124.658203 0)"/>
       <use xlink:href="#DejaVuSans-65" transform="translate(206.445312 0)"/>
       <use xlink:href="#DejaVuSans-72" transform="translate(267.96875 0)"/>
       <use xlink:href="#DejaVuSans-2d" transform="translate(302.707031 0)"/>
       <use xlink:href="#DejaVuSans-70" transform="translate(338.791016 0)"/>
       <use xlink:href="#DejaVuSans-6c" transform="translate(402.267578 0)"/>
       <use xlink:href="#DejaVuSans-61" transform="translate(430.050781 0)"/>
       <use xlink:href="#DejaVuSans-6e" transform="translate(491.330078 0)"/>
       <use xlink:href="#DejaVuSans-74" transform="translate(554.708984 0)"/>
      </g>
     </g>
    </g>
    <g id="xtick_8">
     <g id="line2d_8">
      <g>
       <use xlink:href="#m8f03bb1190" x="347.475625" y="418.84" style="stroke: #000000; stroke-width: 0.8"/>
      </g>
     </g>
     <g id="text_8">
      <!-- naval-propulsion-plant -->
      <g transform="translate(266.611336 510.606635) rotate(-45) scale(0.1 -0.1)">
       <defs>
        <path id="DejaVuSans-76" d="M 191 3500 
L 800 3500 
L 1894 563 
L 2988 3500 
L 3597 3500 
L 2284 0 
L 1503 0 
L 191 3500 
z
" transform="scale(0.015625)"/>
       </defs>
       <use xlink:href="#DejaVuSans-6e"/>
       <use xlink:href="#DejaVuSans-61" transform="translate(63.378906 0)"/>
       <use xlink:href="#DejaVuSans-76" transform="translate(124.658203 0)"/>
       <use xlink:href="#DejaVuSans-61" transform="translate(183.837891 0)"/>
       <use xlink:href="#DejaVuSans-6c" transform="translate(245.117188 0)"/>
       <use xlink:href="#DejaVuSans-2d" transform="translate(272.900391 0)"/>
       <use xlink:href="#DejaVuSans-70" transform="translate(308.984375 0)"/>
       <use xlink:href="#DejaVuSans-72" transform="translate(372.460938 0)"/>
       <use xlink:href="#DejaVuSans-6f" transform="translate(411.324219 0)"/>
       <use xlink:href="#DejaVuSans-70" transform="translate(472.505859 0)"/>
       <use xlink:href="#DejaVuSans-75" transform="translate(535.982422 0)"/>
       <use xlink:href="#DejaVuSans-6c" transform="translate(599.361328 0)"/>
       <use xlink:href="#DejaVuSans-73" transform="translate(627.144531 0)"/>
       <use xlink:href="#DejaVuSans-69" transform="translate(679.244141 0)"/>
       <use xlink:href="#DejaVuSans-6f" transform="translate(707.027344 0)"/>
       <use xlink:href="#DejaVuSans-6e" transform="translate(768.208984 0)"/>
       <use xlink:href="#DejaVuSans-2d" transform="translate(831.587891 0)"/>
       <use xlink:href="#DejaVuSans-70" transform="translate(867.671875 0)"/>
       <use xlink:href="#DejaVuSans-6c" transform="translate(931.148438 0)"/>
       <use xlink:href="#DejaVuSans-61" transform="translate(958.931641 0)"/>
       <use xlink:href="#DejaVuSans-6e" transform="translate(1020.210938 0)"/>
       <use xlink:href="#DejaVuSans-74" transform="translate(1083.589844 0)"/>
      </g>
     </g>
    </g>
    <g id="xtick_9">
     <g id="line2d_9">
      <g>
       <use xlink:href="#m8f03bb1190" x="387.543625" y="418.84" style="stroke: #000000; stroke-width: 0.8"/>
      </g>
     </g>
     <g id="text_9">
      <!-- bike -->
      <g transform="translate(371.430429 445.855541) rotate(-45) scale(0.1 -0.1)">
       <use xlink:href="#DejaVuSans-62"/>
       <use xlink:href="#DejaVuSans-69" transform="translate(63.476562 0)"/>
       <use xlink:href="#DejaVuSans-6b" transform="translate(91.259766 0)"/>
       <use xlink:href="#DejaVuSans-65" transform="translate(145.544922 0)"/>
      </g>
     </g>
    </g>
    <g id="xtick_10">
     <g id="line2d_10">
      <g>
       <use xlink:href="#m8f03bb1190" x="427.611625" y="418.84" style="stroke: #000000; stroke-width: 0.8"/>
      </g>
     </g>
     <g id="text_10">
      <!-- sinus -->
      <g transform="translate(407.846886 449.507085) rotate(-45) scale(0.1 -0.1)">
       <use xlink:href="#DejaVuSans-73"/>
       <use xlink:href="#DejaVuSans-69" transform="translate(52.099609 0)"/>
       <use xlink:href="#DejaVuSans-6e" transform="translate(79.882812 0)"/>
       <use xlink:href="#DejaVuSans-75" transform="translate(143.261719 0)"/>
       <use xlink:href="#DejaVuSans-73" transform="translate(206.640625 0)"/>
      </g>
     </g>
    </g>
    <g id="xtick_11">
     <g id="line2d_11">
      <g>
       <use xlink:href="#m8f03bb1190" x="467.679625" y="418.84" style="stroke: #000000; stroke-width: 0.8"/>
      </g>
     </g>
     <g id="text_11">
      <!-- protein-tertiary-structure -->
      <g transform="translate(377.822926 519.599045) rotate(-45) scale(0.1 -0.1)">
       <use xlink:href="#DejaVuSans-70"/>
       <use xlink:href="#DejaVuSans-72" transform="translate(63.476562 0)"/>
       <use xlink:href="#DejaVuSans-6f" transform="translate(102.339844 0)"/>
       <use xlink:href="#DejaVuSans-74" transform="translate(163.521484 0)"/>
       <use xlink:href="#DejaVuSans-65" transform="translate(202.730469 0)"/>
       <use xlink:href="#DejaVuSans-69" transform="translate(264.253906 0)"/>
       <use xlink:href="#DejaVuSans-6e" transform="translate(292.037109 0)"/>
       <use xlink:href="#DejaVuSans-2d" transform="translate(355.416016 0)"/>
       <use xlink:href="#DejaVuSans-74" transform="translate(391.5 0)"/>
       <use xlink:href="#DejaVuSans-65" transform="translate(430.708984 0)"/>
       <use xlink:href="#DejaVuSans-72" transform="translate(492.232422 0)"/>
       <use xlink:href="#DejaVuSans-74" transform="translate(533.345703 0)"/>
       <use xlink:href="#DejaVuSans-69" transform="translate(572.554688 0)"/>
       <use xlink:href="#DejaVuSans-61" transform="translate(600.337891 0)"/>
       <use xlink:href="#DejaVuSans-72" transform="translate(661.617188 0)"/>
       <use xlink:href="#DejaVuSans-79" transform="translate(702.730469 0)"/>
       <use xlink:href="#DejaVuSans-2d" transform="translate(760.160156 0)"/>
       <use xlink:href="#DejaVuSans-73" transform="translate(796.244141 0)"/>
       <use xlink:href="#DejaVuSans-74" transform="translate(848.34375 0)"/>
       <use xlink:href="#DejaVuSans-72" transform="translate(887.552734 0)"/>
       <use xlink:href="#DejaVuSans-75" transform="translate(928.666016 0)"/>
       <use xlink:href="#DejaVuSans-63" transform="translate(992.044922 0)"/>
       <use xlink:href="#DejaVuSans-74" transform="translate(1047.025391 0)"/>
       <use xlink:href="#DejaVuSans-75" transform="translate(1086.234375 0)"/>
       <use xlink:href="#DejaVuSans-72" transform="translate(1149.613281 0)"/>
       <use xlink:href="#DejaVuSans-65" transform="translate(1188.476562 0)"/>
      </g>
     </g>
    </g>
    <g id="text_12">
     <!-- Dataset -->
     <g transform="translate(247.759938 532.668043) scale(0.1 -0.1)">
      <defs>
       <path id="DejaVuSans-44" d="M 1259 4147 
L 1259 519 
L 2022 519 
Q 2988 519 3436 956 
Q 3884 1394 3884 2338 
Q 3884 3275 3436 3711 
Q 2988 4147 2022 4147 
L 1259 4147 
z
M 628 4666 
L 1925 4666 
Q 3281 4666 3915 4102 
Q 4550 3538 4550 2338 
Q 4550 1131 3912 565 
Q 3275 0 1925 0 
L 628 0 
L 628 4666 
z
" transform="scale(0.015625)"/>
      </defs>
      <use xlink:href="#DejaVuSans-44"/>
      <use xlink:href="#DejaVuSans-61" transform="translate(77.001953 0)"/>
      <use xlink:href="#DejaVuSans-74" transform="translate(138.28125 0)"/>
      <use xlink:href="#DejaVuSans-61" transform="translate(177.490234 0)"/>
      <use xlink:href="#DejaVuSans-73" transform="translate(238.769531 0)"/>
      <use xlink:href="#DejaVuSans-65" transform="translate(290.869141 0)"/>
      <use xlink:href="#DejaVuSans-74" transform="translate(352.392578 0)"/>
     </g>
    </g>
   </g>
   <g id="matplotlib.axis_2">
    <g id="ytick_1">
     <g id="line2d_12">
      <defs>
       <path id="mb4d3656923" d="M 0 0 
L -3.5 0 
" style="stroke: #000000; stroke-width: 0.8"/>
      </defs>
      <g>
       <use xlink:href="#mb4d3656923" x="46.965625" y="404.997389" style="stroke: #000000; stroke-width: 0.8"/>
      </g>
     </g>
     <g id="text_13">
      <!-- 0 -->
      <g transform="translate(33.603125 408.796608) scale(0.1 -0.1)">
       <defs>
        <path id="DejaVuSans-30" d="M 2034 4250 
Q 1547 4250 1301 3770 
Q 1056 3291 1056 2328 
Q 1056 1369 1301 889 
Q 1547 409 2034 409 
Q 2525 409 2770 889 
Q 3016 1369 3016 2328 
Q 3016 3291 2770 3770 
Q 2525 4250 2034 4250 
z
M 2034 4750 
Q 2819 4750 3233 4129 
Q 3647 3509 3647 2328 
Q 3647 1150 3233 529 
Q 2819 -91 2034 -91 
Q 1250 -91 836 529 
Q 422 1150 422 2328 
Q 422 3509 836 4129 
Q 1250 4750 2034 4750 
z
" transform="scale(0.015625)"/>
       </defs>
       <use xlink:href="#DejaVuSans-30"/>
      </g>
     </g>
    </g>
    <g id="ytick_2">
     <g id="line2d_13">
      <g>
       <use xlink:href="#mb4d3656923" x="46.965625" y="363.043253" style="stroke: #000000; stroke-width: 0.8"/>
      </g>
     </g>
     <g id="text_14">
      <!-- 100 -->
      <g transform="translate(20.878125 366.842471) scale(0.1 -0.1)">
       <defs>
        <path id="DejaVuSans-31" d="M 794 531 
L 1825 531 
L 1825 4091 
L 703 3866 
L 703 4441 
L 1819 4666 
L 2450 4666 
L 2450 531 
L 3481 531 
L 3481 0 
L 794 0 
L 794 531 
z
" transform="scale(0.015625)"/>
       </defs>
       <use xlink:href="#DejaVuSans-31"/>
       <use xlink:href="#DejaVuSans-30" transform="translate(63.623047 0)"/>
       <use xlink:href="#DejaVuSans-30" transform="translate(127.246094 0)"/>
      </g>
     </g>
    </g>
    <g id="ytick_3">
     <g id="line2d_14">
      <g>
       <use xlink:href="#mb4d3656923" x="46.965625" y="321.089116" style="stroke: #000000; stroke-width: 0.8"/>
      </g>
     </g>
     <g id="text_15">
      <!-- 200 -->
      <g transform="translate(20.878125 324.888335) scale(0.1 -0.1)">
       <defs>
        <path id="DejaVuSans-32" d="M 1228 531 
L 3431 531 
L 3431 0 
L 469 0 
L 469 531 
Q 828 903 1448 1529 
Q 2069 2156 2228 2338 
Q 2531 2678 2651 2914 
Q 2772 3150 2772 3378 
Q 2772 3750 2511 3984 
Q 2250 4219 1831 4219 
Q 1534 4219 1204 4116 
Q 875 4013 500 3803 
L 500 4441 
Q 881 4594 1212 4672 
Q 1544 4750 1819 4750 
Q 2544 4750 2975 4387 
Q 3406 4025 3406 3419 
Q 3406 3131 3298 2873 
Q 3191 2616 2906 2266 
Q 2828 2175 2409 1742 
Q 1991 1309 1228 531 
z
" transform="scale(0.015625)"/>
       </defs>
       <use xlink:href="#DejaVuSans-32"/>
       <use xlink:href="#DejaVuSans-30" transform="translate(63.623047 0)"/>
       <use xlink:href="#DejaVuSans-30" transform="translate(127.246094 0)"/>
      </g>
     </g>
    </g>
    <g id="ytick_4">
     <g id="line2d_15">
      <g>
       <use xlink:href="#mb4d3656923" x="46.965625" y="279.134979" style="stroke: #000000; stroke-width: 0.8"/>
      </g>
     </g>
     <g id="text_16">
      <!-- 300 -->
      <g transform="translate(20.878125 282.934198) scale(0.1 -0.1)">
       <defs>
        <path id="DejaVuSans-33" d="M 2597 2516 
Q 3050 2419 3304 2112 
Q 3559 1806 3559 1356 
Q 3559 666 3084 287 
Q 2609 -91 1734 -91 
Q 1441 -91 1130 -33 
Q 819 25 488 141 
L 488 750 
Q 750 597 1062 519 
Q 1375 441 1716 441 
Q 2309 441 2620 675 
Q 2931 909 2931 1356 
Q 2931 1769 2642 2001 
Q 2353 2234 1838 2234 
L 1294 2234 
L 1294 2753 
L 1863 2753 
Q 2328 2753 2575 2939 
Q 2822 3125 2822 3475 
Q 2822 3834 2567 4026 
Q 2313 4219 1838 4219 
Q 1578 4219 1281 4162 
Q 984 4106 628 3988 
L 628 4550 
Q 988 4650 1302 4700 
Q 1616 4750 1894 4750 
Q 2613 4750 3031 4423 
Q 3450 4097 3450 3541 
Q 3450 3153 3228 2886 
Q 3006 2619 2597 2516 
z
" transform="scale(0.015625)"/>
       </defs>
       <use xlink:href="#DejaVuSans-33"/>
       <use xlink:href="#DejaVuSans-30" transform="translate(63.623047 0)"/>
       <use xlink:href="#DejaVuSans-30" transform="translate(127.246094 0)"/>
      </g>
     </g>
    </g>
    <g id="ytick_5">
     <g id="line2d_16">
      <g>
       <use xlink:href="#mb4d3656923" x="46.965625" y="237.180842" style="stroke: #000000; stroke-width: 0.8"/>
      </g>
     </g>
     <g id="text_17">
      <!-- 400 -->
      <g transform="translate(20.878125 240.980061) scale(0.1 -0.1)">
       <defs>
        <path id="DejaVuSans-34" d="M 2419 4116 
L 825 1625 
L 2419 1625 
L 2419 4116 
z
M 2253 4666 
L 3047 4666 
L 3047 1625 
L 3713 1625 
L 3713 1100 
L 3047 1100 
L 3047 0 
L 2419 0 
L 2419 1100 
L 313 1100 
L 313 1709 
L 2253 4666 
z
" transform="scale(0.015625)"/>
       </defs>
       <use xlink:href="#DejaVuSans-34"/>
       <use xlink:href="#DejaVuSans-30" transform="translate(63.623047 0)"/>
       <use xlink:href="#DejaVuSans-30" transform="translate(127.246094 0)"/>
      </g>
     </g>
    </g>
    <g id="ytick_6">
     <g id="line2d_17">
      <g>
       <use xlink:href="#mb4d3656923" x="46.965625" y="195.226706" style="stroke: #000000; stroke-width: 0.8"/>
      </g>
     </g>
     <g id="text_18">
      <!-- 500 -->
      <g transform="translate(20.878125 199.025924) scale(0.1 -0.1)">
       <defs>
        <path id="DejaVuSans-35" d="M 691 4666 
L 3169 4666 
L 3169 4134 
L 1269 4134 
L 1269 2991 
Q 1406 3038 1543 3061 
Q 1681 3084 1819 3084 
Q 2600 3084 3056 2656 
Q 3513 2228 3513 1497 
Q 3513 744 3044 326 
Q 2575 -91 1722 -91 
Q 1428 -91 1123 -41 
Q 819 9 494 109 
L 494 744 
Q 775 591 1075 516 
Q 1375 441 1709 441 
Q 2250 441 2565 725 
Q 2881 1009 2881 1497 
Q 2881 1984 2565 2268 
Q 2250 2553 1709 2553 
Q 1456 2553 1204 2497 
Q 953 2441 691 2322 
L 691 4666 
z
" transform="scale(0.015625)"/>
       </defs>
       <use xlink:href="#DejaVuSans-35"/>
       <use xlink:href="#DejaVuSans-30" transform="translate(63.623047 0)"/>
       <use xlink:href="#DejaVuSans-30" transform="translate(127.246094 0)"/>
      </g>
     </g>
    </g>
    <g id="ytick_7">
     <g id="line2d_18">
      <g>
       <use xlink:href="#mb4d3656923" x="46.965625" y="153.272569" style="stroke: #000000; stroke-width: 0.8"/>
      </g>
     </g>
     <g id="text_19">
      <!-- 600 -->
      <g transform="translate(20.878125 157.071788) scale(0.1 -0.1)">
       <defs>
        <path id="DejaVuSans-36" d="M 2113 2584 
Q 1688 2584 1439 2293 
Q 1191 2003 1191 1497 
Q 1191 994 1439 701 
Q 1688 409 2113 409 
Q 2538 409 2786 701 
Q 3034 994 3034 1497 
Q 3034 2003 2786 2293 
Q 2538 2584 2113 2584 
z
M 3366 4563 
L 3366 3988 
Q 3128 4100 2886 4159 
Q 2644 4219 2406 4219 
Q 1781 4219 1451 3797 
Q 1122 3375 1075 2522 
Q 1259 2794 1537 2939 
Q 1816 3084 2150 3084 
Q 2853 3084 3261 2657 
Q 3669 2231 3669 1497 
Q 3669 778 3244 343 
Q 2819 -91 2113 -91 
Q 1303 -91 875 529 
Q 447 1150 447 2328 
Q 447 3434 972 4092 
Q 1497 4750 2381 4750 
Q 2619 4750 2861 4703 
Q 3103 4656 3366 4563 
z
" transform="scale(0.015625)"/>
       </defs>
       <use xlink:href="#DejaVuSans-36"/>
       <use xlink:href="#DejaVuSans-30" transform="translate(63.623047 0)"/>
       <use xlink:href="#DejaVuSans-30" transform="translate(127.246094 0)"/>
      </g>
     </g>
    </g>
    <g id="ytick_8">
     <g id="line2d_19">
      <g>
       <use xlink:href="#mb4d3656923" x="46.965625" y="111.318432" style="stroke: #000000; stroke-width: 0.8"/>
      </g>
     </g>
     <g id="text_20">
      <!-- 700 -->
      <g transform="translate(20.878125 115.117651) scale(0.1 -0.1)">
       <defs>
        <path id="DejaVuSans-37" d="M 525 4666 
L 3525 4666 
L 3525 4397 
L 1831 0 
L 1172 0 
L 2766 4134 
L 525 4134 
L 525 4666 
z
" transform="scale(0.015625)"/>
       </defs>
       <use xlink:href="#DejaVuSans-37"/>
       <use xlink:href="#DejaVuSans-30" transform="translate(63.623047 0)"/>
       <use xlink:href="#DejaVuSans-30" transform="translate(127.246094 0)"/>
      </g>
     </g>
    </g>
    <g id="ytick_9">
     <g id="line2d_20">
      <g>
       <use xlink:href="#mb4d3656923" x="46.965625" y="69.364295" style="stroke: #000000; stroke-width: 0.8"/>
      </g>
     </g>
     <g id="text_21">
      <!-- 800 -->
      <g transform="translate(20.878125 73.163514) scale(0.1 -0.1)">
       <use xlink:href="#DejaVuSans-38"/>
       <use xlink:href="#DejaVuSans-30" transform="translate(63.623047 0)"/>
       <use xlink:href="#DejaVuSans-30" transform="translate(127.246094 0)"/>
      </g>
     </g>
    </g>
    <g id="text_22">
     <!-- Wall Clock Time (Seconds) -->
     <g transform="translate(14.798438 302.140937) rotate(-90) scale(0.1 -0.1)">
      <defs>
       <path id="DejaVuSans-57" d="M 213 4666 
L 850 4666 
L 1831 722 
L 2809 4666 
L 3519 4666 
L 4500 722 
L 5478 4666 
L 6119 4666 
L 4947 0 
L 4153 0 
L 3169 4050 
L 2175 0 
L 1381 0 
L 213 4666 
z
" transform="scale(0.015625)"/>
       <path id="DejaVuSans-20" transform="scale(0.015625)"/>
       <path id="DejaVuSans-43" d="M 4122 4306 
L 4122 3641 
Q 3803 3938 3442 4084 
Q 3081 4231 2675 4231 
Q 1875 4231 1450 3742 
Q 1025 3253 1025 2328 
Q 1025 1406 1450 917 
Q 1875 428 2675 428 
Q 3081 428 3442 575 
Q 3803 722 4122 1019 
L 4122 359 
Q 3791 134 3420 21 
Q 3050 -91 2638 -91 
Q 1578 -91 968 557 
Q 359 1206 359 2328 
Q 359 3453 968 4101 
Q 1578 4750 2638 4750 
Q 3056 4750 3426 4639 
Q 3797 4528 4122 4306 
z
" transform="scale(0.015625)"/>
       <path id="DejaVuSans-54" d="M -19 4666 
L 3928 4666 
L 3928 4134 
L 2272 4134 
L 2272 0 
L 1638 0 
L 1638 4134 
L -19 4134 
L -19 4666 
z
" transform="scale(0.015625)"/>
       <path id="DejaVuSans-28" d="M 1984 4856 
Q 1566 4138 1362 3434 
Q 1159 2731 1159 2009 
Q 1159 1288 1364 580 
Q 1569 -128 1984 -844 
L 1484 -844 
Q 1016 -109 783 600 
Q 550 1309 550 2009 
Q 550 2706 781 3412 
Q 1013 4119 1484 4856 
L 1984 4856 
z
" transform="scale(0.015625)"/>
       <path id="DejaVuSans-53" d="M 3425 4513 
L 3425 3897 
Q 3066 4069 2747 4153 
Q 2428 4238 2131 4238 
Q 1616 4238 1336 4038 
Q 1056 3838 1056 3469 
Q 1056 3159 1242 3001 
Q 1428 2844 1947 2747 
L 2328 2669 
Q 3034 2534 3370 2195 
Q 3706 1856 3706 1288 
Q 3706 609 3251 259 
Q 2797 -91 1919 -91 
Q 1588 -91 1214 -16 
Q 841 59 441 206 
L 441 856 
Q 825 641 1194 531 
Q 1563 422 1919 422 
Q 2459 422 2753 634 
Q 3047 847 3047 1241 
Q 3047 1584 2836 1778 
Q 2625 1972 2144 2069 
L 1759 2144 
Q 1053 2284 737 2584 
Q 422 2884 422 3419 
Q 422 4038 858 4394 
Q 1294 4750 2059 4750 
Q 2388 4750 2728 4690 
Q 3069 4631 3425 4513 
z
" transform="scale(0.015625)"/>
       <path id="DejaVuSans-29" d="M 513 4856 
L 1013 4856 
Q 1481 4119 1714 3412 
Q 1947 2706 1947 2009 
Q 1947 1309 1714 600 
Q 1481 -109 1013 -844 
L 513 -844 
Q 928 -128 1133 580 
Q 1338 1288 1338 2009 
Q 1338 2731 1133 3434 
Q 928 4138 513 4856 
z
" transform="scale(0.015625)"/>
      </defs>
      <use xlink:href="#DejaVuSans-57"/>
      <use xlink:href="#DejaVuSans-61" transform="translate(92.501953 0)"/>
      <use xlink:href="#DejaVuSans-6c" transform="translate(153.78125 0)"/>
      <use xlink:href="#DejaVuSans-6c" transform="translate(181.564453 0)"/>
      <use xlink:href="#DejaVuSans-20" transform="translate(209.347656 0)"/>
      <use xlink:href="#DejaVuSans-43" transform="translate(241.134766 0)"/>
      <use xlink:href="#DejaVuSans-6c" transform="translate(310.958984 0)"/>
      <use xlink:href="#DejaVuSans-6f" transform="translate(338.742188 0)"/>
      <use xlink:href="#DejaVuSans-63" transform="translate(399.923828 0)"/>
      <use xlink:href="#DejaVuSans-6b" transform="translate(454.904297 0)"/>
      <use xlink:href="#DejaVuSans-20" transform="translate(512.814453 0)"/>
      <use xlink:href="#DejaVuSans-54" transform="translate(544.601562 0)"/>
      <use xlink:href="#DejaVuSans-69" transform="translate(602.560547 0)"/>
      <use xlink:href="#DejaVuSans-6d" transform="translate(630.34375 0)"/>
      <use xlink:href="#DejaVuSans-65" transform="translate(727.755859 0)"/>
      <use xlink:href="#DejaVuSans-20" transform="translate(789.279297 0)"/>
      <use xlink:href="#DejaVuSans-28" transform="translate(821.066406 0)"/>
      <use xlink:href="#DejaVuSans-53" transform="translate(860.080078 0)"/>
      <use xlink:href="#DejaVuSans-65" transform="translate(923.556641 0)"/>
      <use xlink:href="#DejaVuSans-63" transform="translate(985.080078 0)"/>
      <use xlink:href="#DejaVuSans-6f" transform="translate(1040.060547 0)"/>
      <use xlink:href="#DejaVuSans-6e" transform="translate(1101.242188 0)"/>
      <use xlink:href="#DejaVuSans-64" transform="translate(1164.621094 0)"/>
      <use xlink:href="#DejaVuSans-73" transform="translate(1228.097656 0)"/>
      <use xlink:href="#DejaVuSans-29" transform="translate(1280.197266 0)"/>
     </g>
    </g>
   </g>
   <g id="line2d_21">
    <defs>
     <path id="m8a70ba1094" d="M 0 3.383948 
C 0.897434 3.383948 1.758231 3.027394 2.392813 2.392813 
C 3.027394 1.758231 3.383948 0.897434 3.383948 0 
C 3.383948 -0.897434 3.027394 -1.758231 2.392813 -2.392813 
C 1.758231 -3.027394 0.897434 -3.383948 0 -3.383948 
C -0.897434 -3.383948 -1.758231 -3.027394 -2.392813 -2.392813 
C -3.027394 -1.758231 -3.383948 -0.897434 -3.383948 0 
C -3.383948 0.897434 -3.027394 1.758231 -2.392813 2.392813 
C -1.758231 3.027394 -0.897434 3.383948 0 3.383948 
z
" style="stroke: #1f77b4; stroke-width: 2.025"/>
    </defs>
    <g clip-path="url(#p9c341c7baf)">
     <use xlink:href="#m8a70ba1094" x="58.986025" y="402.169964" style="fill: #1f77b4; stroke: #1f77b4; stroke-width: 2.025"/>
     <use xlink:href="#m8a70ba1094" x="99.054025" y="401.884878" style="fill: #1f77b4; stroke: #1f77b4; stroke-width: 2.025"/>
     <use xlink:href="#m8a70ba1094" x="139.122025" y="401.491638" style="fill: #1f77b4; stroke: #1f77b4; stroke-width: 2.025"/>
     <use xlink:href="#m8a70ba1094" x="179.190025" y="401.256947" style="fill: #1f77b4; stroke: #1f77b4; stroke-width: 2.025"/>
     <use xlink:href="#m8a70ba1094" x="219.258025" y="401.359864" style="fill: #1f77b4; stroke: #1f77b4; stroke-width: 2.025"/>
     <use xlink:href="#m8a70ba1094" x="259.326025" y="393.422422" style="fill: #1f77b4; stroke: #1f77b4; stroke-width: 2.025"/>
     <use xlink:href="#m8a70ba1094" x="299.394025" y="391.589979" style="fill: #1f77b4; stroke: #1f77b4; stroke-width: 2.025"/>
     <use xlink:href="#m8a70ba1094" x="339.462025" y="387.788816" style="fill: #1f77b4; stroke: #1f77b4; stroke-width: 2.025"/>
     <use xlink:href="#m8a70ba1094" x="379.530025" y="373.520923" style="fill: #1f77b4; stroke: #1f77b4; stroke-width: 2.025"/>
     <use xlink:href="#m8a70ba1094" x="419.598025" y="369.414752" style="fill: #1f77b4; stroke: #1f77b4; stroke-width: 2.025"/>
     <use xlink:href="#m8a70ba1094" x="459.666025" y="97.744039" style="fill: #1f77b4; stroke: #1f77b4; stroke-width: 2.025"/>
    </g>
   </g>
   <g id="line2d_22">
    <path d="M 56.982625 402.234545 
L 60.989425 402.234545 
M 58.986025 402.234545 
L 58.986025 402.105383 
M 56.982625 402.105383 
L 60.989425 402.105383 
" clip-path="url(#p9c341c7baf)" style="fill: none; stroke: #1f77b4; stroke-width: 2.7; stroke-linecap: square"/>
   </g>
   <g id="line2d_23">
    <path d="M 97.050625 401.965319 
L 101.057425 401.965319 
M 99.054025 401.965319 
L 99.054025 401.804437 
M 97.050625 401.804437 
L 101.057425 401.804437 
" clip-path="url(#p9c341c7baf)" style="fill: none; stroke: #1f77b4; stroke-width: 2.7; stroke-linecap: square"/>
   </g>
   <g id="line2d_24">
    <path d="M 137.118625 401.619736 
L 141.125425 401.619736 
M 139.122025 401.619736 
L 139.122025 401.363541 
M 137.118625 401.363541 
L 141.125425 401.363541 
" clip-path="url(#p9c341c7baf)" style="fill: none; stroke: #1f77b4; stroke-width: 2.7; stroke-linecap: square"/>
   </g>
   <g id="line2d_25">
    <path d="M 177.186625 401.339119 
L 181.193425 401.339119 
M 179.190025 401.339119 
L 179.190025 401.174775 
M 177.186625 401.174775 
L 181.193425 401.174775 
" clip-path="url(#p9c341c7baf)" style="fill: none; stroke: #1f77b4; stroke-width: 2.7; stroke-linecap: square"/>
   </g>
   <g id="line2d_26">
    <path d="M 217.254625 401.522554 
L 221.261425 401.522554 
M 219.258025 401.522554 
L 219.258025 401.197175 
M 217.254625 401.197175 
L 221.261425 401.197175 
" clip-path="url(#p9c341c7baf)" style="fill: none; stroke: #1f77b4; stroke-width: 2.7; stroke-linecap: square"/>
   </g>
   <g id="line2d_27">
    <path d="M 257.322625 394.522236 
L 261.329425 394.522236 
M 259.326025 394.522236 
L 259.326025 392.322607 
M 257.322625 392.322607 
L 261.329425 392.322607 
" clip-path="url(#p9c341c7baf)" style="fill: none; stroke: #1f77b4; stroke-width: 2.7; stroke-linecap: square"/>
   </g>
   <g id="line2d_28">
    <path d="M 297.390625 392.590537 
L 301.397425 392.590537 
M 299.394025 392.590537 
L 299.394025 390.589421 
M 297.390625 390.589421 
L 301.397425 390.589421 
" clip-path="url(#p9c341c7baf)" style="fill: none; stroke: #1f77b4; stroke-width: 2.7; stroke-linecap: square"/>
   </g>
   <g id="line2d_29">
    <path d="M 337.458625 394.104229 
L 341.465425 394.104229 
M 339.462025 394.104229 
L 339.462025 381.473402 
M 337.458625 381.473402 
L 341.465425 381.473402 
" clip-path="url(#p9c341c7baf)" style="fill: none; stroke: #1f77b4; stroke-width: 2.7; stroke-linecap: square"/>
   </g>
   <g id="line2d_30">
    <path d="M 377.526625 384.98489 
L 381.533425 384.98489 
M 379.530025 384.98489 
L 379.530025 362.056956 
M 377.526625 362.056956 
L 381.533425 362.056956 
" clip-path="url(#p9c341c7baf)" style="fill: none; stroke: #1f77b4; stroke-width: 2.7; stroke-linecap: square"/>
   </g>
   <g id="line2d_31">
    <path d="M 417.594625 372.282519 
L 421.601425 372.282519 
M 419.598025 372.282519 
L 419.598025 366.546986 
M 417.594625 366.546986 
L 421.601425 366.546986 
" clip-path="url(#p9c341c7baf)" style="fill: none; stroke: #1f77b4; stroke-width: 2.7; stroke-linecap: square"/>
   </g>
   <g id="line2d_32">
    <path d="M 457.662625 125.362623 
L 461.669425 125.362623 
M 459.666025 125.362623 
L 459.666025 70.125455 
M 457.662625 70.125455 
L 461.669425 70.125455 
" clip-path="url(#p9c341c7baf)" style="fill: none; stroke: #1f77b4; stroke-width: 2.7; stroke-linecap: square"/>
   </g>
   <g id="line2d_33">
    <defs>
     <path id="m4c976d6991" d="M 0 3.383948 
C 0.897434 3.383948 1.758231 3.027394 2.392813 2.392813 
C 3.027394 1.758231 3.383948 0.897434 3.383948 0 
C 3.383948 -0.897434 3.027394 -1.758231 2.392813 -2.392813 
C 1.758231 -3.027394 0.897434 -3.383948 0 -3.383948 
C -0.897434 -3.383948 -1.758231 -3.027394 -2.392813 -2.392813 
C -3.027394 -1.758231 -3.383948 -0.897434 -3.383948 0 
C -3.383948 0.897434 -3.027394 1.758231 -2.392813 2.392813 
C -1.758231 3.027394 -0.897434 3.383948 0 3.383948 
z
" style="stroke: #ff7f0e; stroke-width: 2.025"/>
    </defs>
    <g clip-path="url(#p9c341c7baf)">
     <use xlink:href="#m4c976d6991" x="75.013225" y="379.216916" style="fill: #ff7f0e; stroke: #ff7f0e; stroke-width: 2.025"/>
     <use xlink:href="#m4c976d6991" x="115.081225" y="379.132075" style="fill: #ff7f0e; stroke: #ff7f0e; stroke-width: 2.025"/>
     <use xlink:href="#m4c976d6991" x="155.149225" y="378.816747" style="fill: #ff7f0e; stroke: #ff7f0e; stroke-width: 2.025"/>
     <use xlink:href="#m4c976d6991" x="195.217225" y="378.513626" style="fill: #ff7f0e; stroke: #ff7f0e; stroke-width: 2.025"/>
     <use xlink:href="#m4c976d6991" x="235.285225" y="378.564837" style="fill: #ff7f0e; stroke: #ff7f0e; stroke-width: 2.025"/>
     <use xlink:href="#m4c976d6991" x="275.353225" y="373.336277" style="fill: #ff7f0e; stroke: #ff7f0e; stroke-width: 2.025"/>
     <use xlink:href="#m4c976d6991" x="315.421225" y="371.77309" style="fill: #ff7f0e; stroke: #ff7f0e; stroke-width: 2.025"/>
     <use xlink:href="#m4c976d6991" x="355.489225" y="368.261852" style="fill: #ff7f0e; stroke: #ff7f0e; stroke-width: 2.025"/>
     <use xlink:href="#m4c976d6991" x="395.557225" y="357.240766" style="fill: #ff7f0e; stroke: #ff7f0e; stroke-width: 2.025"/>
     <use xlink:href="#m4c976d6991" x="435.625225" y="350.211292" style="fill: #ff7f0e; stroke: #ff7f0e; stroke-width: 2.025"/>
     <use xlink:href="#m4c976d6991" x="475.693225" y="108.552695" style="fill: #ff7f0e; stroke: #ff7f0e; stroke-width: 2.025"/>
    </g>
   </g>
   <g id="line2d_34">
    <path d="M 73.009825 379.520119 
L 77.016625 379.520119 
M 75.013225 379.520119 
L 75.013225 378.913712 
M 73.009825 378.913712 
L 77.016625 378.913712 
" clip-path="url(#p9c341c7baf)" style="fill: none; stroke: #ff7f0e; stroke-width: 2.7; stroke-linecap: square"/>
   </g>
   <g id="line2d_35">
    <path d="M 113.077825 379.451953 
L 117.084625 379.451953 
M 115.081225 379.451953 
L 115.081225 378.812198 
M 113.077825 378.812198 
L 117.084625 378.812198 
" clip-path="url(#p9c341c7baf)" style="fill: none; stroke: #ff7f0e; stroke-width: 2.7; stroke-linecap: square"/>
   </g>
   <g id="line2d_36">
    <path d="M 153.145825 379.104761 
L 157.152625 379.104761 
M 155.149225 379.104761 
L 155.149225 378.528732 
M 153.145825 378.528732 
L 157.152625 378.528732 
" clip-path="url(#p9c341c7baf)" style="fill: none; stroke: #ff7f0e; stroke-width: 2.7; stroke-linecap: square"/>
   </g>
   <g id="line2d_37">
    <path d="M 193.213825 378.82648 
L 197.220625 378.82648 
M 195.217225 378.82648 
L 195.217225 378.200772 
M 193.213825 378.200772 
L 197.220625 378.200772 
" clip-path="url(#p9c341c7baf)" style="fill: none; stroke: #ff7f0e; stroke-width: 2.7; stroke-linecap: square"/>
   </g>
   <g id="line2d_38">
    <path d="M 233.281825 379.168664 
L 237.288625 379.168664 
M 235.285225 379.168664 
L 235.285225 377.961011 
M 233.281825 377.961011 
L 237.288625 377.961011 
" clip-path="url(#p9c341c7baf)" style="fill: none; stroke: #ff7f0e; stroke-width: 2.7; stroke-linecap: square"/>
   </g>
   <g id="line2d_39">
    <path d="M 273.349825 374.105307 
L 277.356625 374.105307 
M 275.353225 374.105307 
L 275.353225 372.567248 
M 273.349825 372.567248 
L 277.356625 372.567248 
" clip-path="url(#p9c341c7baf)" style="fill: none; stroke: #ff7f0e; stroke-width: 2.7; stroke-linecap: square"/>
   </g>
   <g id="line2d_40">
    <path d="M 313.417825 372.547709 
L 317.424625 372.547709 
M 315.421225 372.547709 
L 315.421225 370.998471 
M 313.417825 370.998471 
L 317.424625 370.998471 
" clip-path="url(#p9c341c7baf)" style="fill: none; stroke: #ff7f0e; stroke-width: 2.7; stroke-linecap: square"/>
   </g>
   <g id="line2d_41">
    <path d="M 353.485825 369.261762 
L 357.492625 369.261762 
M 355.489225 369.261762 
L 355.489225 367.261942 
M 353.485825 367.261942 
L 357.492625 367.261942 
" clip-path="url(#p9c341c7baf)" style="fill: none; stroke: #ff7f0e; stroke-width: 2.7; stroke-linecap: square"/>
   </g>
   <g id="line2d_42">
    <path d="M 393.553825 359.465304 
L 397.560625 359.465304 
M 395.557225 359.465304 
L 395.557225 355.016229 
M 393.553825 355.016229 
L 397.560625 355.016229 
" clip-path="url(#p9c341c7baf)" style="fill: none; stroke: #ff7f0e; stroke-width: 2.7; stroke-linecap: square"/>
   </g>
   <g id="line2d_43">
    <path d="M 433.621825 352.798874 
L 437.628625 352.798874 
M 435.625225 352.798874 
L 435.625225 347.62371 
M 433.621825 347.62371 
L 437.628625 347.62371 
" clip-path="url(#p9c341c7baf)" style="fill: none; stroke: #ff7f0e; stroke-width: 2.7; stroke-linecap: square"/>
   </g>
   <g id="line2d_44">
    <path d="M 473.689825 129.728632 
L 477.696625 129.728632 
M 475.693225 129.728632 
L 475.693225 87.376757 
M 473.689825 87.376757 
L 477.696625 87.376757 
" clip-path="url(#p9c341c7baf)" style="fill: none; stroke: #ff7f0e; stroke-width: 2.7; stroke-linecap: square"/>
   </g>
   <g id="patch_3">
    <path d="M 46.965625 418.84 
L 46.965625 53.52 
" style="fill: none; stroke: #000000; stroke-width: 0.8; stroke-linejoin: miter; stroke-linecap: square"/>
   </g>
   <g id="patch_4">
    <path d="M 46.965625 418.84 
L 487.713625 418.84 
" style="fill: none; stroke: #000000; stroke-width: 0.8; stroke-linejoin: miter; stroke-linecap: square"/>
   </g>
   <g id="text_23">
    <!-- base_model_name = drf -->
    <g transform="translate(206.313063 47.52) scale(0.1 -0.1)">
     <defs>
      <path id="DejaVuSans-5f" d="M 3263 -1063 
L 3263 -1509 
L -63 -1509 
L -63 -1063 
L 3263 -1063 
z
" transform="scale(0.015625)"/>
      <path id="DejaVuSans-3d" d="M 678 2906 
L 4684 2906 
L 4684 2381 
L 678 2381 
L 678 2906 
z
M 678 1631 
L 4684 1631 
L 4684 1100 
L 678 1100 
L 678 1631 
z
" transform="scale(0.015625)"/>
      <path id="DejaVuSans-66" d="M 2375 4863 
L 2375 4384 
L 1825 4384 
Q 1516 4384 1395 4259 
Q 1275 4134 1275 3809 
L 1275 3500 
L 2222 3500 
L 2222 3053 
L 1275 3053 
L 1275 0 
L 697 0 
L 697 3053 
L 147 3053 
L 147 3500 
L 697 3500 
L 697 3744 
Q 697 4328 969 4595 
Q 1241 4863 1831 4863 
L 2375 4863 
z
" transform="scale(0.015625)"/>
     </defs>
     <use xlink:href="#DejaVuSans-62"/>
     <use xlink:href="#DejaVuSans-61" transform="translate(63.476562 0)"/>
     <use xlink:href="#DejaVuSans-73" transform="translate(124.755859 0)"/>
     <use xlink:href="#DejaVuSans-65" transform="translate(176.855469 0)"/>
     <use xlink:href="#DejaVuSans-5f" transform="translate(238.378906 0)"/>
     <use xlink:href="#DejaVuSans-6d" transform="translate(288.378906 0)"/>
     <use xlink:href="#DejaVuSans-6f" transform="translate(385.791016 0)"/>
     <use xlink:href="#DejaVuSans-64" transform="translate(446.972656 0)"/>
     <use xlink:href="#DejaVuSans-65" transform="translate(510.449219 0)"/>
     <use xlink:href="#DejaVuSans-6c" transform="translate(571.972656 0)"/>
     <use xlink:href="#DejaVuSans-5f" transform="translate(599.755859 0)"/>
     <use xlink:href="#DejaVuSans-6e" transform="translate(649.755859 0)"/>
     <use xlink:href="#DejaVuSans-61" transform="translate(713.134766 0)"/>
     <use xlink:href="#DejaVuSans-6d" transform="translate(774.414062 0)"/>
     <use xlink:href="#DejaVuSans-65" transform="translate(871.826172 0)"/>
     <use xlink:href="#DejaVuSans-20" transform="translate(933.349609 0)"/>
     <use xlink:href="#DejaVuSans-3d" transform="translate(965.136719 0)"/>
     <use xlink:href="#DejaVuSans-20" transform="translate(1048.925781 0)"/>
     <use xlink:href="#DejaVuSans-64" transform="translate(1080.712891 0)"/>
     <use xlink:href="#DejaVuSans-72" transform="translate(1144.189453 0)"/>
     <use xlink:href="#DejaVuSans-66" transform="translate(1185.302734 0)"/>
    </g>
   </g>
  </g>
  <g id="axes_2">
   <g id="patch_5">
    <path d="M 575.399771 418.84 
L 1016.147772 418.84 
L 1016.147772 53.52 
L 575.399771 53.52 
z
" style="fill: #ffffff"/>
   </g>
   <g id="matplotlib.axis_3">
    <g id="xtick_12">
     <g id="line2d_45">
      <g>
       <use xlink:href="#m8f03bb1190" x="595.433771" y="418.84" style="stroke: #000000; stroke-width: 0.8"/>
      </g>
     </g>
     <g id="text_24">
      <!-- yacht -->
      <g transform="translate(574.303432 450.872685) rotate(-45) scale(0.1 -0.1)">
       <use xlink:href="#DejaVuSans-79"/>
       <use xlink:href="#DejaVuSans-61" transform="translate(59.179688 0)"/>
       <use xlink:href="#DejaVuSans-63" transform="translate(120.458984 0)"/>
       <use xlink:href="#DejaVuSans-68" transform="translate(175.439453 0)"/>
       <use xlink:href="#DejaVuSans-74" transform="translate(238.818359 0)"/>
      </g>
     </g>
    </g>
    <g id="xtick_13">
     <g id="line2d_46">
      <g>
       <use xlink:href="#m8f03bb1190" x="635.501771" y="418.84" style="stroke: #000000; stroke-width: 0.8"/>
      </g>
     </g>
     <g id="text_25">
      <!-- bostonHousing -->
      <g transform="translate(581.208124 484.035993) rotate(-45) scale(0.1 -0.1)">
       <use xlink:href="#DejaVuSans-62"/>
       <use xlink:href="#DejaVuSans-6f" transform="translate(63.476562 0)"/>
       <use xlink:href="#DejaVuSans-73" transform="translate(124.658203 0)"/>
       <use xlink:href="#DejaVuSans-74" transform="translate(176.757812 0)"/>
       <use xlink:href="#DejaVuSans-6f" transform="translate(215.966797 0)"/>
       <use xlink:href="#DejaVuSans-6e" transform="translate(277.148438 0)"/>
       <use xlink:href="#DejaVuSans-48" transform="translate(340.527344 0)"/>
       <use xlink:href="#DejaVuSans-6f" transform="translate(415.722656 0)"/>
       <use xlink:href="#DejaVuSans-75" transform="translate(476.904297 0)"/>
       <use xlink:href="#DejaVuSans-73" transform="translate(540.283203 0)"/>
       <use xlink:href="#DejaVuSans-69" transform="translate(592.382812 0)"/>
       <use xlink:href="#DejaVuSans-6e" transform="translate(620.166016 0)"/>
       <use xlink:href="#DejaVuSans-67" transform="translate(683.544922 0)"/>
      </g>
     </g>
    </g>
    <g id="xtick_14">
     <g id="line2d_47">
      <g>
       <use xlink:href="#m8f03bb1190" x="675.569772" y="418.84" style="stroke: #000000; stroke-width: 0.8"/>
      </g>
     </g>
     <g id="text_26">
      <!-- energy -->
      <g transform="translate(649.458749 455.853368) rotate(-45) scale(0.1 -0.1)">
       <use xlink:href="#DejaVuSans-65"/>
       <use xlink:href="#DejaVuSans-6e" transform="translate(61.523438 0)"/>
       <use xlink:href="#DejaVuSans-65" transform="translate(124.902344 0)"/>
       <use xlink:href="#DejaVuSans-72" transform="translate(186.425781 0)"/>
       <use xlink:href="#DejaVuSans-67" transform="translate(225.789062 0)"/>
       <use xlink:href="#DejaVuSans-79" transform="translate(289.265625 0)"/>
      </g>
     </g>
    </g>
    <g id="xtick_15">
     <g id="line2d_48">
      <g>
       <use xlink:href="#m8f03bb1190" x="715.637772" y="418.84" style="stroke: #000000; stroke-width: 0.8"/>
      </g>
     </g>
     <g id="text_27">
      <!-- concrete -->
      <g transform="translate(683.361662 462.018456) rotate(-45) scale(0.1 -0.1)">
       <use xlink:href="#DejaVuSans-63"/>
       <use xlink:href="#DejaVuSans-6f" transform="translate(54.980469 0)"/>
       <use xlink:href="#DejaVuSans-6e" transform="translate(116.162109 0)"/>
       <use xlink:href="#DejaVuSans-63" transform="translate(179.541016 0)"/>
       <use xlink:href="#DejaVuSans-72" transform="translate(234.521484 0)"/>
       <use xlink:href="#DejaVuSans-65" transform="translate(273.384766 0)"/>
       <use xlink:href="#DejaVuSans-74" transform="translate(334.908203 0)"/>
       <use xlink:href="#DejaVuSans-65" transform="translate(374.117188 0)"/>
      </g>
     </g>
    </g>
    <g id="xtick_16">
     <g id="line2d_49">
      <g>
       <use xlink:href="#m8f03bb1190" x="755.705772" y="418.84" style="stroke: #000000; stroke-width: 0.8"/>
      </g>
     </g>
     <g id="text_28">
      <!-- wine-quality-red -->
      <g transform="translate(696.899899 488.548218) rotate(-45) scale(0.1 -0.1)">
       <use xlink:href="#DejaVuSans-77"/>
       <use xlink:href="#DejaVuSans-69" transform="translate(81.787109 0)"/>
       <use xlink:href="#DejaVuSans-6e" transform="translate(109.570312 0)"/>
       <use xlink:href="#DejaVuSans-65" transform="translate(172.949219 0)"/>
       <use xlink:href="#DejaVuSans-2d" transform="translate(234.472656 0)"/>
       <use xlink:href="#DejaVuSans-71" transform="translate(270.556641 0)"/>
       <use xlink:href="#DejaVuSans-75" transform="translate(334.033203 0)"/>
       <use xlink:href="#DejaVuSans-61" transform="translate(397.412109 0)"/>
       <use xlink:href="#DejaVuSans-6c" transform="translate(458.691406 0)"/>
       <use xlink:href="#DejaVuSans-69" transform="translate(486.474609 0)"/>
       <use xlink:href="#DejaVuSans-74" transform="translate(514.257812 0)"/>
       <use xlink:href="#DejaVuSans-79" transform="translate(553.466797 0)"/>
       <use xlink:href="#DejaVuSans-2d" transform="translate(610.896484 0)"/>
       <use xlink:href="#DejaVuSans-72" transform="translate(646.980469 0)"/>
       <use xlink:href="#DejaVuSans-65" transform="translate(685.84375 0)"/>
       <use xlink:href="#DejaVuSans-64" transform="translate(747.367188 0)"/>
      </g>
     </g>
    </g>
    <g id="xtick_17">
     <g id="line2d_50">
      <g>
       <use xlink:href="#m8f03bb1190" x="795.773772" y="418.84" style="stroke: #000000; stroke-width: 0.8"/>
      </g>
     </g>
     <g id="text_29">
      <!-- kin8nm -->
      <g transform="translate(767.894982 457.621135) rotate(-45) scale(0.1 -0.1)">
       <use xlink:href="#DejaVuSans-6b"/>
       <use xlink:href="#DejaVuSans-69" transform="translate(57.910156 0)"/>
       <use xlink:href="#DejaVuSans-6e" transform="translate(85.693359 0)"/>
       <use xlink:href="#DejaVuSans-38" transform="translate(149.072266 0)"/>
       <use xlink:href="#DejaVuSans-6e" transform="translate(212.695312 0)"/>
       <use xlink:href="#DejaVuSans-6d" transform="translate(276.074219 0)"/>
      </g>
     </g>
    </g>
    <g id="xtick_18">
     <g id="line2d_51">
      <g>
       <use xlink:href="#m8f03bb1190" x="835.841772" y="418.84" style="stroke: #000000; stroke-width: 0.8"/>
      </g>
     </g>
     <g id="text_30">
      <!-- power-plant -->
      <g transform="translate(792.374592 473.209525) rotate(-45) scale(0.1 -0.1)">
       <use xlink:href="#DejaVuSans-70"/>
       <use xlink:href="#DejaVuSans-6f" transform="translate(63.476562 0)"/>
       <use xlink:href="#DejaVuSans-77" transform="translate(124.658203 0)"/>
       <use xlink:href="#DejaVuSans-65" transform="translate(206.445312 0)"/>
       <use xlink:href="#DejaVuSans-72" transform="translate(267.96875 0)"/>
       <use xlink:href="#DejaVuSans-2d" transform="translate(302.707031 0)"/>
       <use xlink:href="#DejaVuSans-70" transform="translate(338.791016 0)"/>
       <use xlink:href="#DejaVuSans-6c" transform="translate(402.267578 0)"/>
       <use xlink:href="#DejaVuSans-61" transform="translate(430.050781 0)"/>
       <use xlink:href="#DejaVuSans-6e" transform="translate(491.330078 0)"/>
       <use xlink:href="#DejaVuSans-74" transform="translate(554.708984 0)"/>
      </g>
     </g>
    </g>
    <g id="xtick_19">
     <g id="line2d_52">
      <g>
       <use xlink:href="#m8f03bb1190" x="875.909772" y="418.84" style="stroke: #000000; stroke-width: 0.8"/>
      </g>
     </g>
     <g id="text_31">
      <!-- naval-propulsion-plant -->
      <g transform="translate(795.045482 510.606635) rotate(-45) scale(0.1 -0.1)">
       <use xlink:href="#DejaVuSans-6e"/>
       <use xlink:href="#DejaVuSans-61" transform="translate(63.378906 0)"/>
       <use xlink:href="#DejaVuSans-76" transform="translate(124.658203 0)"/>
       <use xlink:href="#DejaVuSans-61" transform="translate(183.837891 0)"/>
       <use xlink:href="#DejaVuSans-6c" transform="translate(245.117188 0)"/>
       <use xlink:href="#DejaVuSans-2d" transform="translate(272.900391 0)"/>
       <use xlink:href="#DejaVuSans-70" transform="translate(308.984375 0)"/>
       <use xlink:href="#DejaVuSans-72" transform="translate(372.460938 0)"/>
       <use xlink:href="#DejaVuSans-6f" transform="translate(411.324219 0)"/>
       <use xlink:href="#DejaVuSans-70" transform="translate(472.505859 0)"/>
       <use xlink:href="#DejaVuSans-75" transform="translate(535.982422 0)"/>
       <use xlink:href="#DejaVuSans-6c" transform="translate(599.361328 0)"/>
       <use xlink:href="#DejaVuSans-73" transform="translate(627.144531 0)"/>
       <use xlink:href="#DejaVuSans-69" transform="translate(679.244141 0)"/>
       <use xlink:href="#DejaVuSans-6f" transform="translate(707.027344 0)"/>
       <use xlink:href="#DejaVuSans-6e" transform="translate(768.208984 0)"/>
       <use xlink:href="#DejaVuSans-2d" transform="translate(831.587891 0)"/>
       <use xlink:href="#DejaVuSans-70" transform="translate(867.671875 0)"/>
       <use xlink:href="#DejaVuSans-6c" transform="translate(931.148438 0)"/>
       <use xlink:href="#DejaVuSans-61" transform="translate(958.931641 0)"/>
       <use xlink:href="#DejaVuSans-6e" transform="translate(1020.210938 0)"/>
       <use xlink:href="#DejaVuSans-74" transform="translate(1083.589844 0)"/>
      </g>
     </g>
    </g>
    <g id="xtick_20">
     <g id="line2d_53">
      <g>
       <use xlink:href="#m8f03bb1190" x="915.977772" y="418.84" style="stroke: #000000; stroke-width: 0.8"/>
      </g>
     </g>
     <g id="text_32">
      <!-- bike -->
      <g transform="translate(899.864576 445.855541) rotate(-45) scale(0.1 -0.1)">
       <use xlink:href="#DejaVuSans-62"/>
       <use xlink:href="#DejaVuSans-69" transform="translate(63.476562 0)"/>
       <use xlink:href="#DejaVuSans-6b" transform="translate(91.259766 0)"/>
       <use xlink:href="#DejaVuSans-65" transform="translate(145.544922 0)"/>
      </g>
     </g>
    </g>
    <g id="xtick_21">
     <g id="line2d_54">
      <g>
       <use xlink:href="#m8f03bb1190" x="956.045772" y="418.84" style="stroke: #000000; stroke-width: 0.8"/>
      </g>
     </g>
     <g id="text_33">
      <!-- sinus -->
      <g transform="translate(936.281032 449.507085) rotate(-45) scale(0.1 -0.1)">
       <use xlink:href="#DejaVuSans-73"/>
       <use xlink:href="#DejaVuSans-69" transform="translate(52.099609 0)"/>
       <use xlink:href="#DejaVuSans-6e" transform="translate(79.882812 0)"/>
       <use xlink:href="#DejaVuSans-75" transform="translate(143.261719 0)"/>
       <use xlink:href="#DejaVuSans-73" transform="translate(206.640625 0)"/>
      </g>
     </g>
    </g>
    <g id="xtick_22">
     <g id="line2d_55">
      <g>
       <use xlink:href="#m8f03bb1190" x="996.113772" y="418.84" style="stroke: #000000; stroke-width: 0.8"/>
      </g>
     </g>
     <g id="text_34">
      <!-- protein-tertiary-structure -->
      <g transform="translate(906.257073 519.599045) rotate(-45) scale(0.1 -0.1)">
       <use xlink:href="#DejaVuSans-70"/>
       <use xlink:href="#DejaVuSans-72" transform="translate(63.476562 0)"/>
       <use xlink:href="#DejaVuSans-6f" transform="translate(102.339844 0)"/>
       <use xlink:href="#DejaVuSans-74" transform="translate(163.521484 0)"/>
       <use xlink:href="#DejaVuSans-65" transform="translate(202.730469 0)"/>
       <use xlink:href="#DejaVuSans-69" transform="translate(264.253906 0)"/>
       <use xlink:href="#DejaVuSans-6e" transform="translate(292.037109 0)"/>
       <use xlink:href="#DejaVuSans-2d" transform="translate(355.416016 0)"/>
       <use xlink:href="#DejaVuSans-74" transform="translate(391.5 0)"/>
       <use xlink:href="#DejaVuSans-65" transform="translate(430.708984 0)"/>
       <use xlink:href="#DejaVuSans-72" transform="translate(492.232422 0)"/>
       <use xlink:href="#DejaVuSans-74" transform="translate(533.345703 0)"/>
       <use xlink:href="#DejaVuSans-69" transform="translate(572.554688 0)"/>
       <use xlink:href="#DejaVuSans-61" transform="translate(600.337891 0)"/>
       <use xlink:href="#DejaVuSans-72" transform="translate(661.617188 0)"/>
       <use xlink:href="#DejaVuSans-79" transform="translate(702.730469 0)"/>
       <use xlink:href="#DejaVuSans-2d" transform="translate(760.160156 0)"/>
       <use xlink:href="#DejaVuSans-73" transform="translate(796.244141 0)"/>
       <use xlink:href="#DejaVuSans-74" transform="translate(848.34375 0)"/>
       <use xlink:href="#DejaVuSans-72" transform="translate(887.552734 0)"/>
       <use xlink:href="#DejaVuSans-75" transform="translate(928.666016 0)"/>
       <use xlink:href="#DejaVuSans-63" transform="translate(992.044922 0)"/>
       <use xlink:href="#DejaVuSans-74" transform="translate(1047.025391 0)"/>
       <use xlink:href="#DejaVuSans-75" transform="translate(1086.234375 0)"/>
       <use xlink:href="#DejaVuSans-72" transform="translate(1149.613281 0)"/>
       <use xlink:href="#DejaVuSans-65" transform="translate(1188.476562 0)"/>
      </g>
     </g>
    </g>
    <g id="text_35">
     <!-- Dataset -->
     <g transform="translate(776.194084 532.668043) scale(0.1 -0.1)">
      <use xlink:href="#DejaVuSans-44"/>
      <use xlink:href="#DejaVuSans-61" transform="translate(77.001953 0)"/>
      <use xlink:href="#DejaVuSans-74" transform="translate(138.28125 0)"/>
      <use xlink:href="#DejaVuSans-61" transform="translate(177.490234 0)"/>
      <use xlink:href="#DejaVuSans-73" transform="translate(238.769531 0)"/>
      <use xlink:href="#DejaVuSans-65" transform="translate(290.869141 0)"/>
      <use xlink:href="#DejaVuSans-74" transform="translate(352.392578 0)"/>
     </g>
    </g>
   </g>
   <g id="matplotlib.axis_4">
    <g id="ytick_10">
     <g id="line2d_56">
      <g>
       <use xlink:href="#mb4d3656923" x="575.399771" y="408.55333" style="stroke: #000000; stroke-width: 0.8"/>
      </g>
     </g>
     <g id="text_36">
      <!-- 0 -->
      <g transform="translate(562.037271 412.352548) scale(0.1 -0.1)">
       <use xlink:href="#DejaVuSans-30"/>
      </g>
     </g>
    </g>
    <g id="ytick_11">
     <g id="line2d_57">
      <g>
       <use xlink:href="#mb4d3656923" x="575.399771" y="340.590545" style="stroke: #000000; stroke-width: 0.8"/>
      </g>
     </g>
     <g id="text_37">
      <!-- 200 -->
      <g transform="translate(549.312271 344.389764) scale(0.1 -0.1)">
       <use xlink:href="#DejaVuSans-32"/>
       <use xlink:href="#DejaVuSans-30" transform="translate(63.623047 0)"/>
       <use xlink:href="#DejaVuSans-30" transform="translate(127.246094 0)"/>
      </g>
     </g>
    </g>
    <g id="ytick_12">
     <g id="line2d_58">
      <g>
       <use xlink:href="#mb4d3656923" x="575.399771" y="272.62776" style="stroke: #000000; stroke-width: 0.8"/>
      </g>
     </g>
     <g id="text_38">
      <!-- 400 -->
      <g transform="translate(549.312271 276.426979) scale(0.1 -0.1)">
       <use xlink:href="#DejaVuSans-34"/>
       <use xlink:href="#DejaVuSans-30" transform="translate(63.623047 0)"/>
       <use xlink:href="#DejaVuSans-30" transform="translate(127.246094 0)"/>
      </g>
     </g>
    </g>
    <g id="ytick_13">
     <g id="line2d_59">
      <g>
       <use xlink:href="#mb4d3656923" x="575.399771" y="204.664975" style="stroke: #000000; stroke-width: 0.8"/>
      </g>
     </g>
     <g id="text_39">
      <!-- 600 -->
      <g transform="translate(549.312271 208.464194) scale(0.1 -0.1)">
       <use xlink:href="#DejaVuSans-36"/>
       <use xlink:href="#DejaVuSans-30" transform="translate(63.623047 0)"/>
       <use xlink:href="#DejaVuSans-30" transform="translate(127.246094 0)"/>
      </g>
     </g>
    </g>
    <g id="ytick_14">
     <g id="line2d_60">
      <g>
       <use xlink:href="#mb4d3656923" x="575.399771" y="136.702191" style="stroke: #000000; stroke-width: 0.8"/>
      </g>
     </g>
     <g id="text_40">
      <!-- 800 -->
      <g transform="translate(549.312271 140.501409) scale(0.1 -0.1)">
       <use xlink:href="#DejaVuSans-38"/>
       <use xlink:href="#DejaVuSans-30" transform="translate(63.623047 0)"/>
       <use xlink:href="#DejaVuSans-30" transform="translate(127.246094 0)"/>
      </g>
     </g>
    </g>
    <g id="ytick_15">
     <g id="line2d_61">
      <g>
       <use xlink:href="#mb4d3656923" x="575.399771" y="68.739406" style="stroke: #000000; stroke-width: 0.8"/>
      </g>
     </g>
     <g id="text_41">
      <!-- 1000 -->
      <g transform="translate(542.949771 72.538624) scale(0.1 -0.1)">
       <use xlink:href="#DejaVuSans-31"/>
       <use xlink:href="#DejaVuSans-30" transform="translate(63.623047 0)"/>
       <use xlink:href="#DejaVuSans-30" transform="translate(127.246094 0)"/>
       <use xlink:href="#DejaVuSans-30" transform="translate(190.869141 0)"/>
      </g>
     </g>
    </g>
   </g>
   <g id="line2d_62">
    <g clip-path="url(#pdce0e83152)">
     <use xlink:href="#m8a70ba1094" x="587.420171" y="402.09986" style="fill: #1f77b4; stroke: #1f77b4; stroke-width: 2.025"/>
     <use xlink:href="#m8a70ba1094" x="627.488171" y="400.226469" style="fill: #1f77b4; stroke: #1f77b4; stroke-width: 2.025"/>
     <use xlink:href="#m8a70ba1094" x="667.556172" y="396.774517" style="fill: #1f77b4; stroke: #1f77b4; stroke-width: 2.025"/>
     <use xlink:href="#m8a70ba1094" x="707.624172" y="393.09207" style="fill: #1f77b4; stroke: #1f77b4; stroke-width: 2.025"/>
     <use xlink:href="#m8a70ba1094" x="747.692172" y="386.776578" style="fill: #1f77b4; stroke: #1f77b4; stroke-width: 2.025"/>
     <use xlink:href="#m8a70ba1094" x="787.760172" y="320.287892" style="fill: #1f77b4; stroke: #1f77b4; stroke-width: 2.025"/>
     <use xlink:href="#m8a70ba1094" x="827.828172" y="315.715833" style="fill: #1f77b4; stroke: #1f77b4; stroke-width: 2.025"/>
     <use xlink:href="#m8a70ba1094" x="867.896172" y="268.863205" style="fill: #1f77b4; stroke: #1f77b4; stroke-width: 2.025"/>
     <use xlink:href="#m8a70ba1094" x="907.964172" y="265.839719" style="fill: #1f77b4; stroke: #1f77b4; stroke-width: 2.025"/>
     <use xlink:href="#m8a70ba1094" x="948.032172" y="214.660555" style="fill: #1f77b4; stroke: #1f77b4; stroke-width: 2.025"/>
     <use xlink:href="#m8a70ba1094" x="988.100172" y="81.69175" style="fill: #1f77b4; stroke: #1f77b4; stroke-width: 2.025"/>
    </g>
   </g>
   <g id="line2d_63">
    <path d="M 585.416771 402.234545 
L 589.423571 402.234545 
M 587.420171 402.234545 
L 587.420171 401.965175 
M 585.416771 401.965175 
L 589.423571 401.965175 
" clip-path="url(#pdce0e83152)" style="fill: none; stroke: #1f77b4; stroke-width: 2.7; stroke-linecap: square"/>
   </g>
   <g id="line2d_64">
    <path d="M 625.484771 400.428995 
L 629.491571 400.428995 
M 627.488171 400.428995 
L 627.488171 400.023942 
M 625.484771 400.023942 
L 629.491571 400.023942 
" clip-path="url(#pdce0e83152)" style="fill: none; stroke: #1f77b4; stroke-width: 2.7; stroke-linecap: square"/>
   </g>
   <g id="line2d_65">
    <path d="M 665.552771 397.011741 
L 669.559572 397.011741 
M 667.556172 397.011741 
L 667.556172 396.537293 
M 665.552771 396.537293 
L 669.559572 396.537293 
" clip-path="url(#pdce0e83152)" style="fill: none; stroke: #1f77b4; stroke-width: 2.7; stroke-linecap: square"/>
   </g>
   <g id="line2d_66">
    <path d="M 705.620772 393.761131 
L 709.627572 393.761131 
M 707.624172 393.761131 
L 707.624172 392.423009 
M 705.620772 392.423009 
L 709.627572 392.423009 
" clip-path="url(#pdce0e83152)" style="fill: none; stroke: #1f77b4; stroke-width: 2.7; stroke-linecap: square"/>
   </g>
   <g id="line2d_67">
    <path d="M 745.688772 388.141823 
L 749.695572 388.141823 
M 747.692172 388.141823 
L 747.692172 385.411332 
M 745.688772 385.411332 
L 749.695572 385.411332 
" clip-path="url(#pdce0e83152)" style="fill: none; stroke: #1f77b4; stroke-width: 2.7; stroke-linecap: square"/>
   </g>
   <g id="line2d_68">
    <path d="M 785.756772 322.768151 
L 789.763572 322.768151 
M 787.760172 322.768151 
L 787.760172 317.807632 
M 785.756772 317.807632 
L 789.763572 317.807632 
" clip-path="url(#pdce0e83152)" style="fill: none; stroke: #1f77b4; stroke-width: 2.7; stroke-linecap: square"/>
   </g>
   <g id="line2d_69">
    <path d="M 825.824772 324.698328 
L 829.831572 324.698328 
M 827.828172 324.698328 
L 827.828172 306.733338 
M 825.824772 306.733338 
L 829.831572 306.733338 
" clip-path="url(#pdce0e83152)" style="fill: none; stroke: #1f77b4; stroke-width: 2.7; stroke-linecap: square"/>
   </g>
   <g id="line2d_70">
    <path d="M 865.892772 275.873191 
L 869.899572 275.873191 
M 867.896172 275.873191 
L 867.896172 261.853219 
M 865.892772 261.853219 
L 869.899572 261.853219 
" clip-path="url(#pdce0e83152)" style="fill: none; stroke: #1f77b4; stroke-width: 2.7; stroke-linecap: square"/>
   </g>
   <g id="line2d_71">
    <path d="M 905.960772 280.381701 
L 909.967572 280.381701 
M 907.964172 280.381701 
L 907.964172 251.297738 
M 905.960772 251.297738 
L 909.967572 251.297738 
" clip-path="url(#pdce0e83152)" style="fill: none; stroke: #1f77b4; stroke-width: 2.7; stroke-linecap: square"/>
   </g>
   <g id="line2d_72">
    <path d="M 946.028772 242.634834 
L 950.035572 242.634834 
M 948.032172 242.634834 
L 948.032172 186.686275 
M 946.028772 186.686275 
L 950.035572 186.686275 
" clip-path="url(#pdce0e83152)" style="fill: none; stroke: #1f77b4; stroke-width: 2.7; stroke-linecap: square"/>
   </g>
   <g id="line2d_73">
    <path d="M 986.096772 93.258046 
L 990.103572 93.258046 
M 988.100172 93.258046 
L 988.100172 70.125455 
M 986.096772 70.125455 
L 990.103572 70.125455 
" clip-path="url(#pdce0e83152)" style="fill: none; stroke: #1f77b4; stroke-width: 2.7; stroke-linecap: square"/>
   </g>
   <g id="line2d_74">
    <g clip-path="url(#pdce0e83152)">
     <use xlink:href="#m4c976d6991" x="603.447371" y="387.05996" style="fill: #ff7f0e; stroke: #ff7f0e; stroke-width: 2.025"/>
     <use xlink:href="#m4c976d6991" x="643.515371" y="387.118434" style="fill: #ff7f0e; stroke: #ff7f0e; stroke-width: 2.025"/>
     <use xlink:href="#m4c976d6991" x="683.583372" y="386.849082" style="fill: #ff7f0e; stroke: #ff7f0e; stroke-width: 2.025"/>
     <use xlink:href="#m4c976d6991" x="723.651372" y="386.721035" style="fill: #ff7f0e; stroke: #ff7f0e; stroke-width: 2.025"/>
     <use xlink:href="#m4c976d6991" x="763.719372" y="386.836158" style="fill: #ff7f0e; stroke: #ff7f0e; stroke-width: 2.025"/>
     <use xlink:href="#m4c976d6991" x="803.787372" y="385.357128" style="fill: #ff7f0e; stroke: #ff7f0e; stroke-width: 2.025"/>
     <use xlink:href="#m4c976d6991" x="843.855372" y="384.861086" style="fill: #ff7f0e; stroke: #ff7f0e; stroke-width: 2.025"/>
     <use xlink:href="#m4c976d6991" x="883.923372" y="384.224323" style="fill: #ff7f0e; stroke: #ff7f0e; stroke-width: 2.025"/>
     <use xlink:href="#m4c976d6991" x="923.991372" y="382.005083" style="fill: #ff7f0e; stroke: #ff7f0e; stroke-width: 2.025"/>
     <use xlink:href="#m4c976d6991" x="964.059372" y="381.554535" style="fill: #ff7f0e; stroke: #ff7f0e; stroke-width: 2.025"/>
     <use xlink:href="#m4c976d6991" x="1004.127372" y="363.666372" style="fill: #ff7f0e; stroke: #ff7f0e; stroke-width: 2.025"/>
    </g>
   </g>
   <g id="line2d_75">
    <path d="M 601.443971 387.365608 
L 605.450771 387.365608 
M 603.447371 387.365608 
L 603.447371 386.754312 
M 601.443971 386.754312 
L 605.450771 386.754312 
" clip-path="url(#pdce0e83152)" style="fill: none; stroke: #ff7f0e; stroke-width: 2.7; stroke-linecap: square"/>
   </g>
   <g id="line2d_76">
    <path d="M 641.511971 387.536381 
L 645.518771 387.536381 
M 643.515371 387.536381 
L 643.515371 386.700486 
M 641.511971 386.700486 
L 645.518771 386.700486 
" clip-path="url(#pdce0e83152)" style="fill: none; stroke: #ff7f0e; stroke-width: 2.7; stroke-linecap: square"/>
   </g>
   <g id="line2d_77">
    <path d="M 681.579972 387.106691 
L 685.586772 387.106691 
M 683.583372 387.106691 
L 683.583372 386.591474 
M 681.579972 386.591474 
L 685.586772 386.591474 
" clip-path="url(#pdce0e83152)" style="fill: none; stroke: #ff7f0e; stroke-width: 2.7; stroke-linecap: square"/>
   </g>
   <g id="line2d_78">
    <path d="M 721.647972 387.146807 
L 725.654772 387.146807 
M 723.651372 387.146807 
L 723.651372 386.295264 
M 721.647972 386.295264 
L 725.654772 386.295264 
" clip-path="url(#pdce0e83152)" style="fill: none; stroke: #ff7f0e; stroke-width: 2.7; stroke-linecap: square"/>
   </g>
   <g id="line2d_79">
    <path d="M 761.715972 387.36984 
L 765.722772 387.36984 
M 763.719372 387.36984 
L 763.719372 386.302475 
M 761.715972 386.302475 
L 765.722772 386.302475 
" clip-path="url(#pdce0e83152)" style="fill: none; stroke: #ff7f0e; stroke-width: 2.7; stroke-linecap: square"/>
   </g>
   <g id="line2d_80">
    <path d="M 801.783972 386.034883 
L 805.790772 386.034883 
M 803.787372 386.034883 
L 803.787372 384.679373 
M 801.783972 384.679373 
L 805.790772 384.679373 
" clip-path="url(#pdce0e83152)" style="fill: none; stroke: #ff7f0e; stroke-width: 2.7; stroke-linecap: square"/>
   </g>
   <g id="line2d_81">
    <path d="M 841.851972 385.779311 
L 845.858772 385.779311 
M 843.855372 385.779311 
L 843.855372 383.942861 
M 841.851972 383.942861 
L 845.858772 383.942861 
" clip-path="url(#pdce0e83152)" style="fill: none; stroke: #ff7f0e; stroke-width: 2.7; stroke-linecap: square"/>
   </g>
   <g id="line2d_82">
    <path d="M 881.919972 384.893038 
L 885.926772 384.893038 
M 883.923372 384.893038 
L 883.923372 383.555607 
M 881.919972 383.555607 
L 885.926772 383.555607 
" clip-path="url(#pdce0e83152)" style="fill: none; stroke: #ff7f0e; stroke-width: 2.7; stroke-linecap: square"/>
   </g>
   <g id="line2d_83">
    <path d="M 921.987972 383.884143 
L 925.994772 383.884143 
M 923.991372 383.884143 
L 923.991372 380.126023 
M 921.987972 380.126023 
L 925.994772 380.126023 
" clip-path="url(#pdce0e83152)" style="fill: none; stroke: #ff7f0e; stroke-width: 2.7; stroke-linecap: square"/>
   </g>
   <g id="line2d_84">
    <path d="M 962.055972 382.219412 
L 966.062772 382.219412 
M 964.059372 382.219412 
L 964.059372 380.889658 
M 962.055972 380.889658 
L 966.062772 380.889658 
" clip-path="url(#pdce0e83152)" style="fill: none; stroke: #ff7f0e; stroke-width: 2.7; stroke-linecap: square"/>
   </g>
   <g id="line2d_85">
    <path d="M 1002.123972 364.875143 
L 1006.130772 364.875143 
M 1004.127372 364.875143 
L 1004.127372 362.457602 
M 1002.123972 362.457602 
L 1006.130772 362.457602 
" clip-path="url(#pdce0e83152)" style="fill: none; stroke: #ff7f0e; stroke-width: 2.7; stroke-linecap: square"/>
   </g>
   <g id="line2d_86"/>
   <g id="line2d_87"/>
   <g id="patch_6">
    <path d="M 575.399771 418.84 
L 575.399771 53.52 
" style="fill: none; stroke: #000000; stroke-width: 0.8; stroke-linejoin: miter; stroke-linecap: square"/>
   </g>
   <g id="patch_7">
    <path d="M 575.399771 418.84 
L 1016.147772 418.84 
" style="fill: none; stroke: #000000; stroke-width: 0.8; stroke-linejoin: miter; stroke-linecap: square"/>
   </g>
   <g id="text_42">
    <!-- base_model_name = mdn -->
    <g transform="translate(730.523772 47.52) scale(0.1 -0.1)">
     <use xlink:href="#DejaVuSans-62"/>
     <use xlink:href="#DejaVuSans-61" transform="translate(63.476562 0)"/>
     <use xlink:href="#DejaVuSans-73" transform="translate(124.755859 0)"/>
     <use xlink:href="#DejaVuSans-65" transform="translate(176.855469 0)"/>
     <use xlink:href="#DejaVuSans-5f" transform="translate(238.378906 0)"/>
     <use xlink:href="#DejaVuSans-6d" transform="translate(288.378906 0)"/>
     <use xlink:href="#DejaVuSans-6f" transform="translate(385.791016 0)"/>
     <use xlink:href="#DejaVuSans-64" transform="translate(446.972656 0)"/>
     <use xlink:href="#DejaVuSans-65" transform="translate(510.449219 0)"/>
     <use xlink:href="#DejaVuSans-6c" transform="translate(571.972656 0)"/>
     <use xlink:href="#DejaVuSans-5f" transform="translate(599.755859 0)"/>
     <use xlink:href="#DejaVuSans-6e" transform="translate(649.755859 0)"/>
     <use xlink:href="#DejaVuSans-61" transform="translate(713.134766 0)"/>
     <use xlink:href="#DejaVuSans-6d" transform="translate(774.414062 0)"/>
     <use xlink:href="#DejaVuSans-65" transform="translate(871.826172 0)"/>
     <use xlink:href="#DejaVuSans-20" transform="translate(933.349609 0)"/>
     <use xlink:href="#DejaVuSans-3d" transform="translate(965.136719 0)"/>
     <use xlink:href="#DejaVuSans-20" transform="translate(1048.925781 0)"/>
     <use xlink:href="#DejaVuSans-6d" transform="translate(1080.712891 0)"/>
     <use xlink:href="#DejaVuSans-64" transform="translate(1178.125 0)"/>
     <use xlink:href="#DejaVuSans-6e" transform="translate(1241.601562 0)"/>
    </g>
   </g>
  </g>
  <g id="text_43">
   <!-- Wall Clock Time (Mean ± STD) -->
   <g transform="translate(439.854872 19.3575) scale(0.16 -0.16)">
    <defs>
     <path id="DejaVuSans-4d" d="M 628 4666 
L 1569 4666 
L 2759 1491 
L 3956 4666 
L 4897 4666 
L 4897 0 
L 4281 0 
L 4281 4097 
L 3078 897 
L 2444 897 
L 1241 4097 
L 1241 0 
L 628 0 
L 628 4666 
z
" transform="scale(0.015625)"/>
     <path id="DejaVuSans-b1" d="M 2944 4013 
L 2944 2803 
L 4684 2803 
L 4684 2272 
L 2944 2272 
L 2944 1063 
L 2419 1063 
L 2419 2272 
L 678 2272 
L 678 2803 
L 2419 2803 
L 2419 4013 
L 2944 4013 
z
M 678 531 
L 4684 531 
L 4684 0 
L 678 0 
L 678 531 
z
" transform="scale(0.015625)"/>
    </defs>
    <use xlink:href="#DejaVuSans-57"/>
    <use xlink:href="#DejaVuSans-61" transform="translate(92.501953 0)"/>
    <use xlink:href="#DejaVuSans-6c" transform="translate(153.78125 0)"/>
    <use xlink:href="#DejaVuSans-6c" transform="translate(181.564453 0)"/>
    <use xlink:href="#DejaVuSans-20" transform="translate(209.347656 0)"/>
    <use xlink:href="#DejaVuSans-43" transform="translate(241.134766 0)"/>
    <use xlink:href="#DejaVuSans-6c" transform="translate(310.958984 0)"/>
    <use xlink:href="#DejaVuSans-6f" transform="translate(338.742188 0)"/>
    <use xlink:href="#DejaVuSans-63" transform="translate(399.923828 0)"/>
    <use xlink:href="#DejaVuSans-6b" transform="translate(454.904297 0)"/>
    <use xlink:href="#DejaVuSans-20" transform="translate(512.814453 0)"/>
    <use xlink:href="#DejaVuSans-54" transform="translate(544.601562 0)"/>
    <use xlink:href="#DejaVuSans-69" transform="translate(602.560547 0)"/>
    <use xlink:href="#DejaVuSans-6d" transform="translate(630.34375 0)"/>
    <use xlink:href="#DejaVuSans-65" transform="translate(727.755859 0)"/>
    <use xlink:href="#DejaVuSans-20" transform="translate(789.279297 0)"/>
    <use xlink:href="#DejaVuSans-28" transform="translate(821.066406 0)"/>
    <use xlink:href="#DejaVuSans-4d" transform="translate(860.080078 0)"/>
    <use xlink:href="#DejaVuSans-65" transform="translate(946.359375 0)"/>
    <use xlink:href="#DejaVuSans-61" transform="translate(1007.882812 0)"/>
    <use xlink:href="#DejaVuSans-6e" transform="translate(1069.162109 0)"/>
    <use xlink:href="#DejaVuSans-20" transform="translate(1132.541016 0)"/>
    <use xlink:href="#DejaVuSans-b1" transform="translate(1164.328125 0)"/>
    <use xlink:href="#DejaVuSans-20" transform="translate(1248.117188 0)"/>
    <use xlink:href="#DejaVuSans-53" transform="translate(1279.904297 0)"/>
    <use xlink:href="#DejaVuSans-54" transform="translate(1343.380859 0)"/>
    <use xlink:href="#DejaVuSans-44" transform="translate(1404.464844 0)"/>
    <use xlink:href="#DejaVuSans-29" transform="translate(1481.466797 0)"/>
   </g>
  </g>
  <g id="legend_1">
   <g id="text_44">
    <!-- recalibration_name -->
    <g transform="translate(1029.098934 258.916053) scale(0.1 -0.1)">
     <use xlink:href="#DejaVuSans-72"/>
     <use xlink:href="#DejaVuSans-65" transform="translate(38.863281 0)"/>
     <use xlink:href="#DejaVuSans-63" transform="translate(100.386719 0)"/>
     <use xlink:href="#DejaVuSans-61" transform="translate(155.367188 0)"/>
     <use xlink:href="#DejaVuSans-6c" transform="translate(216.646484 0)"/>
     <use xlink:href="#DejaVuSans-69" transform="translate(244.429688 0)"/>
     <use xlink:href="#DejaVuSans-62" transform="translate(272.212891 0)"/>
     <use xlink:href="#DejaVuSans-72" transform="translate(335.689453 0)"/>
     <use xlink:href="#DejaVuSans-61" transform="translate(376.802734 0)"/>
     <use xlink:href="#DejaVuSans-74" transform="translate(438.082031 0)"/>
     <use xlink:href="#DejaVuSans-69" transform="translate(477.291016 0)"/>
     <use xlink:href="#DejaVuSans-6f" transform="translate(505.074219 0)"/>
     <use xlink:href="#DejaVuSans-6e" transform="translate(566.255859 0)"/>
     <use xlink:href="#DejaVuSans-5f" transform="translate(629.634766 0)"/>
     <use xlink:href="#DejaVuSans-6e" transform="translate(679.634766 0)"/>
     <use xlink:href="#DejaVuSans-61" transform="translate(743.013672 0)"/>
     <use xlink:href="#DejaVuSans-6d" transform="translate(804.292969 0)"/>
     <use xlink:href="#DejaVuSans-65" transform="translate(901.705078 0)"/>
    </g>
   </g>
   <g id="line2d_88">
    <g>
     <use xlink:href="#m8a70ba1094" x="1059.016903" y="270.372303" style="fill: #1f77b4; stroke: #1f77b4; stroke-width: 2.025"/>
    </g>
   </g>
   <g id="text_45">
    <!-- PIT -->
    <g transform="translate(1077.016903 273.872303) scale(0.1 -0.1)">
     <defs>
      <path id="DejaVuSans-50" d="M 1259 4147 
L 1259 2394 
L 2053 2394 
Q 2494 2394 2734 2622 
Q 2975 2850 2975 3272 
Q 2975 3691 2734 3919 
Q 2494 4147 2053 4147 
L 1259 4147 
z
M 628 4666 
L 2053 4666 
Q 2838 4666 3239 4311 
Q 3641 3956 3641 3272 
Q 3641 2581 3239 2228 
Q 2838 1875 2053 1875 
L 1259 1875 
L 1259 0 
L 628 0 
L 628 4666 
z
" transform="scale(0.015625)"/>
      <path id="DejaVuSans-49" d="M 628 4666 
L 1259 4666 
L 1259 0 
L 628 0 
L 628 4666 
z
" transform="scale(0.015625)"/>
     </defs>
     <use xlink:href="#DejaVuSans-50"/>
     <use xlink:href="#DejaVuSans-49" transform="translate(60.302734 0)"/>
     <use xlink:href="#DejaVuSans-54" transform="translate(89.794922 0)"/>
    </g>
   </g>
   <g id="line2d_89">
    <g>
     <use xlink:href="#m4c976d6991" x="1059.016903" y="285.050428" style="fill: #ff7f0e; stroke: #ff7f0e; stroke-width: 2.025"/>
    </g>
   </g>
   <g id="text_46">
    <!-- CKME -->
    <g transform="translate(1077.016903 288.550428) scale(0.1 -0.1)">
     <defs>
      <path id="DejaVuSans-4b" d="M 628 4666 
L 1259 4666 
L 1259 2694 
L 3353 4666 
L 4166 4666 
L 1850 2491 
L 4331 0 
L 3500 0 
L 1259 2247 
L 1259 0 
L 628 0 
L 628 4666 
z
" transform="scale(0.015625)"/>
      <path id="DejaVuSans-45" d="M 628 4666 
L 3578 4666 
L 3578 4134 
L 1259 4134 
L 1259 2753 
L 3481 2753 
L 3481 2222 
L 1259 2222 
L 1259 531 
L 3634 531 
L 3634 0 
L 628 0 
L 628 4666 
z
" transform="scale(0.015625)"/>
     </defs>
     <use xlink:href="#DejaVuSans-43"/>
     <use xlink:href="#DejaVuSans-4b" transform="translate(69.824219 0)"/>
     <use xlink:href="#DejaVuSans-4d" transform="translate(135.400391 0)"/>
     <use xlink:href="#DejaVuSans-45" transform="translate(221.679688 0)"/>
    </g>
   </g>
  </g>
 </g>
 <defs>
  <clipPath id="p9c341c7baf">
   <rect x="46.965625" y="53.52" width="440.748" height="365.32"/>
  </clipPath>
  <clipPath id="pdce0e83152">
   <rect x="575.399771" y="53.52" width="440.748" height="365.32"/>
  </clipPath>
 </defs>
</svg>
