<?xml version="1.0" encoding="utf-8" standalone="no"?>
<!DOCTYPE svg PUBLIC "-//W3C//DTD SVG 1.1//EN"
  "http://www.w3.org/Graphics/SVG/1.1/DTD/svg11.dtd">
<svg xmlns:xlink="http://www.w3.org/1999/xlink" width="1000.295pt" height="285.213125pt" viewBox="0 0 1000.295 285.213125" xmlns="http://www.w3.org/2000/svg" version="1.1">
 <metadata>
  <rdf:RDF xmlns:dc="http://purl.org/dc/elements/1.1/" xmlns:cc="http://creativecommons.org/ns#" xmlns:rdf="http://www.w3.org/1999/02/22-rdf-syntax-ns#">
   <cc:Work>
    <dc:type rdf:resource="http://purl.org/dc/dcmitype/StillImage"/>
    <dc:date>2026-04-07T04:10:56.727227</dc:date>
    <dc:format>image/svg+xml</dc:format>
    <dc:creator>
     <cc:Agent>
      <dc:title>Matplotlib v3.10.6, https://matplotlib.org/</dc:title>
     </cc:Agent>
    </dc:creator>
   </cc:Work>
  </rdf:RDF>
 </metadata>
 <defs>
  <style type="text/css">*{stroke-linejoin: round; stroke-linecap: butt}</style>
 </defs>
 <g id="figure_1">
  <g id="patch_1">
   <path d="M 0 285.213125 
L 1000.295 285.213125 
L 1000.295 -0 
L 0 -0 
z
" style="fill: #ffffff"/>
  </g>
  <g id="axes_1">
   <g id="patch_2">
    <path d="M 152.875 247.37875 
L 419.274369 247.37875 
L 419.274369 50.64 
L 152.875 50.64 
z
" style="fill: #ffffff"/>
   </g>
   <g id="patch_3">
    <path d="M 152.875 52.428534 
L 352.439843 52.428534 
L 352.439843 59.58267 
L 152.875 59.58267 
z
" clip-path="url(#pc172df816c)" style="fill: #3274a1"/>
   </g>
   <g id="patch_4">
    <path d="M 152.875 70.313875 
L 325.49141 70.313875 
L 325.49141 77.468011 
L 152.875 77.468011 
z
" clip-path="url(#pc172df816c)" style="fill: #3274a1"/>
   </g>
   <g id="patch_5">
    <path d="M 152.875 88.199216 
L 267.450464 88.199216 
L 267.450464 95.353352 
L 152.875 95.353352 
z
" clip-path="url(#pc172df816c)" style="fill: #3274a1"/>
   </g>
   <g id="patch_6">
    <path d="M 152.875 106.084557 
L 262.418742 106.084557 
L 262.418742 113.238693 
L 152.875 113.238693 
z
" clip-path="url(#pc172df816c)" style="fill: #3274a1"/>
   </g>
   <g id="patch_7">
    <path d="M 152.875 123.969898 
L 302.965567 123.969898 
L 302.965567 131.124034 
L 152.875 131.124034 
z
" clip-path="url(#pc172df816c)" style="fill: #3274a1"/>
   </g>
   <g id="patch_8">
    <path d="M 152.875 141.855239 
L 195.195716 141.855239 
L 195.195716 149.009375 
L 152.875 149.009375 
z
" clip-path="url(#pc172df816c)" style="fill: #3274a1"/>
   </g>
   <g id="patch_9">
    <path d="M 152.875 159.74058 
L 190.220484 159.74058 
L 190.220484 166.894716 
L 152.875 166.894716 
z
" clip-path="url(#pc172df816c)" style="fill: #3274a1"/>
   </g>
   <g id="patch_10">
    <path d="M 152.875 177.62592 
L 200.868512 177.62592 
L 200.868512 184.780057 
L 152.875 184.780057 
z
" clip-path="url(#pc172df816c)" style="fill: #3274a1"/>
   </g>
   <g id="patch_11">
    <path d="M 152.875 195.511261 
L 183.990974 195.511261 
L 183.990974 202.665398 
L 152.875 202.665398 
z
" clip-path="url(#pc172df816c)" style="fill: #3274a1"/>
   </g>
   <g id="patch_12">
    <path d="M 152.875 213.396602 
L 188.385251 213.396602 
L 188.385251 220.550739 
L 152.875 220.550739 
z
" clip-path="url(#pc172df816c)" style="fill: #3274a1"/>
   </g>
   <g id="patch_13">
    <path d="M 152.875 231.281943 
L 171.823397 231.281943 
L 171.823397 238.43608 
L 152.875 238.43608 
z
" clip-path="url(#pc172df816c)" style="fill: #3274a1"/>
   </g>
   <g id="patch_14">
    <path d="M 152.875 59.58267 
L 380.469899 59.58267 
L 380.469899 66.736807 
L 152.875 66.736807 
z
" clip-path="url(#pc172df816c)" style="fill: #e1812c"/>
   </g>
   <g id="patch_15">
    <path d="M 152.875 77.468011 
L 322.762242 77.468011 
L 322.762242 84.622148 
L 152.875 84.622148 
z
" clip-path="url(#pc172df816c)" style="fill: #e1812c"/>
   </g>
   <g id="patch_16">
    <path d="M 152.875 95.353352 
L 282.715161 95.353352 
L 282.715161 102.507489 
L 152.875 102.507489 
z
" clip-path="url(#pc172df816c)" style="fill: #e1812c"/>
   </g>
   <g id="patch_17">
    <path d="M 152.875 113.238693 
L 267.310289 113.238693 
L 267.310289 120.39283 
L 152.875 120.39283 
z
" clip-path="url(#pc172df816c)" style="fill: #e1812c"/>
   </g>
   <g id="patch_18">
    <path d="M 152.875 131.124034 
L 288.149823 131.124034 
L 288.149823 138.27817 
L 152.875 138.27817 
z
" clip-path="url(#pc172df816c)" style="fill: #e1812c"/>
   </g>
   <g id="patch_19">
    <path d="M 152.875 149.009375 
L 199.577251 149.009375 
L 199.577251 156.163511 
L 152.875 156.163511 
z
" clip-path="url(#pc172df816c)" style="fill: #e1812c"/>
   </g>
   <g id="patch_20">
    <path d="M 152.875 166.894716 
L 190.977937 166.894716 
L 190.977937 174.048852 
L 152.875 174.048852 
z
" clip-path="url(#pc172df816c)" style="fill: #e1812c"/>
   </g>
   <g id="patch_21">
    <path d="M 152.875 184.780057 
L 253.787923 184.780057 
L 253.787923 191.934193 
L 152.875 191.934193 
z
" clip-path="url(#pc172df816c)" style="fill: #e1812c"/>
   </g>
   <g id="patch_22">
    <path d="M 152.875 202.665398 
L 192.215043 202.665398 
L 192.215043 209.819534 
L 152.875 209.819534 
z
" clip-path="url(#pc172df816c)" style="fill: #e1812c"/>
   </g>
   <g id="patch_23">
    <path d="M 152.875 220.550739 
L 185.407148 220.550739 
L 185.407148 227.704875 
L 152.875 227.704875 
z
" clip-path="url(#pc172df816c)" style="fill: #e1812c"/>
   </g>
   <g id="patch_24">
    <path d="M 152.875 238.43608 
L 177.503828 238.43608 
L 177.503828 245.590216 
L 152.875 245.590216 
z
" clip-path="url(#pc172df816c)" style="fill: #e1812c"/>
   </g>
   <g id="patch_25">
    <path d="M 152.875 59.58267 
L 152.875 59.58267 
L 152.875 59.58267 
L 152.875 59.58267 
z
" clip-path="url(#pc172df816c)" style="fill: #3274a1"/>
   </g>
   <g id="patch_26">
    <path d="M 152.875 59.58267 
L 152.875 59.58267 
L 152.875 59.58267 
L 152.875 59.58267 
z
" clip-path="url(#pc172df816c)" style="fill: #e1812c"/>
   </g>
   <g id="matplotlib.axis_1">
    <g id="xtick_1">
     <g id="line2d_1">
      <defs>
       <path id="m8fc0a72069" d="M 0 0 
L 0 3.5 
" style="stroke: #000000; stroke-width: 0.8"/>
      </defs>
      <g>
       <use xlink:href="#m8fc0a72069" x="152.875" y="247.37875" style="stroke: #000000; stroke-width: 0.8"/>
      </g>
     </g>
     <g id="text_1">
      <!-- 0.0 -->
      <g transform="translate(144.923438 261.977188) scale(0.1 -0.1)">
       <defs>
        <path id="DejaVuSans-30" d="M 2034 4250 
Q 1547 4250 1301 3770 
Q 1056 3291 1056 2328 
Q 1056 1369 1301 889 
Q 1547 409 2034 409 
Q 2525 409 2770 889 
Q 3016 1369 3016 2328 
Q 3016 3291 2770 3770 
Q 2525 4250 2034 4250 
z
M 2034 4750 
Q 2819 4750 3233 4129 
Q 3647 3509 3647 2328 
Q 3647 1150 3233 529 
Q 2819 -91 2034 -91 
Q 1250 -91 836 529 
Q 422 1150 422 2328 
Q 422 3509 836 4129 
Q 1250 4750 2034 4750 
z
" transform="scale(0.015625)"/>
        <path id="DejaVuSans-2e" d="M 684 794 
L 1344 794 
L 1344 0 
L 684 0 
L 684 794 
z
" transform="scale(0.015625)"/>
       </defs>
       <use xlink:href="#DejaVuSans-30"/>
       <use xlink:href="#DejaVuSans-2e" transform="translate(63.623047 0)"/>
       <use xlink:href="#DejaVuSans-30" transform="translate(95.410156 0)"/>
      </g>
     </g>
    </g>
    <g id="xtick_2">
     <g id="line2d_2">
      <g>
       <use xlink:href="#m8fc0a72069" x="214.29156" y="247.37875" style="stroke: #000000; stroke-width: 0.8"/>
      </g>
     </g>
     <g id="text_2">
      <!-- 0.1 -->
      <g transform="translate(206.339998 261.977188) scale(0.1 -0.1)">
       <defs>
        <path id="DejaVuSans-31" d="M 794 531 
L 1825 531 
L 1825 4091 
L 703 3866 
L 703 4441 
L 1819 4666 
L 2450 4666 
L 2450 531 
L 3481 531 
L 3481 0 
L 794 0 
L 794 531 
z
" transform="scale(0.015625)"/>
       </defs>
       <use xlink:href="#DejaVuSans-30"/>
       <use xlink:href="#DejaVuSans-2e" transform="translate(63.623047 0)"/>
       <use xlink:href="#DejaVuSans-31" transform="translate(95.410156 0)"/>
      </g>
     </g>
    </g>
    <g id="xtick_3">
     <g id="line2d_3">
      <g>
       <use xlink:href="#m8fc0a72069" x="275.708121" y="247.37875" style="stroke: #000000; stroke-width: 0.8"/>
      </g>
     </g>
     <g id="text_3">
      <!-- 0.2 -->
      <g transform="translate(267.756558 261.977188) scale(0.1 -0.1)">
       <defs>
        <path id="DejaVuSans-32" d="M 1228 531 
L 3431 531 
L 3431 0 
L 469 0 
L 469 531 
Q 828 903 1448 1529 
Q 2069 2156 2228 2338 
Q 2531 2678 2651 2914 
Q 2772 3150 2772 3378 
Q 2772 3750 2511 3984 
Q 2250 4219 1831 4219 
Q 1534 4219 1204 4116 
Q 875 4013 500 3803 
L 500 4441 
Q 881 4594 1212 4672 
Q 1544 4750 1819 4750 
Q 2544 4750 2975 4387 
Q 3406 4025 3406 3419 
Q 3406 3131 3298 2873 
Q 3191 2616 2906 2266 
Q 2828 2175 2409 1742 
Q 1991 1309 1228 531 
z
" transform="scale(0.015625)"/>
       </defs>
       <use xlink:href="#DejaVuSans-30"/>
       <use xlink:href="#DejaVuSans-2e" transform="translate(63.623047 0)"/>
       <use xlink:href="#DejaVuSans-32" transform="translate(95.410156 0)"/>
      </g>
     </g>
    </g>
    <g id="xtick_4">
     <g id="line2d_4">
      <g>
       <use xlink:href="#m8fc0a72069" x="337.124681" y="247.37875" style="stroke: #000000; stroke-width: 0.8"/>
      </g>
     </g>
     <g id="text_4">
      <!-- 0.3 -->
      <g transform="translate(329.173118 261.977188) scale(0.1 -0.1)">
       <defs>
        <path id="DejaVuSans-33" d="M 2597 2516 
Q 3050 2419 3304 2112 
Q 3559 1806 3559 1356 
Q 3559 666 3084 287 
Q 2609 -91 1734 -91 
Q 1441 -91 1130 -33 
Q 819 25 488 141 
L 488 750 
Q 750 597 1062 519 
Q 1375 441 1716 441 
Q 2309 441 2620 675 
Q 2931 909 2931 1356 
Q 2931 1769 2642 2001 
Q 2353 2234 1838 2234 
L 1294 2234 
L 1294 2753 
L 1863 2753 
Q 2328 2753 2575 2939 
Q 2822 3125 2822 3475 
Q 2822 3834 2567 4026 
Q 2313 4219 1838 4219 
Q 1578 4219 1281 4162 
Q 984 4106 628 3988 
L 628 4550 
Q 988 4650 1302 4700 
Q 1616 4750 1894 4750 
Q 2613 4750 3031 4423 
Q 3450 4097 3450 3541 
Q 3450 3153 3228 2886 
Q 3006 2619 2597 2516 
z
" transform="scale(0.015625)"/>
       </defs>
       <use xlink:href="#DejaVuSans-30"/>
       <use xlink:href="#DejaVuSans-2e" transform="translate(63.623047 0)"/>
       <use xlink:href="#DejaVuSans-33" transform="translate(95.410156 0)"/>
      </g>
     </g>
    </g>
    <g id="xtick_5">
     <g id="line2d_5">
      <g>
       <use xlink:href="#m8fc0a72069" x="398.541241" y="247.37875" style="stroke: #000000; stroke-width: 0.8"/>
      </g>
     </g>
     <g id="text_5">
      <!-- 0.4 -->
      <g transform="translate(390.589679 261.977188) scale(0.1 -0.1)">
       <defs>
        <path id="DejaVuSans-34" d="M 2419 4116 
L 825 1625 
L 2419 1625 
L 2419 4116 
z
M 2253 4666 
L 3047 4666 
L 3047 1625 
L 3713 1625 
L 3713 1100 
L 3047 1100 
L 3047 0 
L 2419 0 
L 2419 1100 
L 313 1100 
L 313 1709 
L 2253 4666 
z
" transform="scale(0.015625)"/>
       </defs>
       <use xlink:href="#DejaVuSans-30"/>
       <use xlink:href="#DejaVuSans-2e" transform="translate(63.623047 0)"/>
       <use xlink:href="#DejaVuSans-34" transform="translate(95.410156 0)"/>
      </g>
     </g>
    </g>
    <g id="text_6">
     <!-- dcor -->
     <g transform="translate(275.036403 275.655312) scale(0.1 -0.1)">
      <defs>
       <path id="DejaVuSans-64" d="M 2906 2969 
L 2906 4863 
L 3481 4863 
L 3481 0 
L 2906 0 
L 2906 525 
Q 2725 213 2448 61 
Q 2172 -91 1784 -91 
Q 1150 -91 751 415 
Q 353 922 353 1747 
Q 353 2572 751 3078 
Q 1150 3584 1784 3584 
Q 2172 3584 2448 3432 
Q 2725 3281 2906 2969 
z
M 947 1747 
Q 947 1113 1208 752 
Q 1469 391 1925 391 
Q 2381 391 2643 752 
Q 2906 1113 2906 1747 
Q 2906 2381 2643 2742 
Q 2381 3103 1925 3103 
Q 1469 3103 1208 2742 
Q 947 2381 947 1747 
z
" transform="scale(0.015625)"/>
       <path id="DejaVuSans-63" d="M 3122 3366 
L 3122 2828 
Q 2878 2963 2633 3030 
Q 2388 3097 2138 3097 
Q 1578 3097 1268 2742 
Q 959 2388 959 1747 
Q 959 1106 1268 751 
Q 1578 397 2138 397 
Q 2388 397 2633 464 
Q 2878 531 3122 666 
L 3122 134 
Q 2881 22 2623 -34 
Q 2366 -91 2075 -91 
Q 1284 -91 818 406 
Q 353 903 353 1747 
Q 353 2603 823 3093 
Q 1294 3584 2113 3584 
Q 2378 3584 2631 3529 
Q 2884 3475 3122 3366 
z
" transform="scale(0.015625)"/>
       <path id="DejaVuSans-6f" d="M 1959 3097 
Q 1497 3097 1228 2736 
Q 959 2375 959 1747 
Q 959 1119 1226 758 
Q 1494 397 1959 397 
Q 2419 397 2687 759 
Q 2956 1122 2956 1747 
Q 2956 2369 2687 2733 
Q 2419 3097 1959 3097 
z
M 1959 3584 
Q 2709 3584 3137 3096 
Q 3566 2609 3566 1747 
Q 3566 888 3137 398 
Q 2709 -91 1959 -91 
Q 1206 -91 779 398 
Q 353 888 353 1747 
Q 353 2609 779 3096 
Q 1206 3584 1959 3584 
z
" transform="scale(0.015625)"/>
       <path id="DejaVuSans-72" d="M 2631 2963 
Q 2534 3019 2420 3045 
Q 2306 3072 2169 3072 
Q 1681 3072 1420 2755 
Q 1159 2438 1159 1844 
L 1159 0 
L 581 0 
L 581 3500 
L 1159 3500 
L 1159 2956 
Q 1341 3275 1631 3429 
Q 1922 3584 2338 3584 
Q 2397 3584 2469 3576 
Q 2541 3569 2628 3553 
L 2631 2963 
z
" transform="scale(0.015625)"/>
      </defs>
      <use xlink:href="#DejaVuSans-64"/>
      <use xlink:href="#DejaVuSans-63" transform="translate(63.476562 0)"/>
      <use xlink:href="#DejaVuSans-6f" transform="translate(118.457031 0)"/>
      <use xlink:href="#DejaVuSans-72" transform="translate(179.638672 0)"/>
     </g>
    </g>
   </g>
   <g id="matplotlib.axis_2">
    <g id="ytick_1">
     <g id="line2d_6">
      <defs>
       <path id="m257122e4a0" d="M 0 0 
L -3.5 0 
" style="stroke: #000000; stroke-width: 0.8"/>
      </defs>
      <g>
       <use xlink:href="#m257122e4a0" x="152.875" y="59.58267" style="stroke: #000000; stroke-width: 0.8"/>
      </g>
     </g>
     <g id="text_7">
      <!-- yacht -->
      <g transform="translate(118.071875 63.381889) scale(0.1 -0.1)">
       <defs>
        <path id="DejaVuSans-79" d="M 2059 -325 
Q 1816 -950 1584 -1140 
Q 1353 -1331 966 -1331 
L 506 -1331 
L 506 -850 
L 844 -850 
Q 1081 -850 1212 -737 
Q 1344 -625 1503 -206 
L 1606 56 
L 191 3500 
L 800 3500 
L 1894 763 
L 2988 3500 
L 3597 3500 
L 2059 -325 
z
" transform="scale(0.015625)"/>
        <path id="DejaVuSans-61" d="M 2194 1759 
Q 1497 1759 1228 1600 
Q 959 1441 959 1056 
Q 959 750 1161 570 
Q 1363 391 1709 391 
Q 2188 391 2477 730 
Q 2766 1069 2766 1631 
L 2766 1759 
L 2194 1759 
z
M 3341 1997 
L 3341 0 
L 2766 0 
L 2766 531 
Q 2569 213 2275 61 
Q 1981 -91 1556 -91 
Q 1019 -91 701 211 
Q 384 513 384 1019 
Q 384 1609 779 1909 
Q 1175 2209 1959 2209 
L 2766 2209 
L 2766 2266 
Q 2766 2663 2505 2880 
Q 2244 3097 1772 3097 
Q 1472 3097 1187 3025 
Q 903 2953 641 2809 
L 641 3341 
Q 956 3463 1253 3523 
Q 1550 3584 1831 3584 
Q 2591 3584 2966 3190 
Q 3341 2797 3341 1997 
z
" transform="scale(0.015625)"/>
        <path id="DejaVuSans-68" d="M 3513 2113 
L 3513 0 
L 2938 0 
L 2938 2094 
Q 2938 2591 2744 2837 
Q 2550 3084 2163 3084 
Q 1697 3084 1428 2787 
Q 1159 2491 1159 1978 
L 1159 0 
L 581 0 
L 581 4863 
L 1159 4863 
L 1159 2956 
Q 1366 3272 1645 3428 
Q 1925 3584 2291 3584 
Q 2894 3584 3203 3211 
Q 3513 2838 3513 2113 
z
" transform="scale(0.015625)"/>
        <path id="DejaVuSans-74" d="M 1172 4494 
L 1172 3500 
L 2356 3500 
L 2356 3053 
L 1172 3053 
L 1172 1153 
Q 1172 725 1289 603 
Q 1406 481 1766 481 
L 2356 481 
L 2356 0 
L 1766 0 
Q 1100 0 847 248 
Q 594 497 594 1153 
L 594 3053 
L 172 3053 
L 172 3500 
L 594 3500 
L 594 4494 
L 1172 4494 
z
" transform="scale(0.015625)"/>
       </defs>
       <use xlink:href="#DejaVuSans-79"/>
       <use xlink:href="#DejaVuSans-61" transform="translate(59.179688 0)"/>
       <use xlink:href="#DejaVuSans-63" transform="translate(120.458984 0)"/>
       <use xlink:href="#DejaVuSans-68" transform="translate(175.439453 0)"/>
       <use xlink:href="#DejaVuSans-74" transform="translate(238.818359 0)"/>
      </g>
     </g>
    </g>
    <g id="ytick_2">
     <g id="line2d_7">
      <g>
       <use xlink:href="#m257122e4a0" x="152.875" y="77.468011" style="stroke: #000000; stroke-width: 0.8"/>
      </g>
     </g>
     <g id="text_8">
      <!-- bostonHousing -->
      <g transform="translate(71.171875 81.26723) scale(0.1 -0.1)">
       <defs>
        <path id="DejaVuSans-62" d="M 3116 1747 
Q 3116 2381 2855 2742 
Q 2594 3103 2138 3103 
Q 1681 3103 1420 2742 
Q 1159 2381 1159 1747 
Q 1159 1113 1420 752 
Q 1681 391 2138 391 
Q 2594 391 2855 752 
Q 3116 1113 3116 1747 
z
M 1159 2969 
Q 1341 3281 1617 3432 
Q 1894 3584 2278 3584 
Q 2916 3584 3314 3078 
Q 3713 2572 3713 1747 
Q 3713 922 3314 415 
Q 2916 -91 2278 -91 
Q 1894 -91 1617 61 
Q 1341 213 1159 525 
L 1159 0 
L 581 0 
L 581 4863 
L 1159 4863 
L 1159 2969 
z
" transform="scale(0.015625)"/>
        <path id="DejaVuSans-73" d="M 2834 3397 
L 2834 2853 
Q 2591 2978 2328 3040 
Q 2066 3103 1784 3103 
Q 1356 3103 1142 2972 
Q 928 2841 928 2578 
Q 928 2378 1081 2264 
Q 1234 2150 1697 2047 
L 1894 2003 
Q 2506 1872 2764 1633 
Q 3022 1394 3022 966 
Q 3022 478 2636 193 
Q 2250 -91 1575 -91 
Q 1294 -91 989 -36 
Q 684 19 347 128 
L 347 722 
Q 666 556 975 473 
Q 1284 391 1588 391 
Q 1994 391 2212 530 
Q 2431 669 2431 922 
Q 2431 1156 2273 1281 
Q 2116 1406 1581 1522 
L 1381 1569 
Q 847 1681 609 1914 
Q 372 2147 372 2553 
Q 372 3047 722 3315 
Q 1072 3584 1716 3584 
Q 2034 3584 2315 3537 
Q 2597 3491 2834 3397 
z
" transform="scale(0.015625)"/>
        <path id="DejaVuSans-6e" d="M 3513 2113 
L 3513 0 
L 2938 0 
L 2938 2094 
Q 2938 2591 2744 2837 
Q 2550 3084 2163 3084 
Q 1697 3084 1428 2787 
Q 1159 2491 1159 1978 
L 1159 0 
L 581 0 
L 581 3500 
L 1159 3500 
L 1159 2956 
Q 1366 3272 1645 3428 
Q 1925 3584 2291 3584 
Q 2894 3584 3203 3211 
Q 3513 2838 3513 2113 
z
" transform="scale(0.015625)"/>
        <path id="DejaVuSans-48" d="M 628 4666 
L 1259 4666 
L 1259 2753 
L 3553 2753 
L 3553 4666 
L 4184 4666 
L 4184 0 
L 3553 0 
L 3553 2222 
L 1259 2222 
L 1259 0 
L 628 0 
L 628 4666 
z
" transform="scale(0.015625)"/>
        <path id="DejaVuSans-75" d="M 544 1381 
L 544 3500 
L 1119 3500 
L 1119 1403 
Q 1119 906 1312 657 
Q 1506 409 1894 409 
Q 2359 409 2629 706 
Q 2900 1003 2900 1516 
L 2900 3500 
L 3475 3500 
L 3475 0 
L 2900 0 
L 2900 538 
Q 2691 219 2414 64 
Q 2138 -91 1772 -91 
Q 1169 -91 856 284 
Q 544 659 544 1381 
z
M 1991 3584 
L 1991 3584 
z
" transform="scale(0.015625)"/>
        <path id="DejaVuSans-69" d="M 603 3500 
L 1178 3500 
L 1178 0 
L 603 0 
L 603 3500 
z
M 603 4863 
L 1178 4863 
L 1178 4134 
L 603 4134 
L 603 4863 
z
" transform="scale(0.015625)"/>
        <path id="DejaVuSans-67" d="M 2906 1791 
Q 2906 2416 2648 2759 
Q 2391 3103 1925 3103 
Q 1463 3103 1205 2759 
Q 947 2416 947 1791 
Q 947 1169 1205 825 
Q 1463 481 1925 481 
Q 2391 481 2648 825 
Q 2906 1169 2906 1791 
z
M 3481 434 
Q 3481 -459 3084 -895 
Q 2688 -1331 1869 -1331 
Q 1566 -1331 1297 -1286 
Q 1028 -1241 775 -1147 
L 775 -588 
Q 1028 -725 1275 -790 
Q 1522 -856 1778 -856 
Q 2344 -856 2625 -561 
Q 2906 -266 2906 331 
L 2906 616 
Q 2728 306 2450 153 
Q 2172 0 1784 0 
Q 1141 0 747 490 
Q 353 981 353 1791 
Q 353 2603 747 3093 
Q 1141 3584 1784 3584 
Q 2172 3584 2450 3431 
Q 2728 3278 2906 2969 
L 2906 3500 
L 3481 3500 
L 3481 434 
z
" transform="scale(0.015625)"/>
       </defs>
       <use xlink:href="#DejaVuSans-62"/>
       <use xlink:href="#DejaVuSans-6f" transform="translate(63.476562 0)"/>
       <use xlink:href="#DejaVuSans-73" transform="translate(124.658203 0)"/>
       <use xlink:href="#DejaVuSans-74" transform="translate(176.757812 0)"/>
       <use xlink:href="#DejaVuSans-6f" transform="translate(215.966797 0)"/>
       <use xlink:href="#DejaVuSans-6e" transform="translate(277.148438 0)"/>
       <use xlink:href="#DejaVuSans-48" transform="translate(340.527344 0)"/>
       <use xlink:href="#DejaVuSans-6f" transform="translate(415.722656 0)"/>
       <use xlink:href="#DejaVuSans-75" transform="translate(476.904297 0)"/>
       <use xlink:href="#DejaVuSans-73" transform="translate(540.283203 0)"/>
       <use xlink:href="#DejaVuSans-69" transform="translate(592.382812 0)"/>
       <use xlink:href="#DejaVuSans-6e" transform="translate(620.166016 0)"/>
       <use xlink:href="#DejaVuSans-67" transform="translate(683.544922 0)"/>
      </g>
     </g>
    </g>
    <g id="ytick_3">
     <g id="line2d_8">
      <g>
       <use xlink:href="#m257122e4a0" x="152.875" y="95.353352" style="stroke: #000000; stroke-width: 0.8"/>
      </g>
     </g>
     <g id="text_9">
      <!-- energy -->
      <g transform="translate(111.028125 99.152571) scale(0.1 -0.1)">
       <defs>
        <path id="DejaVuSans-65" d="M 3597 1894 
L 3597 1613 
L 953 1613 
Q 991 1019 1311 708 
Q 1631 397 2203 397 
Q 2534 397 2845 478 
Q 3156 559 3463 722 
L 3463 178 
Q 3153 47 2828 -22 
Q 2503 -91 2169 -91 
Q 1331 -91 842 396 
Q 353 884 353 1716 
Q 353 2575 817 3079 
Q 1281 3584 2069 3584 
Q 2775 3584 3186 3129 
Q 3597 2675 3597 1894 
z
M 3022 2063 
Q 3016 2534 2758 2815 
Q 2500 3097 2075 3097 
Q 1594 3097 1305 2825 
Q 1016 2553 972 2059 
L 3022 2063 
z
" transform="scale(0.015625)"/>
       </defs>
       <use xlink:href="#DejaVuSans-65"/>
       <use xlink:href="#DejaVuSans-6e" transform="translate(61.523438 0)"/>
       <use xlink:href="#DejaVuSans-65" transform="translate(124.902344 0)"/>
       <use xlink:href="#DejaVuSans-72" transform="translate(186.425781 0)"/>
       <use xlink:href="#DejaVuSans-67" transform="translate(225.789062 0)"/>
       <use xlink:href="#DejaVuSans-79" transform="translate(289.265625 0)"/>
      </g>
     </g>
    </g>
    <g id="ytick_4">
     <g id="line2d_9">
      <g>
       <use xlink:href="#m257122e4a0" x="152.875" y="113.238693" style="stroke: #000000; stroke-width: 0.8"/>
      </g>
     </g>
     <g id="text_10">
      <!-- concrete -->
      <g transform="translate(102.309375 117.037912) scale(0.1 -0.1)">
       <use xlink:href="#DejaVuSans-63"/>
       <use xlink:href="#DejaVuSans-6f" transform="translate(54.980469 0)"/>
       <use xlink:href="#DejaVuSans-6e" transform="translate(116.162109 0)"/>
       <use xlink:href="#DejaVuSans-63" transform="translate(179.541016 0)"/>
       <use xlink:href="#DejaVuSans-72" transform="translate(234.521484 0)"/>
       <use xlink:href="#DejaVuSans-65" transform="translate(273.384766 0)"/>
       <use xlink:href="#DejaVuSans-74" transform="translate(334.908203 0)"/>
       <use xlink:href="#DejaVuSans-65" transform="translate(374.117188 0)"/>
      </g>
     </g>
    </g>
    <g id="ytick_5">
     <g id="line2d_10">
      <g>
       <use xlink:href="#m257122e4a0" x="152.875" y="131.124034" style="stroke: #000000; stroke-width: 0.8"/>
      </g>
     </g>
     <g id="text_11">
      <!-- wine-quality-red -->
      <g transform="translate(64.790625 134.923253) scale(0.1 -0.1)">
       <defs>
        <path id="DejaVuSans-77" d="M 269 3500 
L 844 3500 
L 1563 769 
L 2278 3500 
L 2956 3500 
L 3675 769 
L 4391 3500 
L 4966 3500 
L 4050 0 
L 3372 0 
L 2619 2869 
L 1863 0 
L 1184 0 
L 269 3500 
z
" transform="scale(0.015625)"/>
        <path id="DejaVuSans-2d" d="M 313 2009 
L 1997 2009 
L 1997 1497 
L 313 1497 
L 313 2009 
z
" transform="scale(0.015625)"/>
        <path id="DejaVuSans-71" d="M 947 1747 
Q 947 1113 1208 752 
Q 1469 391 1925 391 
Q 2381 391 2643 752 
Q 2906 1113 2906 1747 
Q 2906 2381 2643 2742 
Q 2381 3103 1925 3103 
Q 1469 3103 1208 2742 
Q 947 2381 947 1747 
z
M 2906 525 
Q 2725 213 2448 61 
Q 2172 -91 1784 -91 
Q 1150 -91 751 415 
Q 353 922 353 1747 
Q 353 2572 751 3078 
Q 1150 3584 1784 3584 
Q 2172 3584 2448 3432 
Q 2725 3281 2906 2969 
L 2906 3500 
L 3481 3500 
L 3481 -1331 
L 2906 -1331 
L 2906 525 
z
" transform="scale(0.015625)"/>
        <path id="DejaVuSans-6c" d="M 603 4863 
L 1178 4863 
L 1178 0 
L 603 0 
L 603 4863 
z
" transform="scale(0.015625)"/>
       </defs>
       <use xlink:href="#DejaVuSans-77"/>
       <use xlink:href="#DejaVuSans-69" transform="translate(81.787109 0)"/>
       <use xlink:href="#DejaVuSans-6e" transform="translate(109.570312 0)"/>
       <use xlink:href="#DejaVuSans-65" transform="translate(172.949219 0)"/>
       <use xlink:href="#DejaVuSans-2d" transform="translate(234.472656 0)"/>
       <use xlink:href="#DejaVuSans-71" transform="translate(270.556641 0)"/>
       <use xlink:href="#DejaVuSans-75" transform="translate(334.033203 0)"/>
       <use xlink:href="#DejaVuSans-61" transform="translate(397.412109 0)"/>
       <use xlink:href="#DejaVuSans-6c" transform="translate(458.691406 0)"/>
       <use xlink:href="#DejaVuSans-69" transform="translate(486.474609 0)"/>
       <use xlink:href="#DejaVuSans-74" transform="translate(514.257812 0)"/>
       <use xlink:href="#DejaVuSans-79" transform="translate(553.466797 0)"/>
       <use xlink:href="#DejaVuSans-2d" transform="translate(610.896484 0)"/>
       <use xlink:href="#DejaVuSans-72" transform="translate(646.980469 0)"/>
       <use xlink:href="#DejaVuSans-65" transform="translate(685.84375 0)"/>
       <use xlink:href="#DejaVuSans-64" transform="translate(747.367188 0)"/>
      </g>
     </g>
    </g>
    <g id="ytick_6">
     <g id="line2d_11">
      <g>
       <use xlink:href="#m257122e4a0" x="152.875" y="149.009375" style="stroke: #000000; stroke-width: 0.8"/>
      </g>
     </g>
     <g id="text_12">
      <!-- kin8nm -->
      <g transform="translate(108.528125 152.808594) scale(0.1 -0.1)">
       <defs>
        <path id="DejaVuSans-6b" d="M 581 4863 
L 1159 4863 
L 1159 1991 
L 2875 3500 
L 3609 3500 
L 1753 1863 
L 3688 0 
L 2938 0 
L 1159 1709 
L 1159 0 
L 581 0 
L 581 4863 
z
" transform="scale(0.015625)"/>
        <path id="DejaVuSans-38" d="M 2034 2216 
Q 1584 2216 1326 1975 
Q 1069 1734 1069 1313 
Q 1069 891 1326 650 
Q 1584 409 2034 409 
Q 2484 409 2743 651 
Q 3003 894 3003 1313 
Q 3003 1734 2745 1975 
Q 2488 2216 2034 2216 
z
M 1403 2484 
Q 997 2584 770 2862 
Q 544 3141 544 3541 
Q 544 4100 942 4425 
Q 1341 4750 2034 4750 
Q 2731 4750 3128 4425 
Q 3525 4100 3525 3541 
Q 3525 3141 3298 2862 
Q 3072 2584 2669 2484 
Q 3125 2378 3379 2068 
Q 3634 1759 3634 1313 
Q 3634 634 3220 271 
Q 2806 -91 2034 -91 
Q 1263 -91 848 271 
Q 434 634 434 1313 
Q 434 1759 690 2068 
Q 947 2378 1403 2484 
z
M 1172 3481 
Q 1172 3119 1398 2916 
Q 1625 2713 2034 2713 
Q 2441 2713 2670 2916 
Q 2900 3119 2900 3481 
Q 2900 3844 2670 4047 
Q 2441 4250 2034 4250 
Q 1625 4250 1398 4047 
Q 1172 3844 1172 3481 
z
" transform="scale(0.015625)"/>
        <path id="DejaVuSans-6d" d="M 3328 2828 
Q 3544 3216 3844 3400 
Q 4144 3584 4550 3584 
Q 5097 3584 5394 3201 
Q 5691 2819 5691 2113 
L 5691 0 
L 5113 0 
L 5113 2094 
Q 5113 2597 4934 2840 
Q 4756 3084 4391 3084 
Q 3944 3084 3684 2787 
Q 3425 2491 3425 1978 
L 3425 0 
L 2847 0 
L 2847 2094 
Q 2847 2600 2669 2842 
Q 2491 3084 2119 3084 
Q 1678 3084 1418 2786 
Q 1159 2488 1159 1978 
L 1159 0 
L 581 0 
L 581 3500 
L 1159 3500 
L 1159 2956 
Q 1356 3278 1631 3431 
Q 1906 3584 2284 3584 
Q 2666 3584 2933 3390 
Q 3200 3197 3328 2828 
z
" transform="scale(0.015625)"/>
       </defs>
       <use xlink:href="#DejaVuSans-6b"/>
       <use xlink:href="#DejaVuSans-69" transform="translate(57.910156 0)"/>
       <use xlink:href="#DejaVuSans-6e" transform="translate(85.693359 0)"/>
       <use xlink:href="#DejaVuSans-38" transform="translate(149.072266 0)"/>
       <use xlink:href="#DejaVuSans-6e" transform="translate(212.695312 0)"/>
       <use xlink:href="#DejaVuSans-6d" transform="translate(276.074219 0)"/>
      </g>
     </g>
    </g>
    <g id="ytick_7">
     <g id="line2d_12">
      <g>
       <use xlink:href="#m257122e4a0" x="152.875" y="166.894716" style="stroke: #000000; stroke-width: 0.8"/>
      </g>
     </g>
     <g id="text_13">
      <!-- power-plant -->
      <g transform="translate(86.482812 170.693935) scale(0.1 -0.1)">
       <defs>
        <path id="DejaVuSans-70" d="M 1159 525 
L 1159 -1331 
L 581 -1331 
L 581 3500 
L 1159 3500 
L 1159 2969 
Q 1341 3281 1617 3432 
Q 1894 3584 2278 3584 
Q 2916 3584 3314 3078 
Q 3713 2572 3713 1747 
Q 3713 922 3314 415 
Q 2916 -91 2278 -91 
Q 1894 -91 1617 61 
Q 1341 213 1159 525 
z
M 3116 1747 
Q 3116 2381 2855 2742 
Q 2594 3103 2138 3103 
Q 1681 3103 1420 2742 
Q 1159 2381 1159 1747 
Q 1159 1113 1420 752 
Q 1681 391 2138 391 
Q 2594 391 2855 752 
Q 3116 1113 3116 1747 
z
" transform="scale(0.015625)"/>
       </defs>
       <use xlink:href="#DejaVuSans-70"/>
       <use xlink:href="#DejaVuSans-6f" transform="translate(63.476562 0)"/>
       <use xlink:href="#DejaVuSans-77" transform="translate(124.658203 0)"/>
       <use xlink:href="#DejaVuSans-65" transform="translate(206.445312 0)"/>
       <use xlink:href="#DejaVuSans-72" transform="translate(267.96875 0)"/>
       <use xlink:href="#DejaVuSans-2d" transform="translate(302.707031 0)"/>
       <use xlink:href="#DejaVuSans-70" transform="translate(338.791016 0)"/>
       <use xlink:href="#DejaVuSans-6c" transform="translate(402.267578 0)"/>
       <use xlink:href="#DejaVuSans-61" transform="translate(430.050781 0)"/>
       <use xlink:href="#DejaVuSans-6e" transform="translate(491.330078 0)"/>
       <use xlink:href="#DejaVuSans-74" transform="translate(554.708984 0)"/>
      </g>
     </g>
    </g>
    <g id="ytick_8">
     <g id="line2d_13">
      <g>
       <use xlink:href="#m257122e4a0" x="152.875" y="184.780057" style="stroke: #000000; stroke-width: 0.8"/>
      </g>
     </g>
     <g id="text_14">
      <!-- naval-propulsion-plant -->
      <g transform="translate(33.595312 188.579276) scale(0.1 -0.1)">
       <defs>
        <path id="DejaVuSans-76" d="M 191 3500 
L 800 3500 
L 1894 563 
L 2988 3500 
L 3597 3500 
L 2284 0 
L 1503 0 
L 191 3500 
z
" transform="scale(0.015625)"/>
       </defs>
       <use xlink:href="#DejaVuSans-6e"/>
       <use xlink:href="#DejaVuSans-61" transform="translate(63.378906 0)"/>
       <use xlink:href="#DejaVuSans-76" transform="translate(124.658203 0)"/>
       <use xlink:href="#DejaVuSans-61" transform="translate(183.837891 0)"/>
       <use xlink:href="#DejaVuSans-6c" transform="translate(245.117188 0)"/>
       <use xlink:href="#DejaVuSans-2d" transform="translate(272.900391 0)"/>
       <use xlink:href="#DejaVuSans-70" transform="translate(308.984375 0)"/>
       <use xlink:href="#DejaVuSans-72" transform="translate(372.460938 0)"/>
       <use xlink:href="#DejaVuSans-6f" transform="translate(411.324219 0)"/>
       <use xlink:href="#DejaVuSans-70" transform="translate(472.505859 0)"/>
       <use xlink:href="#DejaVuSans-75" transform="translate(535.982422 0)"/>
       <use xlink:href="#DejaVuSans-6c" transform="translate(599.361328 0)"/>
       <use xlink:href="#DejaVuSans-73" transform="translate(627.144531 0)"/>
       <use xlink:href="#DejaVuSans-69" transform="translate(679.244141 0)"/>
       <use xlink:href="#DejaVuSans-6f" transform="translate(707.027344 0)"/>
       <use xlink:href="#DejaVuSans-6e" transform="translate(768.208984 0)"/>
       <use xlink:href="#DejaVuSans-2d" transform="translate(831.587891 0)"/>
       <use xlink:href="#DejaVuSans-70" transform="translate(867.671875 0)"/>
       <use xlink:href="#DejaVuSans-6c" transform="translate(931.148438 0)"/>
       <use xlink:href="#DejaVuSans-61" transform="translate(958.931641 0)"/>
       <use xlink:href="#DejaVuSans-6e" transform="translate(1020.210938 0)"/>
       <use xlink:href="#DejaVuSans-74" transform="translate(1083.589844 0)"/>
      </g>
     </g>
    </g>
    <g id="ytick_9">
     <g id="line2d_14">
      <g>
       <use xlink:href="#m257122e4a0" x="152.875" y="202.665398" style="stroke: #000000; stroke-width: 0.8"/>
      </g>
     </g>
     <g id="text_15">
      <!-- bike -->
      <g transform="translate(125.167187 206.464616) scale(0.1 -0.1)">
       <use xlink:href="#DejaVuSans-62"/>
       <use xlink:href="#DejaVuSans-69" transform="translate(63.476562 0)"/>
       <use xlink:href="#DejaVuSans-6b" transform="translate(91.259766 0)"/>
       <use xlink:href="#DejaVuSans-65" transform="translate(145.544922 0)"/>
      </g>
     </g>
    </g>
    <g id="ytick_10">
     <g id="line2d_15">
      <g>
       <use xlink:href="#m257122e4a0" x="152.875" y="220.550739" style="stroke: #000000; stroke-width: 0.8"/>
      </g>
     </g>
     <g id="text_16">
      <!-- sinus -->
      <g transform="translate(120.003125 224.349957) scale(0.1 -0.1)">
       <use xlink:href="#DejaVuSans-73"/>
       <use xlink:href="#DejaVuSans-69" transform="translate(52.099609 0)"/>
       <use xlink:href="#DejaVuSans-6e" transform="translate(79.882812 0)"/>
       <use xlink:href="#DejaVuSans-75" transform="translate(143.261719 0)"/>
       <use xlink:href="#DejaVuSans-73" transform="translate(206.640625 0)"/>
      </g>
     </g>
    </g>
    <g id="ytick_11">
     <g id="line2d_16">
      <g>
       <use xlink:href="#m257122e4a0" x="152.875" y="238.43608" style="stroke: #000000; stroke-width: 0.8"/>
      </g>
     </g>
     <g id="text_17">
      <!-- protein-tertiary-structure -->
      <g transform="translate(20.878125 242.235298) scale(0.1 -0.1)">
       <use xlink:href="#DejaVuSans-70"/>
       <use xlink:href="#DejaVuSans-72" transform="translate(63.476562 0)"/>
       <use xlink:href="#DejaVuSans-6f" transform="translate(102.339844 0)"/>
       <use xlink:href="#DejaVuSans-74" transform="translate(163.521484 0)"/>
       <use xlink:href="#DejaVuSans-65" transform="translate(202.730469 0)"/>
       <use xlink:href="#DejaVuSans-69" transform="translate(264.253906 0)"/>
       <use xlink:href="#DejaVuSans-6e" transform="translate(292.037109 0)"/>
       <use xlink:href="#DejaVuSans-2d" transform="translate(355.416016 0)"/>
       <use xlink:href="#DejaVuSans-74" transform="translate(391.5 0)"/>
       <use xlink:href="#DejaVuSans-65" transform="translate(430.708984 0)"/>
       <use xlink:href="#DejaVuSans-72" transform="translate(492.232422 0)"/>
       <use xlink:href="#DejaVuSans-74" transform="translate(533.345703 0)"/>
       <use xlink:href="#DejaVuSans-69" transform="translate(572.554688 0)"/>
       <use xlink:href="#DejaVuSans-61" transform="translate(600.337891 0)"/>
       <use xlink:href="#DejaVuSans-72" transform="translate(661.617188 0)"/>
       <use xlink:href="#DejaVuSans-79" transform="translate(702.730469 0)"/>
       <use xlink:href="#DejaVuSans-2d" transform="translate(760.160156 0)"/>
       <use xlink:href="#DejaVuSans-73" transform="translate(796.244141 0)"/>
       <use xlink:href="#DejaVuSans-74" transform="translate(848.34375 0)"/>
       <use xlink:href="#DejaVuSans-72" transform="translate(887.552734 0)"/>
       <use xlink:href="#DejaVuSans-75" transform="translate(928.666016 0)"/>
       <use xlink:href="#DejaVuSans-63" transform="translate(992.044922 0)"/>
       <use xlink:href="#DejaVuSans-74" transform="translate(1047.025391 0)"/>
       <use xlink:href="#DejaVuSans-75" transform="translate(1086.234375 0)"/>
       <use xlink:href="#DejaVuSans-72" transform="translate(1149.613281 0)"/>
       <use xlink:href="#DejaVuSans-65" transform="translate(1188.476562 0)"/>
      </g>
     </g>
    </g>
    <g id="text_18">
     <!-- dataset -->
     <g transform="translate(14.798437 167.913281) rotate(-90) scale(0.1 -0.1)">
      <use xlink:href="#DejaVuSans-64"/>
      <use xlink:href="#DejaVuSans-61" transform="translate(63.476562 0)"/>
      <use xlink:href="#DejaVuSans-74" transform="translate(124.755859 0)"/>
      <use xlink:href="#DejaVuSans-61" transform="translate(163.964844 0)"/>
      <use xlink:href="#DejaVuSans-73" transform="translate(225.244141 0)"/>
      <use xlink:href="#DejaVuSans-65" transform="translate(277.34375 0)"/>
      <use xlink:href="#DejaVuSans-74" transform="translate(338.867188 0)"/>
     </g>
    </g>
   </g>
   <g id="line2d_17">
    <path d="M 332.034788 56.005602 
L 375.055665 56.005602 
" clip-path="url(#pc172df816c)" style="fill: none; stroke: #424242; stroke-width: 2.25; stroke-linecap: square"/>
   </g>
   <g id="line2d_18">
    <path d="M 305.983134 73.890943 
L 345.534974 73.890943 
" clip-path="url(#pc172df816c)" style="fill: none; stroke: #424242; stroke-width: 2.25; stroke-linecap: square"/>
   </g>
   <g id="line2d_19">
    <path d="M 253.251072 91.776284 
L 285.098617 91.776284 
" clip-path="url(#pc172df816c)" style="fill: none; stroke: #424242; stroke-width: 2.25; stroke-linecap: square"/>
   </g>
   <g id="line2d_20">
    <path d="M 254.649768 109.661625 
L 271.377732 109.661625 
" clip-path="url(#pc172df816c)" style="fill: none; stroke: #424242; stroke-width: 2.25; stroke-linecap: square"/>
   </g>
   <g id="line2d_21">
    <path d="M 289.892957 127.546966 
L 315.931221 127.546966 
" clip-path="url(#pc172df816c)" style="fill: none; stroke: #424242; stroke-width: 2.25; stroke-linecap: square"/>
   </g>
   <g id="line2d_22">
    <path d="M 192.10403 145.432307 
L 198.518847 145.432307 
" clip-path="url(#pc172df816c)" style="fill: none; stroke: #424242; stroke-width: 2.25; stroke-linecap: square"/>
   </g>
   <g id="line2d_23">
    <path d="M 186.044122 163.317648 
L 194.374115 163.317648 
" clip-path="url(#pc172df816c)" style="fill: none; stroke: #424242; stroke-width: 2.25; stroke-linecap: square"/>
   </g>
   <g id="line2d_24">
    <path d="M 197.582132 181.202989 
L 203.856476 181.202989 
" clip-path="url(#pc172df816c)" style="fill: none; stroke: #424242; stroke-width: 2.25; stroke-linecap: square"/>
   </g>
   <g id="line2d_25">
    <path d="M 180.905198 199.08833 
L 187.399878 199.08833 
" clip-path="url(#pc172df816c)" style="fill: none; stroke: #424242; stroke-width: 2.25; stroke-linecap: square"/>
   </g>
   <g id="line2d_26">
    <path d="M 184.944451 216.97367 
L 191.888475 216.97367 
" clip-path="url(#pc172df816c)" style="fill: none; stroke: #424242; stroke-width: 2.25; stroke-linecap: square"/>
   </g>
   <g id="line2d_27">
    <path d="M 168.108422 234.859011 
L 176.274031 234.859011 
" clip-path="url(#pc172df816c)" style="fill: none; stroke: #424242; stroke-width: 2.25; stroke-linecap: square"/>
   </g>
   <g id="line2d_28">
    <path d="M 357.118954 63.159739 
L 406.588685 63.159739 
" clip-path="url(#pc172df816c)" style="fill: none; stroke: #424242; stroke-width: 2.25; stroke-linecap: square"/>
   </g>
   <g id="line2d_29">
    <path d="M 305.943198 81.04508 
L 343.687262 81.04508 
" clip-path="url(#pc172df816c)" style="fill: none; stroke: #424242; stroke-width: 2.25; stroke-linecap: square"/>
   </g>
   <g id="line2d_30">
    <path d="M 270.165645 98.93042 
L 298.205466 98.93042 
" clip-path="url(#pc172df816c)" style="fill: none; stroke: #424242; stroke-width: 2.25; stroke-linecap: square"/>
   </g>
   <g id="line2d_31">
    <path d="M 256.773865 116.815761 
L 277.937138 116.815761 
" clip-path="url(#pc172df816c)" style="fill: none; stroke: #424242; stroke-width: 2.25; stroke-linecap: square"/>
   </g>
   <g id="line2d_32">
    <path d="M 270.042277 134.701102 
L 306.847437 134.701102 
" clip-path="url(#pc172df816c)" style="fill: none; stroke: #424242; stroke-width: 2.25; stroke-linecap: square"/>
   </g>
   <g id="line2d_33">
    <path d="M 192.896264 152.586443 
L 208.262743 152.586443 
" clip-path="url(#pc172df816c)" style="fill: none; stroke: #424242; stroke-width: 2.25; stroke-linecap: square"/>
   </g>
   <g id="line2d_34">
    <path d="M 186.847596 170.471784 
L 195.048117 170.471784 
" clip-path="url(#pc172df816c)" style="fill: none; stroke: #424242; stroke-width: 2.25; stroke-linecap: square"/>
   </g>
   <g id="line2d_35">
    <path d="M 239.405531 188.357125 
L 269.074833 188.357125 
" clip-path="url(#pc172df816c)" style="fill: none; stroke: #424242; stroke-width: 2.25; stroke-linecap: square"/>
   </g>
   <g id="line2d_36">
    <path d="M 187.336327 206.242466 
L 199.687718 206.242466 
" clip-path="url(#pc172df816c)" style="fill: none; stroke: #424242; stroke-width: 2.25; stroke-linecap: square"/>
   </g>
   <g id="line2d_37">
    <path d="M 183.338265 224.127807 
L 187.23964 224.127807 
" clip-path="url(#pc172df816c)" style="fill: none; stroke: #424242; stroke-width: 2.25; stroke-linecap: square"/>
   </g>
   <g id="line2d_38">
    <path d="M 169.094114 242.013148 
L 188.518147 242.013148 
" clip-path="url(#pc172df816c)" style="fill: none; stroke: #424242; stroke-width: 2.25; stroke-linecap: square"/>
   </g>
   <g id="patch_27">
    <path d="M 152.875 247.37875 
L 152.875 50.64 
" style="fill: none; stroke: #000000; stroke-width: 0.8; stroke-linejoin: miter; stroke-linecap: square"/>
   </g>
   <g id="patch_28">
    <path d="M 419.274369 247.37875 
L 419.274369 50.64 
" style="fill: none; stroke: #000000; stroke-width: 0.8; stroke-linejoin: miter; stroke-linecap: square"/>
   </g>
   <g id="patch_29">
    <path d="M 152.875 247.37875 
L 419.274369 247.37875 
" style="fill: none; stroke: #000000; stroke-width: 0.8; stroke-linejoin: miter; stroke-linecap: square"/>
   </g>
   <g id="patch_30">
    <path d="M 152.875 50.64 
L 419.274369 50.64 
" style="fill: none; stroke: #000000; stroke-width: 0.8; stroke-linejoin: miter; stroke-linecap: square"/>
   </g>
   <g id="text_19">
    <!-- error "cancellation" (dCor([a,b], Z)) -->
    <g transform="translate(180.44656 44.64) scale(0.12 -0.12)">
     <defs>
      <path id="DejaVuSans-20" transform="scale(0.015625)"/>
      <path id="DejaVuSans-22" d="M 1147 4666 
L 1147 2931 
L 616 2931 
L 616 4666 
L 1147 4666 
z
M 2328 4666 
L 2328 2931 
L 1797 2931 
L 1797 4666 
L 2328 4666 
z
" transform="scale(0.015625)"/>
      <path id="DejaVuSans-28" d="M 1984 4856 
Q 1566 4138 1362 3434 
Q 1159 2731 1159 2009 
Q 1159 1288 1364 580 
Q 1569 -128 1984 -844 
L 1484 -844 
Q 1016 -109 783 600 
Q 550 1309 550 2009 
Q 550 2706 781 3412 
Q 1013 4119 1484 4856 
L 1984 4856 
z
" transform="scale(0.015625)"/>
      <path id="DejaVuSans-43" d="M 4122 4306 
L 4122 3641 
Q 3803 3938 3442 4084 
Q 3081 4231 2675 4231 
Q 1875 4231 1450 3742 
Q 1025 3253 1025 2328 
Q 1025 1406 1450 917 
Q 1875 428 2675 428 
Q 3081 428 3442 575 
Q 3803 722 4122 1019 
L 4122 359 
Q 3791 134 3420 21 
Q 3050 -91 2638 -91 
Q 1578 -91 968 557 
Q 359 1206 359 2328 
Q 359 3453 968 4101 
Q 1578 4750 2638 4750 
Q 3056 4750 3426 4639 
Q 3797 4528 4122 4306 
z
" transform="scale(0.015625)"/>
      <path id="DejaVuSans-5b" d="M 550 4863 
L 1875 4863 
L 1875 4416 
L 1125 4416 
L 1125 -397 
L 1875 -397 
L 1875 -844 
L 550 -844 
L 550 4863 
z
" transform="scale(0.015625)"/>
      <path id="DejaVuSans-2c" d="M 750 794 
L 1409 794 
L 1409 256 
L 897 -744 
L 494 -744 
L 750 256 
L 750 794 
z
" transform="scale(0.015625)"/>
      <path id="DejaVuSans-5d" d="M 1947 4863 
L 1947 -844 
L 622 -844 
L 622 -397 
L 1369 -397 
L 1369 4416 
L 622 4416 
L 622 4863 
L 1947 4863 
z
" transform="scale(0.015625)"/>
      <path id="DejaVuSans-5a" d="M 359 4666 
L 4025 4666 
L 4025 4184 
L 1075 531 
L 4097 531 
L 4097 0 
L 288 0 
L 288 481 
L 3238 4134 
L 359 4134 
L 359 4666 
z
" transform="scale(0.015625)"/>
      <path id="DejaVuSans-29" d="M 513 4856 
L 1013 4856 
Q 1481 4119 1714 3412 
Q 1947 2706 1947 2009 
Q 1947 1309 1714 600 
Q 1481 -109 1013 -844 
L 513 -844 
Q 928 -128 1133 580 
Q 1338 1288 1338 2009 
Q 1338 2731 1133 3434 
Q 928 4138 513 4856 
z
" transform="scale(0.015625)"/>
     </defs>
     <use xlink:href="#DejaVuSans-65"/>
     <use xlink:href="#DejaVuSans-72" transform="translate(61.523438 0)"/>
     <use xlink:href="#DejaVuSans-72" transform="translate(100.886719 0)"/>
     <use xlink:href="#DejaVuSans-6f" transform="translate(139.75 0)"/>
     <use xlink:href="#DejaVuSans-72" transform="translate(200.931641 0)"/>
     <use xlink:href="#DejaVuSans-20" transform="translate(242.044922 0)"/>
     <use xlink:href="#DejaVuSans-22" transform="translate(273.832031 0)"/>
     <use xlink:href="#DejaVuSans-63" transform="translate(319.828125 0)"/>
     <use xlink:href="#DejaVuSans-61" transform="translate(374.808594 0)"/>
     <use xlink:href="#DejaVuSans-6e" transform="translate(436.087891 0)"/>
     <use xlink:href="#DejaVuSans-63" transform="translate(499.466797 0)"/>
     <use xlink:href="#DejaVuSans-65" transform="translate(554.447266 0)"/>
     <use xlink:href="#DejaVuSans-6c" transform="translate(615.970703 0)"/>
     <use xlink:href="#DejaVuSans-6c" transform="translate(643.753906 0)"/>
     <use xlink:href="#DejaVuSans-61" transform="translate(671.537109 0)"/>
     <use xlink:href="#DejaVuSans-74" transform="translate(732.816406 0)"/>
     <use xlink:href="#DejaVuSans-69" transform="translate(772.025391 0)"/>
     <use xlink:href="#DejaVuSans-6f" transform="translate(799.808594 0)"/>
     <use xlink:href="#DejaVuSans-6e" transform="translate(860.990234 0)"/>
     <use xlink:href="#DejaVuSans-22" transform="translate(924.369141 0)"/>
     <use xlink:href="#DejaVuSans-20" transform="translate(970.365234 0)"/>
     <use xlink:href="#DejaVuSans-28" transform="translate(1002.152344 0)"/>
     <use xlink:href="#DejaVuSans-64" transform="translate(1041.166016 0)"/>
     <use xlink:href="#DejaVuSans-43" transform="translate(1104.642578 0)"/>
     <use xlink:href="#DejaVuSans-6f" transform="translate(1174.466797 0)"/>
     <use xlink:href="#DejaVuSans-72" transform="translate(1235.648438 0)"/>
     <use xlink:href="#DejaVuSans-28" transform="translate(1276.761719 0)"/>
     <use xlink:href="#DejaVuSans-5b" transform="translate(1315.775391 0)"/>
     <use xlink:href="#DejaVuSans-61" transform="translate(1354.789062 0)"/>
     <use xlink:href="#DejaVuSans-2c" transform="translate(1416.068359 0)"/>
     <use xlink:href="#DejaVuSans-62" transform="translate(1447.855469 0)"/>
     <use xlink:href="#DejaVuSans-5d" transform="translate(1511.332031 0)"/>
     <use xlink:href="#DejaVuSans-2c" transform="translate(1550.345703 0)"/>
     <use xlink:href="#DejaVuSans-20" transform="translate(1582.132812 0)"/>
     <use xlink:href="#DejaVuSans-5a" transform="translate(1613.919922 0)"/>
     <use xlink:href="#DejaVuSans-29" transform="translate(1682.425781 0)"/>
     <use xlink:href="#DejaVuSans-29" transform="translate(1721.439453 0)"/>
    </g>
   </g>
   <g id="legend_1">
    <g id="patch_31">
     <path d="M 355.349369 242.37875 
L 412.274369 242.37875 
Q 414.274369 242.37875 414.274369 240.37875 
L 414.274369 197.344375 
Q 414.274369 195.344375 412.274369 195.344375 
L 355.349369 195.344375 
Q 353.349369 195.344375 353.349369 197.344375 
L 353.349369 240.37875 
Q 353.349369 242.37875 355.349369 242.37875 
z
" style="fill: #ffffff; opacity: 0.8; stroke: #cccccc; stroke-linejoin: miter"/>
    </g>
    <g id="text_20">
     <!-- calibration -->
     <g transform="translate(357.349369 206.942813) scale(0.1 -0.1)">
      <use xlink:href="#DejaVuSans-63"/>
      <use xlink:href="#DejaVuSans-61" transform="translate(54.980469 0)"/>
      <use xlink:href="#DejaVuSans-6c" transform="translate(116.259766 0)"/>
      <use xlink:href="#DejaVuSans-69" transform="translate(144.042969 0)"/>
      <use xlink:href="#DejaVuSans-62" transform="translate(171.826172 0)"/>
      <use xlink:href="#DejaVuSans-72" transform="translate(235.302734 0)"/>
      <use xlink:href="#DejaVuSans-61" transform="translate(276.416016 0)"/>
      <use xlink:href="#DejaVuSans-74" transform="translate(337.695312 0)"/>
      <use xlink:href="#DejaVuSans-69" transform="translate(376.904297 0)"/>
      <use xlink:href="#DejaVuSans-6f" transform="translate(404.6875 0)"/>
      <use xlink:href="#DejaVuSans-6e" transform="translate(465.869141 0)"/>
     </g>
    </g>
    <g id="patch_32">
     <path d="M 358.923588 221.620937 
L 378.923588 221.620937 
L 378.923588 214.620937 
L 358.923588 214.620937 
z
" style="fill: #3274a1"/>
    </g>
    <g id="text_21">
     <!-- ours -->
     <g transform="translate(386.923588 221.620937) scale(0.1 -0.1)">
      <use xlink:href="#DejaVuSans-6f"/>
      <use xlink:href="#DejaVuSans-75" transform="translate(61.181641 0)"/>
      <use xlink:href="#DejaVuSans-72" transform="translate(124.560547 0)"/>
      <use xlink:href="#DejaVuSans-73" transform="translate(165.673828 0)"/>
     </g>
    </g>
    <g id="patch_33">
     <path d="M 358.923588 236.299062 
L 378.923588 236.299062 
L 378.923588 229.299062 
L 358.923588 229.299062 
z
" style="fill: #e1812c"/>
    </g>
    <g id="text_22">
     <!-- CP -->
     <g transform="translate(386.923588 236.299062) scale(0.1 -0.1)">
      <defs>
       <path id="DejaVuSans-50" d="M 1259 4147 
L 1259 2394 
L 2053 2394 
Q 2494 2394 2734 2622 
Q 2975 2850 2975 3272 
Q 2975 3691 2734 3919 
Q 2494 4147 2053 4147 
L 1259 4147 
z
M 628 4666 
L 2053 4666 
Q 2838 4666 3239 4311 
Q 3641 3956 3641 3272 
Q 3641 2581 3239 2228 
Q 2838 1875 2053 1875 
L 1259 1875 
L 1259 0 
L 628 0 
L 628 4666 
z
" transform="scale(0.015625)"/>
      </defs>
      <use xlink:href="#DejaVuSans-43"/>
      <use xlink:href="#DejaVuSans-50" transform="translate(69.824219 0)"/>
     </g>
    </g>
   </g>
  </g>
  <g id="axes_2">
   <g id="patch_34">
    <path d="M 439.785315 247.37875 
L 706.184685 247.37875 
L 706.184685 50.64 
L 439.785315 50.64 
z
" style="fill: #ffffff"/>
   </g>
   <g id="patch_35">
    <path d="M 439.785315 52.428534 
L 683.506324 52.428534 
L 683.506324 59.58267 
L 439.785315 59.58267 
z
" clip-path="url(#pe3afd73916)" style="fill: #3274a1"/>
   </g>
   <g id="patch_36">
    <path d="M 439.785315 70.313875 
L 680.93247 70.313875 
L 680.93247 77.468011 
L 439.785315 77.468011 
z
" clip-path="url(#pe3afd73916)" style="fill: #3274a1"/>
   </g>
   <g id="patch_37">
    <path d="M 439.785315 88.199216 
L 648.987642 88.199216 
L 648.987642 95.353352 
L 439.785315 95.353352 
z
" clip-path="url(#pe3afd73916)" style="fill: #3274a1"/>
   </g>
   <g id="patch_38">
    <path d="M 439.785315 106.084557 
L 679.723614 106.084557 
L 679.723614 113.238693 
L 439.785315 113.238693 
z
" clip-path="url(#pe3afd73916)" style="fill: #3274a1"/>
   </g>
   <g id="patch_39">
    <path d="M 439.785315 123.969898 
L 668.033384 123.969898 
L 668.033384 131.124034 
L 439.785315 131.124034 
z
" clip-path="url(#pe3afd73916)" style="fill: #3274a1"/>
   </g>
   <g id="patch_40">
    <path d="M 439.785315 141.855239 
L 687.612774 141.855239 
L 687.612774 149.009375 
L 439.785315 149.009375 
z
" clip-path="url(#pe3afd73916)" style="fill: #3274a1"/>
   </g>
   <g id="patch_41">
    <path d="M 439.785315 159.74058 
L 684.728138 159.74058 
L 684.728138 166.894716 
L 439.785315 166.894716 
z
" clip-path="url(#pe3afd73916)" style="fill: #3274a1"/>
   </g>
   <g id="patch_42">
    <path d="M 439.785315 177.62592 
L 519.051875 177.62592 
L 519.051875 184.780057 
L 439.785315 184.780057 
z
" clip-path="url(#pe3afd73916)" style="fill: #3274a1"/>
   </g>
   <g id="patch_43">
    <path d="M 439.785315 195.511261 
L 686.394885 195.511261 
L 686.394885 202.665398 
L 439.785315 202.665398 
z
" clip-path="url(#pe3afd73916)" style="fill: #3274a1"/>
   </g>
   <g id="patch_44">
    <path d="M 439.785315 213.396602 
L 692.928461 213.396602 
L 692.928461 220.550739 
L 439.785315 220.550739 
z
" clip-path="url(#pe3afd73916)" style="fill: #3274a1"/>
   </g>
   <g id="patch_45">
    <path d="M 439.785315 231.281943 
L 686.300826 231.281943 
L 686.300826 238.43608 
L 439.785315 238.43608 
z
" clip-path="url(#pe3afd73916)" style="fill: #3274a1"/>
   </g>
   <g id="patch_46">
    <path d="M 439.785315 59.58267 
L 688.104834 59.58267 
L 688.104834 66.736807 
L 439.785315 66.736807 
z
" clip-path="url(#pe3afd73916)" style="fill: #e1812c"/>
   </g>
   <g id="patch_47">
    <path d="M 439.785315 77.468011 
L 688.301561 77.468011 
L 688.301561 84.622148 
L 439.785315 84.622148 
z
" clip-path="url(#pe3afd73916)" style="fill: #e1812c"/>
   </g>
   <g id="patch_48">
    <path d="M 439.785315 95.353352 
L 685.677993 95.353352 
L 685.677993 102.507489 
L 439.785315 102.507489 
z
" clip-path="url(#pe3afd73916)" style="fill: #e1812c"/>
   </g>
   <g id="patch_49">
    <path d="M 439.785315 113.238693 
L 687.14698 113.238693 
L 687.14698 120.39283 
L 439.785315 120.39283 
z
" clip-path="url(#pe3afd73916)" style="fill: #e1812c"/>
   </g>
   <g id="patch_50">
    <path d="M 439.785315 131.124034 
L 687.391542 131.124034 
L 687.391542 138.27817 
L 439.785315 138.27817 
z
" clip-path="url(#pe3afd73916)" style="fill: #e1812c"/>
   </g>
   <g id="patch_51">
    <path d="M 439.785315 149.009375 
L 685.77725 149.009375 
L 685.77725 156.163511 
L 439.785315 156.163511 
z
" clip-path="url(#pe3afd73916)" style="fill: #e1812c"/>
   </g>
   <g id="patch_52">
    <path d="M 439.785315 166.894716 
L 685.351057 166.894716 
L 685.351057 174.048852 
L 439.785315 174.048852 
z
" clip-path="url(#pe3afd73916)" style="fill: #e1812c"/>
   </g>
   <g id="patch_53">
    <path d="M 439.785315 184.780057 
L 685.905973 184.780057 
L 685.905973 191.934193 
L 439.785315 191.934193 
z
" clip-path="url(#pe3afd73916)" style="fill: #e1812c"/>
   </g>
   <g id="patch_54">
    <path d="M 439.785315 202.665398 
L 686.551472 202.665398 
L 686.551472 209.819534 
L 439.785315 209.819534 
z
" clip-path="url(#pe3afd73916)" style="fill: #e1812c"/>
   </g>
   <g id="patch_55">
    <path d="M 439.785315 220.550739 
L 686.221953 220.550739 
L 686.221953 227.704875 
L 439.785315 227.704875 
z
" clip-path="url(#pe3afd73916)" style="fill: #e1812c"/>
   </g>
   <g id="patch_56">
    <path d="M 439.785315 238.43608 
L 685.938087 238.43608 
L 685.938087 245.590216 
L 439.785315 245.590216 
z
" clip-path="url(#pe3afd73916)" style="fill: #e1812c"/>
   </g>
   <g id="patch_57">
    <path d="M 439.785315 59.58267 
L 439.785315 59.58267 
L 439.785315 59.58267 
L 439.785315 59.58267 
z
" clip-path="url(#pe3afd73916)" style="fill: #3274a1"/>
   </g>
   <g id="patch_58">
    <path d="M 439.785315 59.58267 
L 439.785315 59.58267 
L 439.785315 59.58267 
L 439.785315 59.58267 
z
" clip-path="url(#pe3afd73916)" style="fill: #e1812c"/>
   </g>
   <g id="matplotlib.axis_3">
    <g id="xtick_6">
     <g id="line2d_39">
      <g>
       <use xlink:href="#m8fc0a72069" x="439.785315" y="247.37875" style="stroke: #000000; stroke-width: 0.8"/>
      </g>
     </g>
     <g id="text_23">
      <!-- 0.0 -->
      <g transform="translate(431.833753 261.977188) scale(0.1 -0.1)">
       <use xlink:href="#DejaVuSans-30"/>
       <use xlink:href="#DejaVuSans-2e" transform="translate(63.623047 0)"/>
       <use xlink:href="#DejaVuSans-30" transform="translate(95.410156 0)"/>
      </g>
     </g>
    </g>
    <g id="xtick_7">
     <g id="line2d_40">
      <g>
       <use xlink:href="#m8fc0a72069" x="491.62306" y="247.37875" style="stroke: #000000; stroke-width: 0.8"/>
      </g>
     </g>
     <g id="text_24">
      <!-- 0.2 -->
      <g transform="translate(483.671497 261.977188) scale(0.1 -0.1)">
       <use xlink:href="#DejaVuSans-30"/>
       <use xlink:href="#DejaVuSans-2e" transform="translate(63.623047 0)"/>
       <use xlink:href="#DejaVuSans-32" transform="translate(95.410156 0)"/>
      </g>
     </g>
    </g>
    <g id="xtick_8">
     <g id="line2d_41">
      <g>
       <use xlink:href="#m8fc0a72069" x="543.460804" y="247.37875" style="stroke: #000000; stroke-width: 0.8"/>
      </g>
     </g>
     <g id="text_25">
      <!-- 0.4 -->
      <g transform="translate(535.509242 261.977188) scale(0.1 -0.1)">
       <use xlink:href="#DejaVuSans-30"/>
       <use xlink:href="#DejaVuSans-2e" transform="translate(63.623047 0)"/>
       <use xlink:href="#DejaVuSans-34" transform="translate(95.410156 0)"/>
      </g>
     </g>
    </g>
    <g id="xtick_9">
     <g id="line2d_42">
      <g>
       <use xlink:href="#m8fc0a72069" x="595.298549" y="247.37875" style="stroke: #000000; stroke-width: 0.8"/>
      </g>
     </g>
     <g id="text_26">
      <!-- 0.6 -->
      <g transform="translate(587.346987 261.977188) scale(0.1 -0.1)">
       <defs>
        <path id="DejaVuSans-36" d="M 2113 2584 
Q 1688 2584 1439 2293 
Q 1191 2003 1191 1497 
Q 1191 994 1439 701 
Q 1688 409 2113 409 
Q 2538 409 2786 701 
Q 3034 994 3034 1497 
Q 3034 2003 2786 2293 
Q 2538 2584 2113 2584 
z
M 3366 4563 
L 3366 3988 
Q 3128 4100 2886 4159 
Q 2644 4219 2406 4219 
Q 1781 4219 1451 3797 
Q 1122 3375 1075 2522 
Q 1259 2794 1537 2939 
Q 1816 3084 2150 3084 
Q 2853 3084 3261 2657 
Q 3669 2231 3669 1497 
Q 3669 778 3244 343 
Q 2819 -91 2113 -91 
Q 1303 -91 875 529 
Q 447 1150 447 2328 
Q 447 3434 972 4092 
Q 1497 4750 2381 4750 
Q 2619 4750 2861 4703 
Q 3103 4656 3366 4563 
z
" transform="scale(0.015625)"/>
       </defs>
       <use xlink:href="#DejaVuSans-30"/>
       <use xlink:href="#DejaVuSans-2e" transform="translate(63.623047 0)"/>
       <use xlink:href="#DejaVuSans-36" transform="translate(95.410156 0)"/>
      </g>
     </g>
    </g>
    <g id="xtick_10">
     <g id="line2d_43">
      <g>
       <use xlink:href="#m8fc0a72069" x="647.136294" y="247.37875" style="stroke: #000000; stroke-width: 0.8"/>
      </g>
     </g>
     <g id="text_27">
      <!-- 0.8 -->
      <g transform="translate(639.184731 261.977188) scale(0.1 -0.1)">
       <use xlink:href="#DejaVuSans-30"/>
       <use xlink:href="#DejaVuSans-2e" transform="translate(63.623047 0)"/>
       <use xlink:href="#DejaVuSans-38" transform="translate(95.410156 0)"/>
      </g>
     </g>
    </g>
    <g id="xtick_11">
     <g id="line2d_44">
      <g>
       <use xlink:href="#m8fc0a72069" x="698.974038" y="247.37875" style="stroke: #000000; stroke-width: 0.8"/>
      </g>
     </g>
     <g id="text_28">
      <!-- 1.0 -->
      <g transform="translate(691.022476 261.977188) scale(0.1 -0.1)">
       <use xlink:href="#DejaVuSans-31"/>
       <use xlink:href="#DejaVuSans-2e" transform="translate(63.623047 0)"/>
       <use xlink:href="#DejaVuSans-30" transform="translate(95.410156 0)"/>
      </g>
     </g>
    </g>
    <g id="text_29">
     <!-- coverage -->
     <g transform="translate(549.770156 275.655312) scale(0.1 -0.1)">
      <use xlink:href="#DejaVuSans-63"/>
      <use xlink:href="#DejaVuSans-6f" transform="translate(54.980469 0)"/>
      <use xlink:href="#DejaVuSans-76" transform="translate(116.162109 0)"/>
      <use xlink:href="#DejaVuSans-65" transform="translate(175.341797 0)"/>
      <use xlink:href="#DejaVuSans-72" transform="translate(236.865234 0)"/>
      <use xlink:href="#DejaVuSans-61" transform="translate(277.978516 0)"/>
      <use xlink:href="#DejaVuSans-67" transform="translate(339.257812 0)"/>
      <use xlink:href="#DejaVuSans-65" transform="translate(402.734375 0)"/>
     </g>
    </g>
   </g>
   <g id="matplotlib.axis_4">
    <g id="ytick_12">
     <g id="line2d_45">
      <g>
       <use xlink:href="#m257122e4a0" x="439.785315" y="59.58267" style="stroke: #000000; stroke-width: 0.8"/>
      </g>
     </g>
    </g>
    <g id="ytick_13">
     <g id="line2d_46">
      <g>
       <use xlink:href="#m257122e4a0" x="439.785315" y="77.468011" style="stroke: #000000; stroke-width: 0.8"/>
      </g>
     </g>
    </g>
    <g id="ytick_14">
     <g id="line2d_47">
      <g>
       <use xlink:href="#m257122e4a0" x="439.785315" y="95.353352" style="stroke: #000000; stroke-width: 0.8"/>
      </g>
     </g>
    </g>
    <g id="ytick_15">
     <g id="line2d_48">
      <g>
       <use xlink:href="#m257122e4a0" x="439.785315" y="113.238693" style="stroke: #000000; stroke-width: 0.8"/>
      </g>
     </g>
    </g>
    <g id="ytick_16">
     <g id="line2d_49">
      <g>
       <use xlink:href="#m257122e4a0" x="439.785315" y="131.124034" style="stroke: #000000; stroke-width: 0.8"/>
      </g>
     </g>
    </g>
    <g id="ytick_17">
     <g id="line2d_50">
      <g>
       <use xlink:href="#m257122e4a0" x="439.785315" y="149.009375" style="stroke: #000000; stroke-width: 0.8"/>
      </g>
     </g>
    </g>
    <g id="ytick_18">
     <g id="line2d_51">
      <g>
       <use xlink:href="#m257122e4a0" x="439.785315" y="166.894716" style="stroke: #000000; stroke-width: 0.8"/>
      </g>
     </g>
    </g>
    <g id="ytick_19">
     <g id="line2d_52">
      <g>
       <use xlink:href="#m257122e4a0" x="439.785315" y="184.780057" style="stroke: #000000; stroke-width: 0.8"/>
      </g>
     </g>
    </g>
    <g id="ytick_20">
     <g id="line2d_53">
      <g>
       <use xlink:href="#m257122e4a0" x="439.785315" y="202.665398" style="stroke: #000000; stroke-width: 0.8"/>
      </g>
     </g>
    </g>
    <g id="ytick_21">
     <g id="line2d_54">
      <g>
       <use xlink:href="#m257122e4a0" x="439.785315" y="220.550739" style="stroke: #000000; stroke-width: 0.8"/>
      </g>
     </g>
    </g>
    <g id="ytick_22">
     <g id="line2d_55">
      <g>
       <use xlink:href="#m257122e4a0" x="439.785315" y="238.43608" style="stroke: #000000; stroke-width: 0.8"/>
      </g>
     </g>
    </g>
   </g>
   <g id="line2d_56">
    <path d="M 675.552993 56.005602 
L 690.195065 56.005602 
" clip-path="url(#pe3afd73916)" style="fill: none; stroke: #424242; stroke-width: 2.25; stroke-linecap: square"/>
   </g>
   <g id="line2d_57">
    <path d="M 676.358552 73.890943 
L 684.750422 73.890943 
" clip-path="url(#pe3afd73916)" style="fill: none; stroke: #424242; stroke-width: 2.25; stroke-linecap: square"/>
   </g>
   <g id="line2d_58">
    <path d="M 638.885172 91.776284 
L 658.244382 91.776284 
" clip-path="url(#pe3afd73916)" style="fill: none; stroke: #424242; stroke-width: 2.25; stroke-linecap: square"/>
   </g>
   <g id="line2d_59">
    <path d="M 675.571561 109.661625 
L 683.875666 109.661625 
" clip-path="url(#pe3afd73916)" style="fill: none; stroke: #424242; stroke-width: 2.25; stroke-linecap: square"/>
   </g>
   <g id="line2d_60">
    <path d="M 664.22655 127.546966 
L 671.678226 127.546966 
" clip-path="url(#pe3afd73916)" style="fill: none; stroke: #424242; stroke-width: 2.25; stroke-linecap: square"/>
   </g>
   <g id="line2d_61">
    <path d="M 686.710835 145.432307 
L 688.451419 145.432307 
" clip-path="url(#pe3afd73916)" style="fill: none; stroke: #424242; stroke-width: 2.25; stroke-linecap: square"/>
   </g>
   <g id="line2d_62">
    <path d="M 683.956259 163.317648 
L 685.594808 163.317648 
" clip-path="url(#pe3afd73916)" style="fill: none; stroke: #424242; stroke-width: 2.25; stroke-linecap: square"/>
   </g>
   <g id="line2d_63">
    <path d="M 510.990519 181.202989 
L 526.432127 181.202989 
" clip-path="url(#pe3afd73916)" style="fill: none; stroke: #424242; stroke-width: 2.25; stroke-linecap: square"/>
   </g>
   <g id="line2d_64">
    <path d="M 685.537198 199.08833 
L 687.222745 199.08833 
" clip-path="url(#pe3afd73916)" style="fill: none; stroke: #424242; stroke-width: 2.25; stroke-linecap: square"/>
   </g>
   <g id="line2d_65">
    <path d="M 692.358246 216.97367 
L 693.499 216.97367 
" clip-path="url(#pe3afd73916)" style="fill: none; stroke: #424242; stroke-width: 2.25; stroke-linecap: square"/>
   </g>
   <g id="line2d_66">
    <path d="M 685.666032 234.859011 
L 686.789108 234.859011 
" clip-path="url(#pe3afd73916)" style="fill: none; stroke: #424242; stroke-width: 2.25; stroke-linecap: square"/>
   </g>
   <g id="line2d_67">
    <path d="M 682.252185 63.159739 
L 693.12139 63.159739 
" clip-path="url(#pe3afd73916)" style="fill: none; stroke: #424242; stroke-width: 2.25; stroke-linecap: square"/>
   </g>
   <g id="line2d_68">
    <path d="M 682.711216 81.04508 
L 692.627726 81.04508 
" clip-path="url(#pe3afd73916)" style="fill: none; stroke: #424242; stroke-width: 2.25; stroke-linecap: square"/>
   </g>
   <g id="line2d_69">
    <path d="M 681.638689 98.93042 
L 689.380689 98.93042 
" clip-path="url(#pe3afd73916)" style="fill: none; stroke: #424242; stroke-width: 2.25; stroke-linecap: square"/>
   </g>
   <g id="line2d_70">
    <path d="M 684.253125 116.815761 
L 689.91816 116.815761 
" clip-path="url(#pe3afd73916)" style="fill: none; stroke: #424242; stroke-width: 2.25; stroke-linecap: square"/>
   </g>
   <g id="line2d_71">
    <path d="M 685.769588 134.701102 
L 688.851504 134.701102 
" clip-path="url(#pe3afd73916)" style="fill: none; stroke: #424242; stroke-width: 2.25; stroke-linecap: square"/>
   </g>
   <g id="line2d_72">
    <path d="M 684.779974 152.586443 
L 686.758306 152.586443 
" clip-path="url(#pe3afd73916)" style="fill: none; stroke: #424242; stroke-width: 2.25; stroke-linecap: square"/>
   </g>
   <g id="line2d_73">
    <path d="M 684.280922 170.471784 
L 686.353145 170.471784 
" clip-path="url(#pe3afd73916)" style="fill: none; stroke: #424242; stroke-width: 2.25; stroke-linecap: square"/>
   </g>
   <g id="line2d_74">
    <path d="M 685.11271 188.357125 
L 686.818728 188.357125 
" clip-path="url(#pe3afd73916)" style="fill: none; stroke: #424242; stroke-width: 2.25; stroke-linecap: square"/>
   </g>
   <g id="line2d_75">
    <path d="M 685.850372 206.242466 
L 687.23859 206.242466 
" clip-path="url(#pe3afd73916)" style="fill: none; stroke: #424242; stroke-width: 2.25; stroke-linecap: square"/>
   </g>
   <g id="line2d_76">
    <path d="M 685.833008 224.127807 
L 686.597939 224.127807 
" clip-path="url(#pe3afd73916)" style="fill: none; stroke: #424242; stroke-width: 2.25; stroke-linecap: square"/>
   </g>
   <g id="line2d_77">
    <path d="M 685.07658 242.013148 
L 687.082983 242.013148 
" clip-path="url(#pe3afd73916)" style="fill: none; stroke: #424242; stroke-width: 2.25; stroke-linecap: square"/>
   </g>
   <g id="line2d_78">
    <path d="M 686.014602 247.37875 
L 686.014602 50.64 
" clip-path="url(#pe3afd73916)" style="fill: none; stroke-dasharray: 3.7,1.6; stroke-dashoffset: 0; stroke: #808080"/>
   </g>
   <g id="patch_59">
    <path d="M 439.785315 247.37875 
L 439.785315 50.64 
" style="fill: none; stroke: #000000; stroke-width: 0.8; stroke-linejoin: miter; stroke-linecap: square"/>
   </g>
   <g id="patch_60">
    <path d="M 706.184685 247.37875 
L 706.184685 50.64 
" style="fill: none; stroke: #000000; stroke-width: 0.8; stroke-linejoin: miter; stroke-linecap: square"/>
   </g>
   <g id="patch_61">
    <path d="M 439.785315 247.37875 
L 706.184685 247.37875 
" style="fill: none; stroke: #000000; stroke-width: 0.8; stroke-linejoin: miter; stroke-linecap: square"/>
   </g>
   <g id="patch_62">
    <path d="M 439.785315 50.64 
L 706.184685 50.64 
" style="fill: none; stroke: #000000; stroke-width: 0.8; stroke-linejoin: miter; stroke-linecap: square"/>
   </g>
   <g id="text_30">
    <!-- marginal coverage -->
    <g transform="translate(516.715312 44.64) scale(0.12 -0.12)">
     <use xlink:href="#DejaVuSans-6d"/>
     <use xlink:href="#DejaVuSans-61" transform="translate(97.412109 0)"/>
     <use xlink:href="#DejaVuSans-72" transform="translate(158.691406 0)"/>
     <use xlink:href="#DejaVuSans-67" transform="translate(198.054688 0)"/>
     <use xlink:href="#DejaVuSans-69" transform="translate(261.53125 0)"/>
     <use xlink:href="#DejaVuSans-6e" transform="translate(289.314453 0)"/>
     <use xlink:href="#DejaVuSans-61" transform="translate(352.693359 0)"/>
     <use xlink:href="#DejaVuSans-6c" transform="translate(413.972656 0)"/>
     <use xlink:href="#DejaVuSans-20" transform="translate(441.755859 0)"/>
     <use xlink:href="#DejaVuSans-63" transform="translate(473.542969 0)"/>
     <use xlink:href="#DejaVuSans-6f" transform="translate(528.523438 0)"/>
     <use xlink:href="#DejaVuSans-76" transform="translate(589.705078 0)"/>
     <use xlink:href="#DejaVuSans-65" transform="translate(648.884766 0)"/>
     <use xlink:href="#DejaVuSans-72" transform="translate(710.408203 0)"/>
     <use xlink:href="#DejaVuSans-61" transform="translate(751.521484 0)"/>
     <use xlink:href="#DejaVuSans-67" transform="translate(812.800781 0)"/>
     <use xlink:href="#DejaVuSans-65" transform="translate(876.277344 0)"/>
    </g>
   </g>
   <g id="legend_2">
    <g id="patch_63">
     <path d="M 544.5225 242.37875 
L 601.4475 242.37875 
Q 603.4475 242.37875 603.4475 240.37875 
L 603.4475 182.66625 
Q 603.4475 180.66625 601.4475 180.66625 
L 544.5225 180.66625 
Q 542.5225 180.66625 542.5225 182.66625 
L 542.5225 240.37875 
Q 542.5225 242.37875 544.5225 242.37875 
z
" style="fill: #ffffff; opacity: 0.8; stroke: #cccccc; stroke-linejoin: miter"/>
    </g>
    <g id="text_31">
     <!-- calibration -->
     <g transform="translate(546.5225 192.264687) scale(0.1 -0.1)">
      <use xlink:href="#DejaVuSans-63"/>
      <use xlink:href="#DejaVuSans-61" transform="translate(54.980469 0)"/>
      <use xlink:href="#DejaVuSans-6c" transform="translate(116.259766 0)"/>
      <use xlink:href="#DejaVuSans-69" transform="translate(144.042969 0)"/>
      <use xlink:href="#DejaVuSans-62" transform="translate(171.826172 0)"/>
      <use xlink:href="#DejaVuSans-72" transform="translate(235.302734 0)"/>
      <use xlink:href="#DejaVuSans-61" transform="translate(276.416016 0)"/>
      <use xlink:href="#DejaVuSans-74" transform="translate(337.695312 0)"/>
      <use xlink:href="#DejaVuSans-69" transform="translate(376.904297 0)"/>
      <use xlink:href="#DejaVuSans-6f" transform="translate(404.6875 0)"/>
      <use xlink:href="#DejaVuSans-6e" transform="translate(465.869141 0)"/>
     </g>
    </g>
    <g id="patch_64">
     <path d="M 547.485 206.942812 
L 567.485 206.942812 
L 567.485 199.942812 
L 547.485 199.942812 
z
" style="fill: #3274a1"/>
    </g>
    <g id="text_32">
     <!-- ours -->
     <g transform="translate(575.485 206.942812) scale(0.1 -0.1)">
      <use xlink:href="#DejaVuSans-6f"/>
      <use xlink:href="#DejaVuSans-75" transform="translate(61.181641 0)"/>
      <use xlink:href="#DejaVuSans-72" transform="translate(124.560547 0)"/>
      <use xlink:href="#DejaVuSans-73" transform="translate(165.673828 0)"/>
     </g>
    </g>
    <g id="patch_65">
     <path d="M 547.485 221.620937 
L 567.485 221.620937 
L 567.485 214.620937 
L 547.485 214.620937 
z
" style="fill: #e1812c"/>
    </g>
    <g id="text_33">
     <!-- CP -->
     <g transform="translate(575.485 221.620937) scale(0.1 -0.1)">
      <use xlink:href="#DejaVuSans-43"/>
      <use xlink:href="#DejaVuSans-50" transform="translate(69.824219 0)"/>
     </g>
    </g>
    <g id="line2d_79">
     <path d="M 547.485 232.799062 
L 557.485 232.799062 
L 567.485 232.799062 
" style="fill: none; stroke-dasharray: 3.7,1.6; stroke-dashoffset: 0; stroke: #808080"/>
    </g>
    <g id="text_34">
     <!-- 1 - $\alpha$ -->
     <g transform="translate(575.485 236.299062) scale(0.1 -0.1)">
      <defs>
       <path id="DejaVuSans-Oblique-3b1" d="M 2619 1628 
L 2622 2350 
Q 2625 3088 2069 3091 
Q 1653 3094 1394 2747 
Q 1069 2319 959 1747 
Q 825 1059 994 731 
Q 1169 397 1547 397 
Q 1966 397 2319 1063 
L 2619 1628 
z
M 2166 3578 
Q 3141 3594 3128 2584 
Q 3128 2584 3616 3500 
L 4128 3500 
L 3119 1603 
L 3109 919 
Q 3109 766 3194 638 
Q 3291 488 3391 488 
L 3669 488 
L 3575 0 
L 3228 0 
Q 2934 0 2722 263 
Q 2622 394 2619 669 
Q 2416 334 2066 50 
Q 1900 -81 1453 -78 
Q 722 -72 456 397 
Q 184 884 353 1747 
Q 534 2675 1009 3097 
Q 1544 3569 2166 3578 
z
" transform="scale(0.015625)"/>
      </defs>
      <use xlink:href="#DejaVuSans-31" transform="translate(0 0.09375)"/>
      <use xlink:href="#DejaVuSans-20" transform="translate(63.623047 0.09375)"/>
      <use xlink:href="#DejaVuSans-2d" transform="translate(95.410156 0.09375)"/>
      <use xlink:href="#DejaVuSans-20" transform="translate(131.494141 0.09375)"/>
      <use xlink:href="#DejaVuSans-Oblique-3b1" transform="translate(163.28125 0.09375)"/>
     </g>
    </g>
   </g>
  </g>
  <g id="axes_3">
   <g id="patch_66">
    <path d="M 726.695631 247.37875 
L 993.095 247.37875 
L 993.095 50.64 
L 726.695631 50.64 
z
" style="fill: #ffffff"/>
   </g>
   <g id="patch_67">
    <path d="M 726.695631 52.428534 
L 918.455065 52.428534 
L 918.455065 66.736807 
L 726.695631 66.736807 
z
" clip-path="url(#p913266a18c)" style="fill: #107070"/>
   </g>
   <g id="patch_68">
    <path d="M 726.695631 70.313875 
L 881.993612 70.313875 
L 881.993612 84.622148 
L 726.695631 84.622148 
z
" clip-path="url(#p913266a18c)" style="fill: #107070"/>
   </g>
   <g id="patch_69">
    <path d="M 726.695631 88.199216 
L 822.414118 88.199216 
L 822.414118 102.507489 
L 726.695631 102.507489 
z
" clip-path="url(#p913266a18c)" style="fill: #107070"/>
   </g>
   <g id="patch_70">
    <path d="M 726.695631 106.084557 
L 872.366255 106.084557 
L 872.366255 120.39283 
L 726.695631 120.39283 
z
" clip-path="url(#p913266a18c)" style="fill: #107070"/>
   </g>
   <g id="patch_71">
    <path d="M 726.695631 123.969898 
L 871.529207 123.969898 
L 871.529207 138.27817 
L 726.695631 138.27817 
z
" clip-path="url(#p913266a18c)" style="fill: #107070"/>
   </g>
   <g id="patch_72">
    <path d="M 726.695631 141.855239 
L 876.647474 141.855239 
L 876.647474 156.163511 
L 726.695631 156.163511 
z
" clip-path="url(#p913266a18c)" style="fill: #107070"/>
   </g>
   <g id="patch_73">
    <path d="M 726.695631 159.74058 
L 878.338857 159.74058 
L 878.338857 174.048852 
L 726.695631 174.048852 
z
" clip-path="url(#p913266a18c)" style="fill: #107070"/>
   </g>
   <g id="patch_74">
    <path d="M 726.695631 177.62592 
L 818.85422 177.62592 
L 818.85422 191.934193 
L 726.695631 191.934193 
z
" clip-path="url(#p913266a18c)" style="fill: #107070"/>
   </g>
   <g id="patch_75">
    <path d="M 726.695631 195.511261 
L 870.501049 195.511261 
L 870.501049 209.819534 
L 726.695631 209.819534 
z
" clip-path="url(#p913266a18c)" style="fill: #107070"/>
   </g>
   <g id="patch_76">
    <path d="M 726.695631 213.396602 
L 883.247996 213.396602 
L 883.247996 227.704875 
L 726.695631 227.704875 
z
" clip-path="url(#p913266a18c)" style="fill: #107070"/>
   </g>
   <g id="patch_77">
    <path d="M 726.695631 231.281943 
L 872.475463 231.281943 
L 872.475463 245.590216 
L 726.695631 245.590216 
z
" clip-path="url(#p913266a18c)" style="fill: #107070"/>
   </g>
   <g id="matplotlib.axis_5">
    <g id="xtick_12">
     <g id="line2d_80">
      <g>
       <use xlink:href="#m8fc0a72069" x="726.695631" y="247.37875" style="stroke: #000000; stroke-width: 0.8"/>
      </g>
     </g>
     <g id="text_35">
      <!-- 0.00 -->
      <g transform="translate(715.562818 261.977188) scale(0.1 -0.1)">
       <use xlink:href="#DejaVuSans-30"/>
       <use xlink:href="#DejaVuSans-2e" transform="translate(63.623047 0)"/>
       <use xlink:href="#DejaVuSans-30" transform="translate(95.410156 0)"/>
       <use xlink:href="#DejaVuSans-30" transform="translate(159.033203 0)"/>
      </g>
     </g>
    </g>
    <g id="xtick_13">
     <g id="line2d_81">
      <g>
       <use xlink:href="#m8fc0a72069" x="762.854006" y="247.37875" style="stroke: #000000; stroke-width: 0.8"/>
      </g>
     </g>
     <g id="text_36">
      <!-- 0.25 -->
      <g transform="translate(751.721194 261.977188) scale(0.1 -0.1)">
       <defs>
        <path id="DejaVuSans-35" d="M 691 4666 
L 3169 4666 
L 3169 4134 
L 1269 4134 
L 1269 2991 
Q 1406 3038 1543 3061 
Q 1681 3084 1819 3084 
Q 2600 3084 3056 2656 
Q 3513 2228 3513 1497 
Q 3513 744 3044 326 
Q 2575 -91 1722 -91 
Q 1428 -91 1123 -41 
Q 819 9 494 109 
L 494 744 
Q 775 591 1075 516 
Q 1375 441 1709 441 
Q 2250 441 2565 725 
Q 2881 1009 2881 1497 
Q 2881 1984 2565 2268 
Q 2250 2553 1709 2553 
Q 1456 2553 1204 2497 
Q 953 2441 691 2322 
L 691 4666 
z
" transform="scale(0.015625)"/>
       </defs>
       <use xlink:href="#DejaVuSans-30"/>
       <use xlink:href="#DejaVuSans-2e" transform="translate(63.623047 0)"/>
       <use xlink:href="#DejaVuSans-32" transform="translate(95.410156 0)"/>
       <use xlink:href="#DejaVuSans-35" transform="translate(159.033203 0)"/>
      </g>
     </g>
    </g>
    <g id="xtick_14">
     <g id="line2d_82">
      <g>
       <use xlink:href="#m8fc0a72069" x="799.012382" y="247.37875" style="stroke: #000000; stroke-width: 0.8"/>
      </g>
     </g>
     <g id="text_37">
      <!-- 0.50 -->
      <g transform="translate(787.879569 261.977188) scale(0.1 -0.1)">
       <use xlink:href="#DejaVuSans-30"/>
       <use xlink:href="#DejaVuSans-2e" transform="translate(63.623047 0)"/>
       <use xlink:href="#DejaVuSans-35" transform="translate(95.410156 0)"/>
       <use xlink:href="#DejaVuSans-30" transform="translate(159.033203 0)"/>
      </g>
     </g>
    </g>
    <g id="xtick_15">
     <g id="line2d_83">
      <g>
       <use xlink:href="#m8fc0a72069" x="835.170757" y="247.37875" style="stroke: #000000; stroke-width: 0.8"/>
      </g>
     </g>
     <g id="text_38">
      <!-- 0.75 -->
      <g transform="translate(824.037945 261.977188) scale(0.1 -0.1)">
       <defs>
        <path id="DejaVuSans-37" d="M 525 4666 
L 3525 4666 
L 3525 4397 
L 1831 0 
L 1172 0 
L 2766 4134 
L 525 4134 
L 525 4666 
z
" transform="scale(0.015625)"/>
       </defs>
       <use xlink:href="#DejaVuSans-30"/>
       <use xlink:href="#DejaVuSans-2e" transform="translate(63.623047 0)"/>
       <use xlink:href="#DejaVuSans-37" transform="translate(95.410156 0)"/>
       <use xlink:href="#DejaVuSans-35" transform="translate(159.033203 0)"/>
      </g>
     </g>
    </g>
    <g id="xtick_16">
     <g id="line2d_84">
      <g>
       <use xlink:href="#m8fc0a72069" x="871.329133" y="247.37875" style="stroke: #000000; stroke-width: 0.8"/>
      </g>
     </g>
     <g id="text_39">
      <!-- 1.00 -->
      <g transform="translate(860.196321 261.977188) scale(0.1 -0.1)">
       <use xlink:href="#DejaVuSans-31"/>
       <use xlink:href="#DejaVuSans-2e" transform="translate(63.623047 0)"/>
       <use xlink:href="#DejaVuSans-30" transform="translate(95.410156 0)"/>
       <use xlink:href="#DejaVuSans-30" transform="translate(159.033203 0)"/>
      </g>
     </g>
    </g>
    <g id="xtick_17">
     <g id="line2d_85">
      <g>
       <use xlink:href="#m8fc0a72069" x="907.487509" y="247.37875" style="stroke: #000000; stroke-width: 0.8"/>
      </g>
     </g>
     <g id="text_40">
      <!-- 1.25 -->
      <g transform="translate(896.354696 261.977188) scale(0.1 -0.1)">
       <use xlink:href="#DejaVuSans-31"/>
       <use xlink:href="#DejaVuSans-2e" transform="translate(63.623047 0)"/>
       <use xlink:href="#DejaVuSans-32" transform="translate(95.410156 0)"/>
       <use xlink:href="#DejaVuSans-35" transform="translate(159.033203 0)"/>
      </g>
     </g>
    </g>
    <g id="xtick_18">
     <g id="line2d_86">
      <g>
       <use xlink:href="#m8fc0a72069" x="943.645884" y="247.37875" style="stroke: #000000; stroke-width: 0.8"/>
      </g>
     </g>
     <g id="text_41">
      <!-- 1.50 -->
      <g transform="translate(932.513072 261.977188) scale(0.1 -0.1)">
       <use xlink:href="#DejaVuSans-31"/>
       <use xlink:href="#DejaVuSans-2e" transform="translate(63.623047 0)"/>
       <use xlink:href="#DejaVuSans-35" transform="translate(95.410156 0)"/>
       <use xlink:href="#DejaVuSans-30" transform="translate(159.033203 0)"/>
      </g>
     </g>
    </g>
    <g id="xtick_19">
     <g id="line2d_87">
      <g>
       <use xlink:href="#m8fc0a72069" x="979.80426" y="247.37875" style="stroke: #000000; stroke-width: 0.8"/>
      </g>
     </g>
     <g id="text_42">
      <!-- 1.75 -->
      <g transform="translate(968.671447 261.977188) scale(0.1 -0.1)">
       <use xlink:href="#DejaVuSans-31"/>
       <use xlink:href="#DejaVuSans-2e" transform="translate(63.623047 0)"/>
       <use xlink:href="#DejaVuSans-37" transform="translate(95.410156 0)"/>
       <use xlink:href="#DejaVuSans-35" transform="translate(159.033203 0)"/>
      </g>
     </g>
    </g>
    <g id="text_43">
     <!-- relative_avr_len -->
     <g transform="translate(820.324222 275.655312) scale(0.1 -0.1)">
      <defs>
       <path id="DejaVuSans-5f" d="M 3263 -1063 
L 3263 -1509 
L -63 -1509 
L -63 -1063 
L 3263 -1063 
z
" transform="scale(0.015625)"/>
      </defs>
      <use xlink:href="#DejaVuSans-72"/>
      <use xlink:href="#DejaVuSans-65" transform="translate(38.863281 0)"/>
      <use xlink:href="#DejaVuSans-6c" transform="translate(100.386719 0)"/>
      <use xlink:href="#DejaVuSans-61" transform="translate(128.169922 0)"/>
      <use xlink:href="#DejaVuSans-74" transform="translate(189.449219 0)"/>
      <use xlink:href="#DejaVuSans-69" transform="translate(228.658203 0)"/>
      <use xlink:href="#DejaVuSans-76" transform="translate(256.441406 0)"/>
      <use xlink:href="#DejaVuSans-65" transform="translate(315.621094 0)"/>
      <use xlink:href="#DejaVuSans-5f" transform="translate(377.144531 0)"/>
      <use xlink:href="#DejaVuSans-61" transform="translate(427.144531 0)"/>
      <use xlink:href="#DejaVuSans-76" transform="translate(488.423828 0)"/>
      <use xlink:href="#DejaVuSans-72" transform="translate(547.603516 0)"/>
      <use xlink:href="#DejaVuSans-5f" transform="translate(588.716797 0)"/>
      <use xlink:href="#DejaVuSans-6c" transform="translate(638.716797 0)"/>
      <use xlink:href="#DejaVuSans-65" transform="translate(666.5 0)"/>
      <use xlink:href="#DejaVuSans-6e" transform="translate(728.023438 0)"/>
     </g>
    </g>
   </g>
   <g id="matplotlib.axis_6">
    <g id="ytick_23">
     <g id="line2d_88">
      <g>
       <use xlink:href="#m257122e4a0" x="726.695631" y="59.58267" style="stroke: #000000; stroke-width: 0.8"/>
      </g>
     </g>
    </g>
    <g id="ytick_24">
     <g id="line2d_89">
      <g>
       <use xlink:href="#m257122e4a0" x="726.695631" y="77.468011" style="stroke: #000000; stroke-width: 0.8"/>
      </g>
     </g>
    </g>
    <g id="ytick_25">
     <g id="line2d_90">
      <g>
       <use xlink:href="#m257122e4a0" x="726.695631" y="95.353352" style="stroke: #000000; stroke-width: 0.8"/>
      </g>
     </g>
    </g>
    <g id="ytick_26">
     <g id="line2d_91">
      <g>
       <use xlink:href="#m257122e4a0" x="726.695631" y="113.238693" style="stroke: #000000; stroke-width: 0.8"/>
      </g>
     </g>
    </g>
    <g id="ytick_27">
     <g id="line2d_92">
      <g>
       <use xlink:href="#m257122e4a0" x="726.695631" y="131.124034" style="stroke: #000000; stroke-width: 0.8"/>
      </g>
     </g>
    </g>
    <g id="ytick_28">
     <g id="line2d_93">
      <g>
       <use xlink:href="#m257122e4a0" x="726.695631" y="149.009375" style="stroke: #000000; stroke-width: 0.8"/>
      </g>
     </g>
    </g>
    <g id="ytick_29">
     <g id="line2d_94">
      <g>
       <use xlink:href="#m257122e4a0" x="726.695631" y="166.894716" style="stroke: #000000; stroke-width: 0.8"/>
      </g>
     </g>
    </g>
    <g id="ytick_30">
     <g id="line2d_95">
      <g>
       <use xlink:href="#m257122e4a0" x="726.695631" y="184.780057" style="stroke: #000000; stroke-width: 0.8"/>
      </g>
     </g>
    </g>
    <g id="ytick_31">
     <g id="line2d_96">
      <g>
       <use xlink:href="#m257122e4a0" x="726.695631" y="202.665398" style="stroke: #000000; stroke-width: 0.8"/>
      </g>
     </g>
    </g>
    <g id="ytick_32">
     <g id="line2d_97">
      <g>
       <use xlink:href="#m257122e4a0" x="726.695631" y="220.550739" style="stroke: #000000; stroke-width: 0.8"/>
      </g>
     </g>
    </g>
    <g id="ytick_33">
     <g id="line2d_98">
      <g>
       <use xlink:href="#m257122e4a0" x="726.695631" y="238.43608" style="stroke: #000000; stroke-width: 0.8"/>
      </g>
     </g>
    </g>
   </g>
   <g id="line2d_99">
    <path d="M 867.572578 59.58267 
L 980.409316 59.58267 
" clip-path="url(#p913266a18c)" style="fill: none; stroke: #424242; stroke-width: 2.25; stroke-linecap: square"/>
   </g>
   <g id="line2d_100">
    <path d="M 868.021613 77.468011 
L 896.167123 77.468011 
" clip-path="url(#p913266a18c)" style="fill: none; stroke: #424242; stroke-width: 2.25; stroke-linecap: square"/>
   </g>
   <g id="line2d_101">
    <path d="M 812.562049 95.353352 
L 834.429969 95.353352 
" clip-path="url(#p913266a18c)" style="fill: none; stroke: #424242; stroke-width: 2.25; stroke-linecap: square"/>
   </g>
   <g id="line2d_102">
    <path d="M 867.500415 113.238693 
L 877.658184 113.238693 
" clip-path="url(#p913266a18c)" style="fill: none; stroke: #424242; stroke-width: 2.25; stroke-linecap: square"/>
   </g>
   <g id="line2d_103">
    <path d="M 864.627296 131.124034 
L 878.841261 131.124034 
" clip-path="url(#p913266a18c)" style="fill: none; stroke: #424242; stroke-width: 2.25; stroke-linecap: square"/>
   </g>
   <g id="line2d_104">
    <path d="M 874.707921 149.009375 
L 878.75102 149.009375 
" clip-path="url(#p913266a18c)" style="fill: none; stroke: #424242; stroke-width: 2.25; stroke-linecap: square"/>
   </g>
   <g id="line2d_105">
    <path d="M 876.062445 166.894716 
L 880.534757 166.894716 
" clip-path="url(#p913266a18c)" style="fill: none; stroke: #424242; stroke-width: 2.25; stroke-linecap: square"/>
   </g>
   <g id="line2d_106">
    <path d="M 812.214275 184.780057 
L 826.196119 184.780057 
" clip-path="url(#p913266a18c)" style="fill: none; stroke: #424242; stroke-width: 2.25; stroke-linecap: square"/>
   </g>
   <g id="line2d_107">
    <path d="M 866.842696 202.665398 
L 874.223047 202.665398 
" clip-path="url(#p913266a18c)" style="fill: none; stroke: #424242; stroke-width: 2.25; stroke-linecap: square"/>
   </g>
   <g id="line2d_108">
    <path d="M 882.228393 220.550739 
L 884.244603 220.550739 
" clip-path="url(#p913266a18c)" style="fill: none; stroke: #424242; stroke-width: 2.25; stroke-linecap: square"/>
   </g>
   <g id="line2d_109">
    <path d="M 869.137928 238.43608 
L 875.603245 238.43608 
" clip-path="url(#p913266a18c)" style="fill: none; stroke: #424242; stroke-width: 2.25; stroke-linecap: square"/>
   </g>
   <g id="line2d_110">
    <path d="M 871.329133 247.37875 
L 871.329133 50.64 
" clip-path="url(#p913266a18c)" style="fill: none; stroke-dasharray: 3.7,1.6; stroke-dashoffset: 0; stroke: #808080"/>
   </g>
   <g id="patch_78">
    <path d="M 726.695631 247.37875 
L 726.695631 50.64 
" style="fill: none; stroke: #000000; stroke-width: 0.8; stroke-linejoin: miter; stroke-linecap: square"/>
   </g>
   <g id="patch_79">
    <path d="M 993.095 247.37875 
L 993.095 50.64 
" style="fill: none; stroke: #000000; stroke-width: 0.8; stroke-linejoin: miter; stroke-linecap: square"/>
   </g>
   <g id="patch_80">
    <path d="M 726.695631 247.37875 
L 993.095 247.37875 
" style="fill: none; stroke: #000000; stroke-width: 0.8; stroke-linejoin: miter; stroke-linecap: square"/>
   </g>
   <g id="patch_81">
    <path d="M 726.695631 50.64 
L 993.095 50.64 
" style="fill: none; stroke: #000000; stroke-width: 0.8; stroke-linejoin: miter; stroke-linecap: square"/>
   </g>
   <g id="text_44">
    <!-- relative average interval length -->
    <g transform="translate(764.98094 44.64) scale(0.12 -0.12)">
     <use xlink:href="#DejaVuSans-72"/>
     <use xlink:href="#DejaVuSans-65" transform="translate(38.863281 0)"/>
     <use xlink:href="#DejaVuSans-6c" transform="translate(100.386719 0)"/>
     <use xlink:href="#DejaVuSans-61" transform="translate(128.169922 0)"/>
     <use xlink:href="#DejaVuSans-74" transform="translate(189.449219 0)"/>
     <use xlink:href="#DejaVuSans-69" transform="translate(228.658203 0)"/>
     <use xlink:href="#DejaVuSans-76" transform="translate(256.441406 0)"/>
     <use xlink:href="#DejaVuSans-65" transform="translate(315.621094 0)"/>
     <use xlink:href="#DejaVuSans-20" transform="translate(377.144531 0)"/>
     <use xlink:href="#DejaVuSans-61" transform="translate(408.931641 0)"/>
     <use xlink:href="#DejaVuSans-76" transform="translate(470.210938 0)"/>
     <use xlink:href="#DejaVuSans-65" transform="translate(529.390625 0)"/>
     <use xlink:href="#DejaVuSans-72" transform="translate(590.914062 0)"/>
     <use xlink:href="#DejaVuSans-61" transform="translate(632.027344 0)"/>
     <use xlink:href="#DejaVuSans-67" transform="translate(693.306641 0)"/>
     <use xlink:href="#DejaVuSans-65" transform="translate(756.783203 0)"/>
     <use xlink:href="#DejaVuSans-20" transform="translate(818.306641 0)"/>
     <use xlink:href="#DejaVuSans-69" transform="translate(850.09375 0)"/>
     <use xlink:href="#DejaVuSans-6e" transform="translate(877.876953 0)"/>
     <use xlink:href="#DejaVuSans-74" transform="translate(941.255859 0)"/>
     <use xlink:href="#DejaVuSans-65" transform="translate(980.464844 0)"/>
     <use xlink:href="#DejaVuSans-72" transform="translate(1041.988281 0)"/>
     <use xlink:href="#DejaVuSans-76" transform="translate(1083.101562 0)"/>
     <use xlink:href="#DejaVuSans-61" transform="translate(1142.28125 0)"/>
     <use xlink:href="#DejaVuSans-6c" transform="translate(1203.560547 0)"/>
     <use xlink:href="#DejaVuSans-20" transform="translate(1231.34375 0)"/>
     <use xlink:href="#DejaVuSans-6c" transform="translate(1263.130859 0)"/>
     <use xlink:href="#DejaVuSans-65" transform="translate(1290.914062 0)"/>
     <use xlink:href="#DejaVuSans-6e" transform="translate(1352.4375 0)"/>
     <use xlink:href="#DejaVuSans-67" transform="translate(1415.816406 0)"/>
     <use xlink:href="#DejaVuSans-74" transform="translate(1479.292969 0)"/>
     <use xlink:href="#DejaVuSans-68" transform="translate(1518.501953 0)"/>
    </g>
   </g>
   <g id="legend_3">
    <g id="patch_82">
     <path d="M 733.695631 165.1875 
L 869.494068 165.1875 
Q 871.494068 165.1875 871.494068 163.1875 
L 871.494068 134.83125 
Q 871.494068 132.83125 869.494068 132.83125 
L 733.695631 132.83125 
Q 731.695631 132.83125 731.695631 134.83125 
L 731.695631 163.1875 
Q 731.695631 165.1875 733.695631 165.1875 
z
" style="fill: #ffffff; opacity: 0.8; stroke: #cccccc; stroke-linejoin: miter"/>
    </g>
    <g id="text_45">
     <!-- ratio of average (per split) -->
     <g transform="translate(735.695631 144.429687) scale(0.1 -0.1)">
      <defs>
       <path id="DejaVuSans-66" d="M 2375 4863 
L 2375 4384 
L 1825 4384 
Q 1516 4384 1395 4259 
Q 1275 4134 1275 3809 
L 1275 3500 
L 2222 3500 
L 2222 3053 
L 1275 3053 
L 1275 0 
L 697 0 
L 697 3053 
L 147 3053 
L 147 3500 
L 697 3500 
L 697 3744 
Q 697 4328 969 4595 
Q 1241 4863 1831 4863 
L 2375 4863 
z
" transform="scale(0.015625)"/>
      </defs>
      <use xlink:href="#DejaVuSans-72"/>
      <use xlink:href="#DejaVuSans-61" transform="translate(41.113281 0)"/>
      <use xlink:href="#DejaVuSans-74" transform="translate(102.392578 0)"/>
      <use xlink:href="#DejaVuSans-69" transform="translate(141.601562 0)"/>
      <use xlink:href="#DejaVuSans-6f" transform="translate(169.384766 0)"/>
      <use xlink:href="#DejaVuSans-20" transform="translate(230.566406 0)"/>
      <use xlink:href="#DejaVuSans-6f" transform="translate(262.353516 0)"/>
      <use xlink:href="#DejaVuSans-66" transform="translate(323.535156 0)"/>
      <use xlink:href="#DejaVuSans-20" transform="translate(358.740234 0)"/>
      <use xlink:href="#DejaVuSans-61" transform="translate(390.527344 0)"/>
      <use xlink:href="#DejaVuSans-76" transform="translate(451.806641 0)"/>
      <use xlink:href="#DejaVuSans-65" transform="translate(510.986328 0)"/>
      <use xlink:href="#DejaVuSans-72" transform="translate(572.509766 0)"/>
      <use xlink:href="#DejaVuSans-61" transform="translate(613.623047 0)"/>
      <use xlink:href="#DejaVuSans-67" transform="translate(674.902344 0)"/>
      <use xlink:href="#DejaVuSans-65" transform="translate(738.378906 0)"/>
      <use xlink:href="#DejaVuSans-20" transform="translate(799.902344 0)"/>
      <use xlink:href="#DejaVuSans-28" transform="translate(831.689453 0)"/>
      <use xlink:href="#DejaVuSans-70" transform="translate(870.703125 0)"/>
      <use xlink:href="#DejaVuSans-65" transform="translate(934.179688 0)"/>
      <use xlink:href="#DejaVuSans-72" transform="translate(995.703125 0)"/>
      <use xlink:href="#DejaVuSans-20" transform="translate(1036.816406 0)"/>
      <use xlink:href="#DejaVuSans-73" transform="translate(1068.603516 0)"/>
      <use xlink:href="#DejaVuSans-70" transform="translate(1120.703125 0)"/>
      <use xlink:href="#DejaVuSans-6c" transform="translate(1184.179688 0)"/>
      <use xlink:href="#DejaVuSans-69" transform="translate(1211.962891 0)"/>
      <use xlink:href="#DejaVuSans-74" transform="translate(1239.746094 0)"/>
      <use xlink:href="#DejaVuSans-29" transform="translate(1278.955078 0)"/>
     </g>
    </g>
    <g id="patch_83">
     <path d="M 765.337818 159.107812 
L 785.337818 159.107812 
L 785.337818 152.107812 
L 765.337818 152.107812 
z
" style="fill: #008080; stroke: #008080; stroke-linejoin: miter"/>
    </g>
    <g id="text_46">
     <!-- ours / CP -->
     <g transform="translate(793.337818 159.107812) scale(0.1 -0.1)">
      <defs>
       <path id="DejaVuSans-2f" d="M 1625 4666 
L 2156 4666 
L 531 -594 
L 0 -594 
L 1625 4666 
z
" transform="scale(0.015625)"/>
      </defs>
      <use xlink:href="#DejaVuSans-6f"/>
      <use xlink:href="#DejaVuSans-75" transform="translate(61.181641 0)"/>
      <use xlink:href="#DejaVuSans-72" transform="translate(124.560547 0)"/>
      <use xlink:href="#DejaVuSans-73" transform="translate(165.673828 0)"/>
      <use xlink:href="#DejaVuSans-20" transform="translate(217.773438 0)"/>
      <use xlink:href="#DejaVuSans-2f" transform="translate(249.560547 0)"/>
      <use xlink:href="#DejaVuSans-20" transform="translate(283.251953 0)"/>
      <use xlink:href="#DejaVuSans-43" transform="translate(315.039062 0)"/>
      <use xlink:href="#DejaVuSans-50" transform="translate(384.863281 0)"/>
     </g>
    </g>
   </g>
  </g>
  <g id="text_47">
   <!-- Base model: MDN ($\alpha = 0.05$) -->
   <g transform="translate(415.175 16.318125) scale(0.12 -0.12)">
    <defs>
     <path id="DejaVuSans-42" d="M 1259 2228 
L 1259 519 
L 2272 519 
Q 2781 519 3026 730 
Q 3272 941 3272 1375 
Q 3272 1813 3026 2020 
Q 2781 2228 2272 2228 
L 1259 2228 
z
M 1259 4147 
L 1259 2741 
L 2194 2741 
Q 2656 2741 2882 2914 
Q 3109 3088 3109 3444 
Q 3109 3797 2882 3972 
Q 2656 4147 2194 4147 
L 1259 4147 
z
M 628 4666 
L 2241 4666 
Q 2963 4666 3353 4366 
Q 3744 4066 3744 3513 
Q 3744 3084 3544 2831 
Q 3344 2578 2956 2516 
Q 3422 2416 3680 2098 
Q 3938 1781 3938 1306 
Q 3938 681 3513 340 
Q 3088 0 2303 0 
L 628 0 
L 628 4666 
z
" transform="scale(0.015625)"/>
     <path id="DejaVuSans-3a" d="M 750 794 
L 1409 794 
L 1409 0 
L 750 0 
L 750 794 
z
M 750 3309 
L 1409 3309 
L 1409 2516 
L 750 2516 
L 750 3309 
z
" transform="scale(0.015625)"/>
     <path id="DejaVuSans-4d" d="M 628 4666 
L 1569 4666 
L 2759 1491 
L 3956 4666 
L 4897 4666 
L 4897 0 
L 4281 0 
L 4281 4097 
L 3078 897 
L 2444 897 
L 1241 4097 
L 1241 0 
L 628 0 
L 628 4666 
z
" transform="scale(0.015625)"/>
     <path id="DejaVuSans-44" d="M 1259 4147 
L 1259 519 
L 2022 519 
Q 2988 519 3436 956 
Q 3884 1394 3884 2338 
Q 3884 3275 3436 3711 
Q 2988 4147 2022 4147 
L 1259 4147 
z
M 628 4666 
L 1925 4666 
Q 3281 4666 3915 4102 
Q 4550 3538 4550 2338 
Q 4550 1131 3912 565 
Q 3275 0 1925 0 
L 628 0 
L 628 4666 
z
" transform="scale(0.015625)"/>
     <path id="DejaVuSans-4e" d="M 628 4666 
L 1478 4666 
L 3547 763 
L 3547 4666 
L 4159 4666 
L 4159 0 
L 3309 0 
L 1241 3903 
L 1241 0 
L 628 0 
L 628 4666 
z
" transform="scale(0.015625)"/>
     <path id="DejaVuSans-3d" d="M 678 2906 
L 4684 2906 
L 4684 2381 
L 678 2381 
L 678 2906 
z
M 678 1631 
L 4684 1631 
L 4684 1100 
L 678 1100 
L 678 1631 
z
" transform="scale(0.015625)"/>
    </defs>
    <use xlink:href="#DejaVuSans-42" transform="translate(0 0.015625)"/>
    <use xlink:href="#DejaVuSans-61" transform="translate(68.603516 0.015625)"/>
    <use xlink:href="#DejaVuSans-73" transform="translate(129.882812 0.015625)"/>
    <use xlink:href="#DejaVuSans-65" transform="translate(181.982422 0.015625)"/>
    <use xlink:href="#DejaVuSans-20" transform="translate(243.505859 0.015625)"/>
    <use xlink:href="#DejaVuSans-6d" transform="translate(275.292969 0.015625)"/>
    <use xlink:href="#DejaVuSans-6f" transform="translate(372.705078 0.015625)"/>
    <use xlink:href="#DejaVuSans-64" transform="translate(433.886719 0.015625)"/>
    <use xlink:href="#DejaVuSans-65" transform="translate(497.363281 0.015625)"/>
    <use xlink:href="#DejaVuSans-6c" transform="translate(558.886719 0.015625)"/>
    <use xlink:href="#DejaVuSans-3a" transform="translate(586.669922 0.015625)"/>
    <use xlink:href="#DejaVuSans-20" transform="translate(620.361328 0.015625)"/>
    <use xlink:href="#DejaVuSans-4d" transform="translate(652.148438 0.015625)"/>
    <use xlink:href="#DejaVuSans-44" transform="translate(738.427734 0.015625)"/>
    <use xlink:href="#DejaVuSans-4e" transform="translate(815.429688 0.015625)"/>
    <use xlink:href="#DejaVuSans-20" transform="translate(890.234375 0.015625)"/>
    <use xlink:href="#DejaVuSans-28" transform="translate(922.021484 0.015625)"/>
    <use xlink:href="#DejaVuSans-Oblique-3b1" transform="translate(961.035156 0.015625)"/>
    <use xlink:href="#DejaVuSans-3d" transform="translate(1046.435547 0.015625)"/>
    <use xlink:href="#DejaVuSans-30" transform="translate(1149.707031 0.015625)"/>
    <use xlink:href="#DejaVuSans-2e" transform="translate(1213.330078 0.015625)"/>
    <use xlink:href="#DejaVuSans-30" transform="translate(1245.117188 0.015625)"/>
    <use xlink:href="#DejaVuSans-35" transform="translate(1308.740234 0.015625)"/>
    <use xlink:href="#DejaVuSans-29" transform="translate(1372.363281 0.015625)"/>
   </g>
  </g>
 </g>
 <defs>
  <clipPath id="pc172df816c">
   <rect x="152.875" y="50.64" width="266.399369" height="196.73875"/>
  </clipPath>
  <clipPath id="pe3afd73916">
   <rect x="439.785315" y="50.64" width="266.399369" height="196.73875"/>
  </clipPath>
  <clipPath id="p913266a18c">
   <rect x="726.695631" y="50.64" width="266.399369" height="196.73875"/>
  </clipPath>
 </defs>
</svg>
